<?xml version="1.0" encoding="utf-8"?>
<!-- Generator: Adobe Illustrator 17.0.0, SVG Export Plug-In . SVG Version: 6.00 Build 0)  -->
<!DOCTYPE svg PUBLIC "-//W3C//DTD SVG 1.1//EN" "http://www.w3.org/Graphics/SVG/1.1/DTD/svg11.dtd">
<svg version="1.1" id="Layer_19" xmlns="http://www.w3.org/2000/svg" xmlns:xlink="http://www.w3.org/1999/xlink" x="0px" y="0px"
	 width="2124px" height="1083px" viewBox="0 0 2124 1083" enable-background="new 0 0 2124 1083" xml:space="preserve">
<g id="Layer_19">
	<g>
		
			<text transform="matrix(1 0 0 1 62.1263 539.9899)" fill="none" stroke="#231F20" stroke-width="2" font-family="'Tahoma-Bold'" font-size="12">M02</text>
		
			<text transform="matrix(1 0 0 1 67.9612 667.9933)" fill="none" stroke="#231F20" stroke-width="2" font-family="'Tahoma-Bold'" font-size="12">M01</text>
		
			<text transform="matrix(1 0 0 1 62.1263 599.3401)" fill="none" stroke="#231F20" stroke-width="2" font-family="'Tahoma-Bold'" font-size="12">M07</text>
		
			<text transform="matrix(1 0 0 1 115.7381 602.5815)" fill="none" stroke="#231F20" stroke-width="2" font-family="'Tahoma-Bold'" font-size="12">M03</text>
		
			<text transform="matrix(1 0 0 1 168.6825 671.9453)" fill="none" stroke="#231F20" stroke-width="2" font-family="'Tahoma-Bold'" font-size="12">M04</text>
		
			<text transform="matrix(1 0 0 1 148.7366 545.0546)" fill="none" stroke="#231F20" stroke-width="2" font-family="'Tahoma-Bold'" font-size="12">M08</text>
		
			<text transform="matrix(1 0 0 1 255.25 689.7211)" fill="none" stroke="#231F20" stroke-width="2" font-family="'Tahoma-Bold'" font-size="12">M05</text>
		
			<text transform="matrix(1 0 0 1 265.4776 641)" fill="none" stroke="#231F20" stroke-width="2" font-family="'Tahoma-Bold'" font-size="12">M09</text>
		
			<text transform="matrix(1 0 0 1 335.5302 647.7029)" fill="none" stroke="#231F20" stroke-width="2" font-family="'Tahoma-Bold'" font-size="12">M06</text>
		
			<text transform="matrix(1 0 0 1 479.1782 622.9333)" fill="none" stroke="#231F20" stroke-width="2" font-family="'Tahoma-Bold'" font-size="12">L18</text>
		
			<text transform="matrix(1 0 0 1 466.1932 575.1184)" fill="none" stroke="#231F20" stroke-width="2" font-family="'Tahoma-Bold'" font-size="12">L19</text>
		
			<text transform="matrix(1 0 0 1 503.0911 575.1184)" fill="none" stroke="#231F20" stroke-width="2" font-family="'Tahoma-Bold'" font-size="12">L20</text>
		
			<text transform="matrix(1 0 0 1 553.4839 605.3545)" fill="none" stroke="#231F20" stroke-width="2" font-family="'Tahoma-Bold'" font-size="12">L17</text>
		
			<text transform="matrix(1 0 0 1 615.7498 605.842)" fill="none" stroke="#231F20" stroke-width="2" font-family="'Tahoma-Bold'" font-size="12">L11</text>
		
			<text transform="matrix(1 0 0 1 607.2443 545.0544)" fill="none" stroke="#231F20" stroke-width="2" font-family="'Tahoma-Bold'" font-size="12">L12</text>
		
			<text transform="matrix(1 0 0 1 533.0988 525.7346)" fill="none" stroke="#231F20" stroke-width="2" font-family="'Tahoma-Bold'" font-size="12">L14</text>
		
			<text transform="matrix(1 0 0 1 562.5308 525.7344)" fill="none" stroke="#231F20" stroke-width="2" font-family="'Tahoma-Bold'" font-size="12">L13</text>
		
			<text transform="matrix(1 0 0 1 515.5042 459.4998)" fill="none" stroke="#231F20" stroke-width="2" font-family="'Tahoma-Bold'" font-size="12">L15</text>
		
			<text transform="matrix(1 0 0 1 670.0385 569.2037)" fill="none" stroke="#231F20" stroke-width="2" font-family="'Tahoma-Bold'" font-size="12">L10</text>
		
			<text transform="matrix(1 0 0 1 651.4664 672.2036)" fill="none" stroke="#231F20" stroke-width="2" font-family="'Tahoma-Bold'" font-size="12">L15</text>
		
			<text transform="matrix(1 0 0 1 712.1463 632.7134)" fill="none" stroke="#231F20" stroke-width="2" font-family="'Tahoma-Bold'" font-size="12">L07</text>
		
			<text transform="matrix(1 0 0 1 719.8856 713.7236)" fill="none" stroke="#231F20" stroke-width="2" font-family="'Tahoma-Bold'" font-size="12">L08</text>
		
			<text transform="matrix(1 0 0 1 503.091 871.0881)" fill="none" stroke="#231F20" stroke-width="2" font-family="'Tahoma-Bold'" font-size="12">K14</text>
		
			<text transform="matrix(1 0 0 1 578.558 839.9509)" fill="none" stroke="#231F20" stroke-width="2" font-family="'Tahoma-Bold'" font-size="12">K20</text>
		
			<text transform="matrix(1 0 0 1 702.6765 761.2334)" fill="none" stroke="#231F20" stroke-width="2" font-family="'Tahoma-Bold'" font-size="12">K05</text>
		
			<text transform="matrix(1 0 0 1 702.6763 781.1295)" fill="none" stroke="#231F20" stroke-width="2" font-family="'Tahoma-Bold'" font-size="12">K06</text>
		
			<text transform="matrix(1 0 0 1 702.6763 838.0767)" fill="none" stroke="#231F20" stroke-width="2" font-family="'Tahoma-Bold'" font-size="12">K07</text>
		
			<text transform="matrix(1 0 0 1 702.676 857.9727)" fill="none" stroke="#231F20" stroke-width="2" font-family="'Tahoma-Bold'" font-size="12">K08</text>
		
			<text transform="matrix(1 0 0 1 801.5655 768.2498)" fill="none" stroke="#231F20" stroke-width="2" font-family="'Tahoma-Bold'" font-size="12">K01</text>
		
			<text transform="matrix(1 0 0 1 801.5652 788.1459)" fill="none" stroke="#231F20" stroke-width="2" font-family="'Tahoma-Bold'" font-size="12">K02</text>
		
			<text transform="matrix(1 0 0 1 801.5652 845.093)" fill="none" stroke="#231F20" stroke-width="2" font-family="'Tahoma-Bold'" font-size="12">K03</text>
		
			<text transform="matrix(1 0 0 1 801.565 864.9891)" fill="none" stroke="#231F20" stroke-width="2" font-family="'Tahoma-Bold'" font-size="12">K04</text>
		
			<text transform="matrix(1 0 0 1 801.7869 811.1429)" fill="none" stroke="#231F20" stroke-width="2" font-family="'Tahoma-Bold'" font-size="12">K09</text>
		
			<text transform="matrix(1 0 0 1 702.6761 811.1428)" fill="none" stroke="#231F20" stroke-width="2" font-family="'Tahoma-Bold'" font-size="12">K10</text>
		
			<text transform="matrix(1 0 0 1 773.4165 652.8821)" fill="none" stroke="#231F20" stroke-width="2" font-family="'Tahoma-Bold'" font-size="12">L02</text>
		
			<text transform="matrix(1 0 0 1 801.7869 683.279)" fill="none" stroke="#231F20" stroke-width="2" font-family="'Tahoma-Bold'" font-size="12">L04</text>
		
			<text transform="matrix(1 0 0 1 776.4137 713.7244)" fill="none" stroke="#231F20" stroke-width="2" font-family="'Tahoma-Bold'" font-size="12">L01</text>
		
			<text transform="matrix(1 0 0 1 849.5905 720.7795)" fill="none" stroke="#231F20" stroke-width="2" font-family="'Tahoma-Bold'" font-size="12">L21</text>
		
			<text transform="matrix(1 0 0 1 983.332 510.4982)" fill="none" stroke="#231F20" stroke-width="2" font-family="'Tahoma-Bold'" font-size="12">J01</text>
		
			<text transform="matrix(1 0 0 1 983.332 535.7138)" fill="none" stroke="#231F20" stroke-width="2" font-family="'Tahoma-Bold'" font-size="12">J02</text>
		
			<text transform="matrix(1 0 0 1 983.332 558.4891)" fill="none" stroke="#231F20" stroke-width="2" font-family="'Tahoma-Bold'" font-size="12">J03</text>
		
			<text transform="matrix(1 0 0 1 987.728 585.4184)" fill="none" stroke="#231F20" stroke-width="2" font-family="'Tahoma-Bold'" font-size="12">J04</text>
		
			<text transform="matrix(1 0 0 1 987.7281 605.8424)" fill="none" stroke="#231F20" stroke-width="2" font-family="'Tahoma-Bold'" font-size="12">J05</text>
		
			<text transform="matrix(1 0 0 1 987.7281 632.7142)" fill="none" stroke="#231F20" stroke-width="2" font-family="'Tahoma-Bold'" font-size="12">J06</text>
		
			<text transform="matrix(1 0 0 1 881.9855 605.8427)" fill="none" stroke="#231F20" stroke-width="2" font-family="'Tahoma-Bold'" font-size="12">J09</text>
		
			<text transform="matrix(1 0 0 1 872.2545 630.0815)" fill="none" stroke="#231F20" stroke-width="2" font-family="'Tahoma-Bold'" font-size="12">J08</text>
		
			<text transform="matrix(1 0 0 1 932.4166 603.6509)" fill="none" stroke="#231F20" stroke-width="2" font-family="'Tahoma-Bold'" font-size="12">J10</text>
		
			<text transform="matrix(1 0 0 1 932.4165 630.8821)" fill="none" stroke="#231F20" stroke-width="2" font-family="'Tahoma-Bold'" font-size="12">J07</text>
		
			<text transform="matrix(1 0 0 1 877.9712 567.8301)" fill="none" stroke="#231F20" stroke-width="2" font-family="'Tahoma-Bold'" font-size="12">J11</text>
		
			<text transform="matrix(1 0 0 1 928.7176 571.4738)" fill="none" stroke="#231F20" stroke-width="2" font-family="'Tahoma-Bold'" font-size="12">J12</text>
		
			<text transform="matrix(1 0 0 1 909.1959 522.1333)" fill="none" stroke="#231F20" stroke-width="2" font-family="'Tahoma-Bold'" font-size="12">J13</text>
		
			<text transform="matrix(1 0 0 1 787.6729 905.4387)" fill="none" stroke="#231F20" stroke-width="2" font-family="'Tahoma-Bold'" font-size="12">K18</text>
		
			<text transform="matrix(1 0 0 1 793.5057 944.7516)" fill="none" stroke="#231F20" stroke-width="2" font-family="'Tahoma-Bold'" font-size="12">K19</text>
		
			<text transform="matrix(1 0 0 1 1042.4937 801.2285)" fill="none" stroke="#231F20" stroke-width="2" font-family="'Tahoma-Bold'" font-size="12">F25</text>
		
			<text transform="matrix(1 0 0 1 1107.3701 788.1458)" fill="none" stroke="#231F20" stroke-width="2" font-family="'Tahoma-Bold'" font-size="12">F26</text>
		
			<text transform="matrix(1 0 0 1 1065.886 746.1757)" fill="none" stroke="#231F20" stroke-width="2" font-family="'Tahoma-Bold'" font-size="12">F24</text>
		
			<text transform="matrix(1 0 0 1 1032.5181 677.6396)" fill="none" stroke="#231F20" stroke-width="2" font-family="'Tahoma-Bold'" font-size="12">H06</text>
		
			<text transform="matrix(1 0 0 1 1042.4937 619.9943)" fill="none" stroke="#231F20" stroke-width="2" font-family="'Tahoma-Bold'" font-size="12">H07</text>
		
			<text transform="matrix(1 0 0 1 1074.9684 558.4893)" fill="none" stroke="#231F20" stroke-width="2" font-family="'Tahoma-Bold'" font-size="12">H09</text>
		
			<text transform="matrix(1 0 0 1 1094.9738 492.438)" fill="none" stroke="#231F20" stroke-width="2" font-family="'Tahoma-Bold'" font-size="12">H10</text>
		
			<text transform="matrix(1 0 0 1 1053.8859 451.3354)" fill="none" stroke="#231F20" stroke-width="2" font-family="'Tahoma-Bold'" font-size="12">H11</text>
		
			<text transform="matrix(1 0 0 1 1143.1331 415.428)" fill="none" stroke="#231F20" stroke-width="2" font-family="'Tahoma-Bold'" font-size="12">H13</text>
		
			<text transform="matrix(1 0 0 1 1189.5084 456.7197)" fill="none" stroke="#231F20" stroke-width="2" font-family="'Tahoma-Bold'" font-size="12">H12</text>
		
			<text transform="matrix(1 0 0 1 1181.4924 367.6385)" fill="none" stroke="#231F20" stroke-width="2" font-family="'Tahoma-Bold'" font-size="12">H51</text>
		
			<text transform="matrix(1 0 0 1 1266.7793 366.1055)" fill="none" stroke="#231F20" stroke-width="2" font-family="'Tahoma-Bold'" font-size="12">H20</text>
		
			<text transform="matrix(1 0 0 1 1268.9855 336.2557)" fill="none" stroke="#231F20" stroke-width="2" font-family="'Tahoma-Bold'" font-size="12">H21</text>
		
			<text transform="matrix(1 0 0 1 1270.5897 295.7755)" fill="none" stroke="#231F20" stroke-width="2" font-family="'Tahoma-Bold'" font-size="12">H22</text>
		
			<text transform="matrix(1 0 0 1 1296.489 268.7193)" fill="none" stroke="#231F20" stroke-width="2" font-family="'Tahoma-Bold'" font-size="12">H23</text>
		
			<text transform="matrix(1 0 0 1 1283.9833 224.4529)" fill="none" stroke="#231F20" stroke-width="2" font-family="'Tahoma-Bold'" font-size="12">H24</text>
		
			<text transform="matrix(1 0 0 1 1290.5026 191.7353)" fill="none" stroke="#231F20" stroke-width="2" font-family="'Tahoma-Bold'" font-size="12">H25</text>
		
			<text transform="matrix(1 0 0 1 1341.6123 301.8462)" fill="none" stroke="#231F20" stroke-width="2" font-family="'Tahoma-Bold'" font-size="12">H29</text>
		
			<text transform="matrix(1 0 0 1 1408.9093 251.3333)" fill="none" stroke="#231F20" stroke-width="2" font-family="'Tahoma-Bold'" font-size="12">H33</text>
		
			<text transform="matrix(1 0 0 1 1469.3008 217.6753)" fill="none" stroke="#231F20" stroke-width="2" font-family="'Tahoma-Bold'" font-size="12">H34</text>
		
			<text transform="matrix(1 0 0 1 1438.3103 294.0588)" fill="none" stroke="#231F20" stroke-width="2" font-family="'Tahoma-Bold'" font-size="12">H35</text>
		
			<text transform="matrix(1 0 0 1 1270.5898 436.8786)" fill="none" stroke="#231F20" stroke-width="2" font-family="'Tahoma-Bold'" font-size="12">G06</text>
		
			<text transform="matrix(1 0 0 1 1254.9415 485.3514)" fill="none" stroke="#231F20" stroke-width="2" font-family="'Tahoma-Bold'" font-size="12">G07</text>
		
			<text transform="matrix(1 0 0 1 1209.6913 562.1201)" fill="none" stroke="#231F20" stroke-width="2" font-family="'Tahoma-Bold'" font-size="12">G27</text>
		
			<text transform="matrix(1 0 0 1 1278.1295 547.2942)" fill="none" stroke="#231F20" stroke-width="2" font-family="'Tahoma-Bold'" font-size="12">G03</text>
		
			<text transform="matrix(1 0 0 1 1353.5339 512.7603)" fill="none" stroke="#231F20" stroke-width="2" font-family="'Tahoma-Bold'" font-size="12">G02</text>
		
			<text transform="matrix(1 0 0 1 1371.2493 591.223)" fill="none" stroke="#231F20" stroke-width="2" font-family="'Tahoma-Bold'" font-size="12">G01</text>
		
			<text transform="matrix(1 0 0 1 1219.6016 644.29)" fill="none" stroke="#231F20" stroke-width="2" font-family="'Tahoma-Bold'" font-size="12">G08</text>
		
			<text transform="matrix(1 0 0 1 1196.0955 762.2249)" fill="none" stroke="#231F20" stroke-width="2" font-family="'Tahoma-Bold'" font-size="12">G31</text>
		
			<text transform="matrix(1 0 0 1 1170.6614 727.2567)" fill="none" stroke="#231F20" stroke-width="2" font-family="'Tahoma-Bold'" font-size="12">G09</text>
		
			<text transform="matrix(1 0 0 1 1329.333 792)" fill="none" stroke="#231F20" stroke-width="2" font-family="'Tahoma-Bold'" font-size="12">E46</text>
		
			<text transform="matrix(1 0 0 1 1400.3281 796.1456)" fill="none" stroke="#231F20" stroke-width="2" font-family="'Tahoma-Bold'" font-size="12">E41</text>
		
			<text transform="matrix(1 0 0 1 1551.3856 705.7193)" fill="none" stroke="#231F20" stroke-width="2" font-family="'Tahoma-Bold'" font-size="12">E44</text>
		
			<text transform="matrix(1 0 0 1 1523.7432 739.965)" fill="none" stroke="#231F20" stroke-width="2" font-family="'Tahoma-Bold'" font-size="12">E45</text>
		
			<text transform="matrix(1 0 0 1 1579.9799 765.4789)" fill="none" stroke="#231F20" stroke-width="2" font-family="'Tahoma-Bold'" font-size="12">E37</text>
		
			<text transform="matrix(1 0 0 1 1466.6615 658.1399)" fill="none" stroke="#231F20" stroke-width="2" font-family="'Tahoma-Bold'" font-size="12">E42</text>
		
			<text transform="matrix(1 0 0 1 1434.9952 709.3723)" fill="none" stroke="#231F20" stroke-width="2" font-family="'Tahoma-Bold'" font-size="12">E49</text>
		
			<text transform="matrix(1 0 0 1 1646.075 780.9415)" fill="none" stroke="#231F20" stroke-width="2" font-family="'Tahoma-Bold'" font-size="12">E48</text>
		
			<text transform="matrix(1 0 0 1 1617.3689 739.9651)" fill="none" stroke="#231F20" stroke-width="2" font-family="'Tahoma-Bold'" font-size="12">E47</text>
		
			<text transform="matrix(1 0 0 1 1678.6136 838.0769)" fill="none" stroke="#231F20" stroke-width="2" font-family="'Tahoma-Bold'" font-size="12">E49</text>
		
			<text transform="matrix(1 0 0 1 1738.4202 847.4733)" fill="none" stroke="#231F20" stroke-width="2" font-family="'Tahoma-Bold'" font-size="12">E40</text>
		
			<text transform="matrix(1 0 0 1 1738.4202 804.1399)" fill="none" stroke="#231F20" stroke-width="2" font-family="'Tahoma-Bold'" font-size="12">E38</text>
		
			<text transform="matrix(1 0 0 1 1731.3229 764.2205)" fill="none" stroke="#231F20" stroke-width="2" font-family="'Tahoma-Bold'" font-size="12">E08</text>
		
			<text transform="matrix(1 0 0 1 1664.667 685.333)" fill="none" stroke="#231F20" stroke-width="2" font-family="'Tahoma-Bold'" font-size="12">D31</text>
		
			<text transform="matrix(1 0 0 1 1477.8882 578.566)" fill="none" stroke="#231F20" stroke-width="2" font-family="'Tahoma-Bold'" font-size="12">D19</text>
		
			<text transform="matrix(1 0 0 1 1498.7395 628.3678)" fill="none" stroke="#231F20" stroke-width="2" font-family="'Tahoma-Bold'" font-size="12">D20</text>
		
			<text transform="matrix(1 0 0 1 1521.3848 597.7848)" fill="none" stroke="#231F20" stroke-width="2" font-family="'Tahoma-Bold'" font-size="12">D21</text>
		
			<text transform="matrix(1 0 0 1 1546.2289 644.8395)" fill="none" stroke="#231F20" stroke-width="2" font-family="'Tahoma-Bold'" font-size="12">D28</text>
		
			<text transform="matrix(1 0 0 1 1579.9794 662.3915)" fill="none" stroke="#231F20" stroke-width="2" font-family="'Tahoma-Bold'" font-size="12">D29</text>
		
			<text transform="matrix(1 0 0 1 1721.333 615.333)" fill="none" stroke="#231F20" stroke-width="2" font-family="'Tahoma-Bold'" font-size="12">D09</text>
		
			<text transform="matrix(1 0 0 1 1678.6133 584.1912)" fill="none" stroke="#231F20" stroke-width="2" font-family="'Tahoma-Bold'" font-size="12">D10</text>
		
			<text transform="matrix(1 0 0 1 1643.6934 512.7603)" fill="none" stroke="#231F20" stroke-width="2" font-family="'Tahoma-Bold'" font-size="12">D01</text>
		
			<text transform="matrix(1 0 0 1 1715.451 547.2939)" fill="none" stroke="#231F20" stroke-width="2" font-family="'Tahoma-Bold'" font-size="12">D03</text>
		
			<text transform="matrix(1 0 0 1 1726.2128 575.1186)" fill="none" stroke="#231F20" stroke-width="2" font-family="'Tahoma-Bold'" font-size="12">D38</text>
		
			<text transform="matrix(1 0 0 1 1754.8262 584.1912)" fill="none" stroke="#231F20" stroke-width="2" font-family="'Tahoma-Bold'" font-size="12">D04</text>
		
			<text transform="matrix(1 0 0 1 1764.0389 605.8428)" fill="none" stroke="#231F20" stroke-width="2" font-family="'Tahoma-Bold'" font-size="12">D05</text>
		
			<text transform="matrix(1 0 0 1 1616 435.3335)" fill="none" stroke="#231F20" stroke-width="2" font-family="'Tahoma-Bold'" font-size="12">C22</text>
		
			<text transform="matrix(1 0 0 1 1624.0145 389.4556)" fill="none" stroke="#231F20" stroke-width="2" font-family="'Tahoma-Bold'" font-size="12">C21</text>
		
			<text transform="matrix(1 0 0 1 1600.167 478.4505)" fill="none" stroke="#231F20" stroke-width="2" font-family="'Tahoma-Bold'" font-size="12">C02</text>
		
			<text transform="matrix(1 0 0 1 1565.6666 437.025)" fill="none" stroke="#231F20" stroke-width="2" font-family="'Tahoma-Bold'" font-size="12">C03</text>
		
			<text transform="matrix(1 0 0 1 1588.4175 393.1233)" fill="none" stroke="#231F20" stroke-width="2" font-family="'Tahoma-Bold'" font-size="12">C04</text>
		
			<text transform="matrix(1 0 0 1 1558.5492 502.6483)" fill="none" stroke="#231F20" stroke-width="2" font-family="'Tahoma-Bold'" font-size="12">C09</text>
		
			<text transform="matrix(1 0 0 1 1473.2888 449.1473)" fill="none" stroke="#231F20" stroke-width="2" font-family="'Tahoma-Bold'" font-size="12">C23</text>
		
			<text transform="matrix(1 0 0 1 1497.6475 507.6019)" fill="none" stroke="#231F20" stroke-width="2" font-family="'Tahoma-Bold'" font-size="12">C10</text>
		
			<text transform="matrix(1 0 0 1 1526.167 478.4503)" fill="none" stroke="#231F20" stroke-width="2" font-family="'Tahoma-Bold'" font-size="12">C08</text>
		
			<text transform="matrix(1 0 0 1 1464.4321 416.7459)" fill="none" stroke="#231F20" stroke-width="2" font-family="'Tahoma-Bold'" font-size="12">C11</text>
		
			<text transform="matrix(1 0 0 1 1462.6479 378.6308)" fill="none" stroke="#231F20" stroke-width="2" font-family="'Tahoma-Bold'" font-size="12">C12</text>
		
			<text transform="matrix(1 0 0 1 1526.1665 320.2526)" fill="none" stroke="#231F20" stroke-width="2" font-family="'Tahoma-Bold'" font-size="12">C14</text>
		
			<text transform="matrix(1 0 0 1 1488.4725 336.2557)" fill="none" stroke="#231F20" stroke-width="2" font-family="'Tahoma-Bold'" font-size="12">C13</text>
		
			<text transform="matrix(1 0 0 1 1526.6476 353.4306)" fill="none" stroke="#231F20" stroke-width="2" font-family="'Tahoma-Bold'" font-size="12">C05</text>
		
			<text transform="matrix(1 0 0 1 1507.0105 395.9554)" fill="none" stroke="#231F20" stroke-width="2" font-family="'Tahoma-Bold'" font-size="12">C16</text>
		
			<text transform="matrix(1 0 0 1 1577.9318 169.4585)" fill="none" stroke="#231F20" stroke-width="2" font-family="'Tahoma-Bold'" font-size="12">B10</text>
		
			<text transform="matrix(1 0 0 1 1588.4176 134.1252)" fill="none" stroke="#231F20" stroke-width="2" font-family="'Tahoma-Bold'" font-size="12">B09</text>
		
			<text transform="matrix(1 0 0 1 1651.9231 178.7533)" fill="none" stroke="#231F20" stroke-width="2" font-family="'Tahoma-Bold'" font-size="12">B12</text>
		
			<text transform="matrix(1 0 0 1 1639.1637 153.387)" fill="none" stroke="#231F20" stroke-width="2" font-family="'Tahoma-Bold'" font-size="12">B13</text>
		
			<text transform="matrix(1 0 0 1 1664.6671 116.7529)" fill="none" stroke="#231F20" stroke-width="2" font-family="'Tahoma-Bold'" font-size="12">B08</text>
		
			<text transform="matrix(1 0 0 1 1736.3969 97.6594)" fill="none" stroke="#231F20" stroke-width="2" font-family="'Tahoma-Bold'" font-size="12">B07</text>
		
			<text transform="matrix(1 0 0 1 1717.4026 142.7918)" fill="none" stroke="#231F20" stroke-width="2" font-family="'Tahoma-Bold'" font-size="12">B15</text>
		
			<text transform="matrix(1 0 0 1 1782.5759 149.4025)" fill="none" stroke="#231F20" stroke-width="2" font-family="'Tahoma-Bold'" font-size="12">B04</text>
		
			<text transform="matrix(1 0 0 1 1792.6781 203.5618)" fill="none" stroke="#231F20" stroke-width="2" font-family="'Tahoma-Bold'" font-size="12">B03</text>
		
			<text transform="matrix(1 0 0 1 1705.1573 199.9998)" fill="none" stroke="#231F20" stroke-width="2" font-family="'Tahoma-Bold'" font-size="12">B01</text>
	</g>
	<g>
		<text transform="matrix(1 0 0 1 62.1263 539.9899)" fill="#FFFFFF" font-family="'Tahoma-Bold'" font-size="12">M02</text>
		<text transform="matrix(1 0 0 1 67.9612 667.9933)" fill="#FFFFFF" font-family="'Tahoma-Bold'" font-size="12">M01</text>
		<text transform="matrix(1 0 0 1 62.1263 599.3401)" fill="#FFFFFF" font-family="'Tahoma-Bold'" font-size="12">M07</text>
		<text transform="matrix(1 0 0 1 115.7381 602.5815)" fill="#FFFFFF" font-family="'Tahoma-Bold'" font-size="12">M03</text>
		<text transform="matrix(1 0 0 1 168.6825 671.9453)" fill="#FFFFFF" font-family="'Tahoma-Bold'" font-size="12">M04</text>
		<text transform="matrix(1 0 0 1 148.7366 545.0546)" fill="#FFFFFF" font-family="'Tahoma-Bold'" font-size="12">M08</text>
		<text transform="matrix(1 0 0 1 255.25 689.7211)" fill="#FFFFFF" font-family="'Tahoma-Bold'" font-size="12">M05</text>
		<text transform="matrix(1 0 0 1 265.4776 641)" fill="#FFFFFF" font-family="'Tahoma-Bold'" font-size="12">M09</text>
		<text transform="matrix(1 0 0 1 335.5302 647.7029)" fill="#FFFFFF" font-family="'Tahoma-Bold'" font-size="12">M06</text>
		<text transform="matrix(1 0 0 1 479.1782 622.9333)" fill="#FFFFFF" font-family="'Tahoma-Bold'" font-size="12">L18</text>
		<text transform="matrix(1 0 0 1 466.1932 575.1184)" fill="#FFFFFF" font-family="'Tahoma-Bold'" font-size="12">L19</text>
		<text transform="matrix(1 0 0 1 503.0911 575.1184)" fill="#FFFFFF" font-family="'Tahoma-Bold'" font-size="12">L20</text>
		<text transform="matrix(1 0 0 1 553.4839 605.3545)" fill="#FFFFFF" font-family="'Tahoma-Bold'" font-size="12">L17</text>
		<text transform="matrix(1 0 0 1 615.7498 605.842)" fill="#FFFFFF" font-family="'Tahoma-Bold'" font-size="12">L11</text>
		<text transform="matrix(1 0 0 1 607.2443 545.0544)" fill="#FFFFFF" font-family="'Tahoma-Bold'" font-size="12">L12</text>
		<text transform="matrix(1 0 0 1 533.0988 525.7346)" fill="#FFFFFF" font-family="'Tahoma-Bold'" font-size="12">L14</text>
		<text transform="matrix(1 0 0 1 562.5308 525.7344)" fill="#FFFFFF" font-family="'Tahoma-Bold'" font-size="12">L13</text>
		<text transform="matrix(1 0 0 1 515.5042 459.4998)" fill="#FFFFFF" font-family="'Tahoma-Bold'" font-size="12">L15</text>
		<text transform="matrix(1 0 0 1 670.0385 569.2037)" fill="#FFFFFF" font-family="'Tahoma-Bold'" font-size="12">L10</text>
		<text transform="matrix(1 0 0 1 651.4664 672.2036)" fill="#FFFFFF" font-family="'Tahoma-Bold'" font-size="12">L15</text>
		<text transform="matrix(1 0 0 1 712.1463 632.7134)" fill="#FFFFFF" font-family="'Tahoma-Bold'" font-size="12">L07</text>
		<text transform="matrix(1 0 0 1 719.8856 713.7236)" fill="#FFFFFF" font-family="'Tahoma-Bold'" font-size="12">L08</text>
		<text transform="matrix(1 0 0 1 503.091 871.0881)" fill="#FFFFFF" font-family="'Tahoma-Bold'" font-size="12">K14</text>
		<text transform="matrix(1 0 0 1 578.558 839.9509)" fill="#FFFFFF" font-family="'Tahoma-Bold'" font-size="12">K20</text>
		<text transform="matrix(1 0 0 1 702.6765 761.2334)" fill="#FFFFFF" font-family="'Tahoma-Bold'" font-size="12">K05</text>
		<text transform="matrix(1 0 0 1 702.6763 781.1295)" fill="#FFFFFF" font-family="'Tahoma-Bold'" font-size="12">K06</text>
		<text transform="matrix(1 0 0 1 702.6763 838.0767)" fill="#FFFFFF" font-family="'Tahoma-Bold'" font-size="12">K07</text>
		<text transform="matrix(1 0 0 1 702.676 857.9727)" fill="#FFFFFF" font-family="'Tahoma-Bold'" font-size="12">K08</text>
		<text transform="matrix(1 0 0 1 801.5655 768.2498)" fill="#FFFFFF" font-family="'Tahoma-Bold'" font-size="12">K01</text>
		<text transform="matrix(1 0 0 1 801.5652 788.1459)" fill="#FFFFFF" font-family="'Tahoma-Bold'" font-size="12">K02</text>
		<text transform="matrix(1 0 0 1 801.5652 845.093)" fill="#FFFFFF" font-family="'Tahoma-Bold'" font-size="12">K03</text>
		<text transform="matrix(1 0 0 1 801.565 864.9891)" fill="#FFFFFF" font-family="'Tahoma-Bold'" font-size="12">K04</text>
		<text transform="matrix(1 0 0 1 801.7869 811.1429)" fill="#FFFFFF" font-family="'Tahoma-Bold'" font-size="12">K09</text>
		<text transform="matrix(1 0 0 1 702.6761 811.1428)" fill="#FFFFFF" font-family="'Tahoma-Bold'" font-size="12">K10</text>
		<text transform="matrix(1 0 0 1 773.4165 652.8821)" fill="#FFFFFF" font-family="'Tahoma-Bold'" font-size="12">L02</text>
		<text transform="matrix(1 0 0 1 801.7869 683.279)" fill="#FFFFFF" font-family="'Tahoma-Bold'" font-size="12">L04</text>
		<text transform="matrix(1 0 0 1 776.4137 713.7244)" fill="#FFFFFF" font-family="'Tahoma-Bold'" font-size="12">L01</text>
		<text transform="matrix(1 0 0 1 849.5905 720.7795)" fill="#FFFFFF" font-family="'Tahoma-Bold'" font-size="12">L21</text>
		<text transform="matrix(1 0 0 1 983.332 510.4982)" fill="#FFFFFF" font-family="'Tahoma-Bold'" font-size="12">J01</text>
		<text transform="matrix(1 0 0 1 983.332 535.7138)" fill="#FFFFFF" font-family="'Tahoma-Bold'" font-size="12">J02</text>
		<text transform="matrix(1 0 0 1 983.332 558.4891)" fill="#FFFFFF" font-family="'Tahoma-Bold'" font-size="12">J03</text>
		<text transform="matrix(1 0 0 1 987.728 585.4184)" fill="#FFFFFF" font-family="'Tahoma-Bold'" font-size="12">J04</text>
		<text transform="matrix(1 0 0 1 987.7281 605.8424)" fill="#FFFFFF" font-family="'Tahoma-Bold'" font-size="12">J05</text>
		<text transform="matrix(1 0 0 1 987.7281 632.7142)" fill="#FFFFFF" font-family="'Tahoma-Bold'" font-size="12">J06</text>
		<text transform="matrix(1 0 0 1 881.9855 605.8427)" fill="#FFFFFF" font-family="'Tahoma-Bold'" font-size="12">J09</text>
		<text transform="matrix(1 0 0 1 872.2545 630.0815)" fill="#FFFFFF" font-family="'Tahoma-Bold'" font-size="12">J08</text>
		<text transform="matrix(1 0 0 1 932.4166 603.6509)" fill="#FFFFFF" font-family="'Tahoma-Bold'" font-size="12">J10</text>
		<text transform="matrix(1 0 0 1 932.4165 630.8821)" fill="#FFFFFF" font-family="'Tahoma-Bold'" font-size="12">J07</text>
		<text transform="matrix(1 0 0 1 877.9712 567.8301)" fill="#FFFFFF" font-family="'Tahoma-Bold'" font-size="12">J11</text>
		<text transform="matrix(1 0 0 1 928.7176 571.4738)" fill="#FFFFFF" font-family="'Tahoma-Bold'" font-size="12">J12</text>
		<text transform="matrix(1 0 0 1 909.1959 522.1333)" fill="#FFFFFF" font-family="'Tahoma-Bold'" font-size="12">J13</text>
		<text transform="matrix(1 0 0 1 787.6729 905.4387)" fill="#FFFFFF" font-family="'Tahoma-Bold'" font-size="12">K18</text>
		<text transform="matrix(1 0 0 1 793.5057 944.7516)" fill="#FFFFFF" font-family="'Tahoma-Bold'" font-size="12">K19</text>
		<text transform="matrix(1 0 0 1 1042.4937 801.2285)" fill="#FFFFFF" font-family="'Tahoma-Bold'" font-size="12">F25</text>
		<text transform="matrix(1 0 0 1 1107.3701 788.1458)" fill="#FFFFFF" font-family="'Tahoma-Bold'" font-size="12">F26</text>
		<text transform="matrix(1 0 0 1 1065.886 746.1757)" fill="#FFFFFF" font-family="'Tahoma-Bold'" font-size="12">F24</text>
		<text transform="matrix(1 0 0 1 1032.5181 677.6396)" fill="#FFFFFF" font-family="'Tahoma-Bold'" font-size="12">H06</text>
		<text transform="matrix(1 0 0 1 1042.4937 619.9943)" fill="#FFFFFF" font-family="'Tahoma-Bold'" font-size="12">H07</text>
		<text transform="matrix(1 0 0 1 1074.9684 558.4893)" fill="#FFFFFF" font-family="'Tahoma-Bold'" font-size="12">H09</text>
		<text transform="matrix(1 0 0 1 1094.9738 492.438)" fill="#FFFFFF" font-family="'Tahoma-Bold'" font-size="12">H10</text>
		<text transform="matrix(1 0 0 1 1053.8859 451.3354)" fill="#FFFFFF" font-family="'Tahoma-Bold'" font-size="12">H11</text>
		<text transform="matrix(1 0 0 1 1143.1331 415.428)" fill="#FFFFFF" font-family="'Tahoma-Bold'" font-size="12">H13</text>
		<text transform="matrix(1 0 0 1 1189.5084 456.7197)" fill="#FFFFFF" font-family="'Tahoma-Bold'" font-size="12">H12</text>
		<text transform="matrix(1 0 0 1 1181.4924 367.6385)" fill="#FFFFFF" font-family="'Tahoma-Bold'" font-size="12">H51</text>
		<text transform="matrix(1 0 0 1 1266.7793 366.1055)" fill="#FFFFFF" font-family="'Tahoma-Bold'" font-size="12">H20</text>
		<text transform="matrix(1 0 0 1 1268.9855 336.2557)" fill="#FFFFFF" font-family="'Tahoma-Bold'" font-size="12">H21</text>
		<text transform="matrix(1 0 0 1 1270.5897 295.7755)" fill="#FFFFFF" font-family="'Tahoma-Bold'" font-size="12">H22</text>
		<text transform="matrix(1 0 0 1 1296.489 268.7193)" fill="#FFFFFF" font-family="'Tahoma-Bold'" font-size="12">H23</text>
		<text transform="matrix(1 0 0 1 1283.9833 224.4529)" fill="#FFFFFF" font-family="'Tahoma-Bold'" font-size="12">H24</text>
		<text transform="matrix(1 0 0 1 1290.5026 191.7353)" fill="#FFFFFF" font-family="'Tahoma-Bold'" font-size="12">H25</text>
		<text transform="matrix(1 0 0 1 1341.6123 301.8462)" fill="#FFFFFF" font-family="'Tahoma-Bold'" font-size="12">H29</text>
		<text transform="matrix(1 0 0 1 1408.9093 251.3333)" fill="#FFFFFF" font-family="'Tahoma-Bold'" font-size="12">H33</text>
		<text transform="matrix(1 0 0 1 1469.3008 217.6753)" fill="#FFFFFF" font-family="'Tahoma-Bold'" font-size="12">H34</text>
		<text transform="matrix(1 0 0 1 1438.3103 294.0588)" fill="#FFFFFF" font-family="'Tahoma-Bold'" font-size="12">H35</text>
		<text transform="matrix(1 0 0 1 1270.5898 436.8786)" fill="#FFFFFF" font-family="'Tahoma-Bold'" font-size="12">G06</text>
		<text transform="matrix(1 0 0 1 1254.9415 485.3514)" fill="#FFFFFF" font-family="'Tahoma-Bold'" font-size="12">G07</text>
		<text transform="matrix(1 0 0 1 1209.6913 562.1201)" fill="#FFFFFF" font-family="'Tahoma-Bold'" font-size="12">G27</text>
		<text transform="matrix(1 0 0 1 1278.1295 547.2942)" fill="#FFFFFF" font-family="'Tahoma-Bold'" font-size="12">G03</text>
		<text transform="matrix(1 0 0 1 1353.5339 512.7603)" fill="#FFFFFF" font-family="'Tahoma-Bold'" font-size="12">G02</text>
		<text transform="matrix(1 0 0 1 1371.2493 591.223)" fill="#FFFFFF" font-family="'Tahoma-Bold'" font-size="12">G01</text>
		<text transform="matrix(1 0 0 1 1219.6016 644.29)" fill="#FFFFFF" font-family="'Tahoma-Bold'" font-size="12">G08</text>
		<text transform="matrix(1 0 0 1 1196.0955 762.2249)" fill="#FFFFFF" font-family="'Tahoma-Bold'" font-size="12">G31</text>
		<text transform="matrix(1 0 0 1 1170.6614 727.2567)" fill="#FFFFFF" font-family="'Tahoma-Bold'" font-size="12">G09</text>
		<text transform="matrix(1 0 0 1 1329.333 792)" fill="#FFFFFF" font-family="'Tahoma-Bold'" font-size="12">E46</text>
		<text transform="matrix(1 0 0 1 1400.3281 796.1456)" fill="#FFFFFF" font-family="'Tahoma-Bold'" font-size="12">E41</text>
		<text transform="matrix(1 0 0 1 1551.3856 705.7193)" fill="#FFFFFF" font-family="'Tahoma-Bold'" font-size="12">E44</text>
		<text transform="matrix(1 0 0 1 1523.7432 739.965)" fill="#FFFFFF" font-family="'Tahoma-Bold'" font-size="12">E45</text>
		<text transform="matrix(1 0 0 1 1579.9799 765.4789)" fill="#FFFFFF" font-family="'Tahoma-Bold'" font-size="12">E37</text>
		<text transform="matrix(1 0 0 1 1466.6615 658.1399)" fill="#FFFFFF" font-family="'Tahoma-Bold'" font-size="12">E42</text>
		<text transform="matrix(1 0 0 1 1434.9952 709.3723)" fill="#FFFFFF" font-family="'Tahoma-Bold'" font-size="12">E49</text>
		<text transform="matrix(1 0 0 1 1646.075 780.9415)" fill="#FFFFFF" font-family="'Tahoma-Bold'" font-size="12">E48</text>
		<text transform="matrix(1 0 0 1 1617.3689 739.9651)" fill="#FFFFFF" font-family="'Tahoma-Bold'" font-size="12">E47</text>
		<text transform="matrix(1 0 0 1 1678.6136 838.0769)" fill="#FFFFFF" font-family="'Tahoma-Bold'" font-size="12">E49</text>
		<text transform="matrix(1 0 0 1 1738.4202 847.4733)" fill="#FFFFFF" font-family="'Tahoma-Bold'" font-size="12">E40</text>
		<text transform="matrix(1 0 0 1 1738.4202 804.1399)" fill="#FFFFFF" font-family="'Tahoma-Bold'" font-size="12">E38</text>
		<text transform="matrix(1 0 0 1 1731.3229 764.2205)" fill="#FFFFFF" font-family="'Tahoma-Bold'" font-size="12">E08</text>
		<text transform="matrix(1 0 0 1 1664.667 685.333)" fill="#FFFFFF" font-family="'Tahoma-Bold'" font-size="12">D31</text>
		<text transform="matrix(1 0 0 1 1477.8882 578.566)" fill="#FFFFFF" font-family="'Tahoma-Bold'" font-size="12">D19</text>
		<text transform="matrix(1 0 0 1 1498.7395 628.3678)" fill="#FFFFFF" font-family="'Tahoma-Bold'" font-size="12">D20</text>
		<text transform="matrix(1 0 0 1 1521.3848 597.7848)" fill="#FFFFFF" font-family="'Tahoma-Bold'" font-size="12">D21</text>
		<text transform="matrix(1 0 0 1 1546.2289 644.8395)" fill="#FFFFFF" font-family="'Tahoma-Bold'" font-size="12">D28</text>
		<text transform="matrix(1 0 0 1 1579.9794 662.3915)" fill="#FFFFFF" font-family="'Tahoma-Bold'" font-size="12">D29</text>
		<text transform="matrix(1 0 0 1 1721.333 615.333)" fill="#FFFFFF" font-family="'Tahoma-Bold'" font-size="12">D09</text>
		<text transform="matrix(1 0 0 1 1678.6133 584.1912)" fill="#FFFFFF" font-family="'Tahoma-Bold'" font-size="12">D10</text>
		<text transform="matrix(1 0 0 1 1643.6934 512.7603)" fill="#FFFFFF" font-family="'Tahoma-Bold'" font-size="12">D01</text>
		<text transform="matrix(1 0 0 1 1715.451 547.2939)" fill="#FFFFFF" font-family="'Tahoma-Bold'" font-size="12">D03</text>
		<text transform="matrix(1 0 0 1 1726.2128 575.1186)" fill="#FFFFFF" font-family="'Tahoma-Bold'" font-size="12">D38</text>
		<text transform="matrix(1 0 0 1 1754.8262 584.1912)" fill="#FFFFFF" font-family="'Tahoma-Bold'" font-size="12">D04</text>
		<text transform="matrix(1 0 0 1 1764.0389 605.8428)" fill="#FFFFFF" font-family="'Tahoma-Bold'" font-size="12">D05</text>
		<text transform="matrix(1 0 0 1 1616 435.3335)" fill="#FFFFFF" font-family="'Tahoma-Bold'" font-size="12">C22</text>
		<text transform="matrix(1 0 0 1 1624.0145 389.4556)" fill="#FFFFFF" font-family="'Tahoma-Bold'" font-size="12">C21</text>
		<text transform="matrix(1 0 0 1 1600.167 478.4505)" fill="#FFFFFF" font-family="'Tahoma-Bold'" font-size="12">C02</text>
		<text transform="matrix(1 0 0 1 1565.6666 437.025)" fill="#FFFFFF" font-family="'Tahoma-Bold'" font-size="12">C03</text>
		<text transform="matrix(1 0 0 1 1588.4175 393.1233)" fill="#FFFFFF" font-family="'Tahoma-Bold'" font-size="12">C04</text>
		<text transform="matrix(1 0 0 1 1558.5492 502.6483)" fill="#FFFFFF" font-family="'Tahoma-Bold'" font-size="12">C09</text>
		<text transform="matrix(1 0 0 1 1473.2888 449.1473)" fill="#FFFFFF" font-family="'Tahoma-Bold'" font-size="12">C23</text>
		<text transform="matrix(1 0 0 1 1497.6475 507.6019)" fill="#FFFFFF" font-family="'Tahoma-Bold'" font-size="12">C10</text>
		<text transform="matrix(1 0 0 1 1526.167 478.4503)" fill="#FFFFFF" font-family="'Tahoma-Bold'" font-size="12">C08</text>
		<text transform="matrix(1 0 0 1 1464.4321 416.7459)" fill="#FFFFFF" font-family="'Tahoma-Bold'" font-size="12">C11</text>
		<text transform="matrix(1 0 0 1 1462.6479 378.6308)" fill="#FFFFFF" font-family="'Tahoma-Bold'" font-size="12">C12</text>
		<text transform="matrix(1 0 0 1 1526.1665 320.2526)" fill="#FFFFFF" font-family="'Tahoma-Bold'" font-size="12">C14</text>
		<text transform="matrix(1 0 0 1 1488.4725 336.2557)" fill="#FFFFFF" font-family="'Tahoma-Bold'" font-size="12">C13</text>
		<text transform="matrix(1 0 0 1 1526.6476 353.4306)" fill="#FFFFFF" font-family="'Tahoma-Bold'" font-size="12">C05</text>
		<text transform="matrix(1 0 0 1 1507.0105 395.9554)" fill="#FFFFFF" font-family="'Tahoma-Bold'" font-size="12">C16</text>
		<text transform="matrix(1 0 0 1 1577.9318 169.4585)" fill="#FFFFFF" font-family="'Tahoma-Bold'" font-size="12">B10</text>
		<text transform="matrix(1 0 0 1 1588.4176 134.1252)" fill="#FFFFFF" font-family="'Tahoma-Bold'" font-size="12">B09</text>
		<text transform="matrix(1 0 0 1 1651.9231 178.7533)" fill="#FFFFFF" font-family="'Tahoma-Bold'" font-size="12">B12</text>
		<text transform="matrix(1 0 0 1 1639.1637 153.387)" fill="#FFFFFF" font-family="'Tahoma-Bold'" font-size="12">B13</text>
		<text transform="matrix(1 0 0 1 1664.6671 116.7529)" fill="#FFFFFF" font-family="'Tahoma-Bold'" font-size="12">B08</text>
		<text transform="matrix(1 0 0 1 1736.3969 97.6594)" fill="#FFFFFF" font-family="'Tahoma-Bold'" font-size="12">B07</text>
		<text transform="matrix(1 0 0 1 1717.4026 142.7918)" fill="#FFFFFF" font-family="'Tahoma-Bold'" font-size="12">B15</text>
		<text transform="matrix(1 0 0 1 1782.5759 149.4025)" fill="#FFFFFF" font-family="'Tahoma-Bold'" font-size="12">B04</text>
		<text transform="matrix(1 0 0 1 1792.6781 203.5618)" fill="#FFFFFF" font-family="'Tahoma-Bold'" font-size="12">B03</text>
		<text transform="matrix(1 0 0 1 1705.1573 199.9998)" fill="#FFFFFF" font-family="'Tahoma-Bold'" font-size="12">B01</text>
	</g>
</g>
</svg>
