<?xml version="1.0" encoding="utf-8"?>
<!-- Generator: Adobe Illustrator 17.0.0, SVG Export Plug-In . SVG Version: 6.00 Build 0)  -->
<!DOCTYPE svg PUBLIC "-//W3C//DTD SVG 1.1//EN" "http://www.w3.org/Graphics/SVG/1.1/DTD/svg11.dtd">
<svg version="1.1" id="Bus_Route_CELSIUS_x28_B_x29_"
	 xmlns="http://www.w3.org/2000/svg" xmlns:xlink="http://www.w3.org/1999/xlink" x="0px" y="0px" width="2124px" height="1083px"
	 viewBox="0 0 2124 1083" enable-background="new 0 0 2124 1083" xml:space="preserve">
<path opacity="0.5" fill="none" stroke="#79A8E2" stroke-width="6" stroke-linejoin="round" stroke-miterlimit="10" enable-background="new    " d="
	M1518.192,549.108c-1.832,4.854-8.445,9.715-14.166,9.252c-8.237-0.666-13.368-6.587-13.368-6.587
	c-0.69,3.061-26.267,25.71-26.267,25.71l-9.206,6.673c-8.949,3.016-26.667,31.475-29.333,35.803
	c-2.667,4.327-13.667,27.665-13.667,27.665c-5.491,9.932-38.232,72.869-43.879,82.035c-2.826,4.588-7.908,12.89-11.925,16.482
	c-2.798,2.502-12.802,7.597-16.243,9.095c-7.697,3.352-35.341,12.497-35.341,12.497s-45.953,17.548-61.897,24.957
	c-6.723,3.124-18.969,10.036-25.025,14.311c-1.794,1.638-4.863,3.408-13.662,10.755c-3.093,1.743-11.372,9.265-14.941,9.709
	c-2.506,1.264-7.747,2.909-10.546,2.703c-7.478-0.551-10.515-2.983-15.041-7.885c-18.362-22.308-76.164-101.561-76.164-101.561
	c9.422-10.854,111.856-219.471,114.055-223.189c0,0,36.893-75.438,38.184-80.724c0.134-0.546,0.933-18.44,1.31-23.171
	c6,1.056,139.643-0.442,141.856,0.863c2.526,0,6.333,1.11,19.452,4.742c9.641,3.284,43.624,10.43,47.031,13.173
	c2.459,3.968,9.324,39.458,13.09,50.177c4.371,7.032,8.759,18.926,12.947,25.602c1.84,2.933,14.853,24.524,17.654,29.014
	c0,0,3.655,8.801,4.885,9.696c1.546,1.125,3.455-0.158,11.768,1.419c4.367,0.829,8.886,6.238,9.622,9.683
	c0,0,1.051,4.816,0.74,5.773C1519.782,544.808,1518.192,549.108,1518.192,549.108z"/>
</svg>
