<?xml version="1.0" encoding="utf-8"?>
<!-- Generator: Adobe Illustrator 17.0.0, SVG Export Plug-In . SVG Version: 6.00 Build 0)  -->
<!DOCTYPE svg PUBLIC "-//W3C//DTD SVG 1.1//EN" "http://www.w3.org/Graphics/SVG/1.1/DTD/svg11.dtd">
<svg version="1.1" xmlns="http://www.w3.org/2000/svg" xmlns:xlink="http://www.w3.org/1999/xlink" x="0px" y="0px" width="2124px"
	 height="1083px" viewBox="0 0 2124 1083" enable-background="new 0 0 2124 1083" xml:space="preserve">
<g id="Desa">
	<path opacity="0.5" fill="#D88235" stroke="#EA1B3D" stroke-miterlimit="1" enable-background="new    " d="M695.717,660.567
		v-5.401h-2.4v-6.201h1.6v-3.8h-2.2v-6.201h3.4v-2.4h-1.4v-3.6h1v-3.4h4v3h2v-1.4h5.601v3.8h2.2v-3h5.801v2.2h2v-2.6h7.201v1.8
		h5.401v4.2h-1.8v2h2.4v5.801h-1.8v1.6h2.4v5.801h-2.6v2.2h3.2v4.4h-1.4v1.8h-1v2h-3.2v-3.2h-2.2v-3.8h1.8v-2.8h-2.2v-6.201h1.8v-1
		h-2.4v-4.6h3.2v-2.2h-1.8v-1.6h-1.4v1.4h-5.401v-1.4h-2.2v1.4h-10.001v-1.8h-5.201v2.4h0.8v5h-2v2.6h2v6.601h3.2v-3.2h3.8v3.6h2
		v-5.401h-1.8v-4h6.001v2.2h2v4.6h-2v8.601h-5.201v-2h-1.4v1.8h-4.8v-2h-3.6v2.4H695.717z"/>
	<path opacity="0.5" fill="#D88235" stroke="#EA1B3D" stroke-miterlimit="1" enable-background="new    " d="M696.451,687.431v2.4
		h3.6v-2h4.8v1.8h1.4v-2h5.201v8.601h2v4.6h-2v2.2h-6.001v-4h1.8v-5.401h-2v3.6h-3.8v-3.2h-3.2v6.601h-2v2.6h2v5h-0.8v2.4h5.201
		v-1.8h10.001v1.4h2.2v-1.4h5.401v1.4h1.4v-1.6h1.8v-2.2h-3.2v-4.6h2.4v-1h-1.8v-6.201h2.2v-2.8h-1.8v-3.8h2.2v-3.2h3.2v2h1v1.8h1.4
		v4.4h-3.2v2.2h2.6v5.801h-2.4v1.6h1.8v5.801h-2.4v2h1.8v4.2h-5.401v1.8h-7.201v-2.6h-2v2.2h-5.801v-3h-2.2v3.8h-5.601v-1.4h-2v3h-4
		v-3.4h-1v-3.6h1.4v-2.4h-3.4v-6.201h2.2v-3.8h-1.6v-6.201h2.4v-5.401H696.451z"/>
	<path opacity="0.5" fill="#D88235" stroke="#EA1B3D" stroke-miterlimit="1" enable-background="new    " d="M609.506,549.287
		v-5.401h-2.4v-6.201h1.6v-3.8h-2.2v-6.201h3.4v-2.4h-1.4v-3.6h1v-3.4h4v3h2v-1.4h5.601v3.8h2.2v-3h5.801v2.2h2v-2.6h7.201v1.8
		h5.401v4.2h-1.8v2h2.4v5.801h-1.8v1.6h2.4v5.801h-2.6v2.2h3.2v4.4h-1.4v1.8h-1v2h-3.2v-3.2h-2.2v-3.8h1.8v-2.8h-2.2v-6.201h1.8v-1
		h-2.4v-4.6h3.2v-2.2h-1.8v-1.6h-1.4v1.4h-5.401v-1.4h-2.2v1.4h-10.001v-1.8h-5.201v2.4h0.8v5h-2v2.6h2v6.601h3.2v-3.2h3.8v3.6h2
		v-5.401h-1.8v-4h6.001v2.2h2v4.601h-2v8.601h-5.201v-2h-1.4v1.8h-4.801v-2h-3.6v2.4H609.506z"/>
	<path opacity="0.5" fill="#D88235" stroke="#EA1B3D" stroke-miterlimit="1" enable-background="new    " d="M610.239,572.412v2.4
		h3.6v-2h4.8v1.8h1.4v-2h5.201v8.601h2v4.6h-2v2.2h-6.001v-4h1.8v-5.401h-2v3.6h-3.8v-3.2h-3.2v6.601h-2v2.6h2v5h-0.8v2.4h5.201
		v-1.8h10.001v1.4h2.2v-1.4h5.401v1.4h1.4v-1.6h1.8v-2.2h-3.2v-4.6h2.4v-1h-1.8v-6.201h2.2v-2.8h-1.8v-3.8h2.2v-3.2h3.2v2h1v1.8h1.4
		v4.4h-3.2v2.2h2.6v5.801h-2.4v1.6h1.8v5.801h-2.4v2h1.8v4.2h-5.401v1.8h-7.201v-2.6h-2v2.2h-5.801v-3h-2.2v3.8h-5.601v-1.4h-2v3h-4
		v-3.4h-1v-3.6h1.4v-2.4h-3.4v-6.201h2.2v-3.8h-1.6v-6.201h2.4v-5.401H610.239z"/>
	<polygon opacity="0.5" fill="#D88235" stroke="#EA1B3D" stroke-miterlimit="1" enable-background="new    " points="
		661.667,566.728 661.667,560.793 668.343,560.793 668.343,557.331 679.965,557.331 679.965,551.644 697.522,551.644 
		697.522,584.531 680.213,584.531 680.213,577.608 674.525,577.608 674.525,585.026 668.591,585.026 668.591,566.728 	"/>
	<polygon opacity="0.5" fill="#D88235" stroke="#EA1B3D" stroke-miterlimit="1" enable-background="new    " points="
		668.431,688.737 662.497,688.737 662.497,682.061 659.035,682.061 659.035,670.439 653.347,670.439 653.347,652.883 
		686.235,652.883 686.235,670.192 679.311,670.192 679.311,675.879 686.73,675.879 686.73,681.814 668.431,681.814 	"/>
	<polygon opacity="0.5" fill="#D88235" stroke="#EA1B3D" stroke-miterlimit="1" enable-background="new    " points="
		680.511,750.638 711.812,750.638 711.812,754.934 714.573,754.934 714.573,748.797 717.335,748.797 717.335,754.627 
		719.79,754.627 719.79,751.252 752.625,751.252 752.625,762.299 680.511,762.299 	"/>
	<polygon opacity="0.5" fill="#D88235" stroke="#EA1B3D" stroke-miterlimit="1" enable-background="new    " points="
		752.625,785.707 721.325,785.707 721.325,781.41 718.563,781.41 718.563,787.548 715.801,787.548 715.801,781.717 713.346,781.717 
		713.346,785.093 680.511,785.093 680.511,774.045 752.625,774.045 	"/>
	<polygon opacity="0.5" fill="#D88235" stroke="#EA1B3D" stroke-miterlimit="1" enable-background="new    " points="
		671.983,828.366 703.284,828.366 703.284,832.662 706.046,832.662 706.046,826.525 708.808,826.525 708.808,832.356 
		711.263,832.356 711.263,828.98 744.098,828.98 744.098,840.027 671.983,840.027 	"/>
	<polygon opacity="0.5" fill="#D88235" stroke="#EA1B3D" stroke-miterlimit="1" enable-background="new    " points="
		744.098,863.435 712.797,863.435 712.797,859.139 710.035,859.139 710.035,865.276 707.273,865.276 707.273,859.446 
		704.818,859.446 704.818,862.821 671.983,862.821 671.983,851.774 744.098,851.774 	"/>
	<polygon opacity="0.5" fill="#D88235" stroke="#EA1B3D" stroke-miterlimit="1" enable-background="new    " points="
		777.476,755.333 808.776,755.333 808.776,759.629 811.538,759.629 811.538,753.491 814.3,753.491 814.3,759.322 816.755,759.322 
		816.755,755.946 849.59,755.946 849.59,766.994 777.476,766.994 	"/>
	<polygon opacity="0.5" fill="#D88235" stroke="#EA1B3D" stroke-miterlimit="1" enable-background="new    " points="
		849.59,790.401 818.289,790.401 818.289,786.105 815.527,786.105 815.527,792.243 812.766,792.243 812.766,786.412 
		810.311,786.412 810.311,789.788 777.476,789.788 777.476,778.74 849.59,778.74 	"/>
	<polygon opacity="0.5" fill="#D88235" stroke="#EA1B3D" stroke-miterlimit="1" enable-background="new    " points="
		768.948,833.061 800.249,833.061 800.249,837.357 803.011,837.357 803.011,831.22 805.772,831.22 805.772,837.05 808.227,837.05 
		808.227,833.675 841.062,833.675 841.062,844.722 768.948,844.722 	"/>
	<polygon opacity="0.5" fill="#D88235" stroke="#EA1B3D" stroke-miterlimit="1" enable-background="new    " points="
		841.062,868.13 809.762,868.13 809.762,863.833 807,863.833 807,869.971 804.238,869.971 804.238,864.14 801.783,864.14 
		801.783,867.516 768.948,867.516 768.948,856.469 841.062,856.469 	"/>
	<polygon opacity="0.5" fill="#D88235" stroke="#EA1B3D" stroke-miterlimit="1" enable-background="new    " points="
		708.041,822.474 708.041,793.994 735.081,793.994 735.081,802.912 730.191,802.912 730.191,806.077 743.424,806.077 
		743.424,811.255 730.191,811.255 730.191,813.268 735.081,813.268 735.081,822.474 	"/>
	<polygon opacity="0.5" fill="#D88235" stroke="#EA1B3D" stroke-miterlimit="1" enable-background="new    " points="
		787.758,821.445 787.758,812.24 792.648,812.24 792.648,810.227 779.416,810.227 779.416,805.049 792.648,805.049 792.648,801.884 
		787.758,801.884 787.758,792.966 814.799,792.966 814.799,821.445 	"/>
	<polygon opacity="0.5" fill="#D88235" stroke="#EA1B3D" stroke-miterlimit="1" enable-background="new    " points="
		1061.011,754.355 1101.616,760.755 1109.561,772.23 1108.016,773.996 1122.581,796.285 1113.313,803.126 1095.217,777.306 
		1089.479,776.644 1089.92,773.113 1062.556,768.037 1063.218,763.403 1059.687,762.741 	"/>
	<polygon opacity="0.5" fill="#D88235" stroke="#EA1B3D" stroke-miterlimit="1" enable-background="new    " points="
		1028.468,769.602 1038.619,761.878 1056.936,786.595 1064.218,787.698 1063.777,791.229 1091.803,794.76 1091.362,799.836 
		1095.555,800.498 1094.231,809.104 1047.667,802.263 1042.15,794.098 1044.357,792.553 	"/>
	<polygon opacity="0.5" fill="#D88235" stroke="#EA1B3D" stroke-miterlimit="1" enable-background="new    " points="
		1062.421,733.03 1080.883,736.613 1080.056,741.297 1087.221,742.399 1085.016,754.524 1077.576,753.146 1077.025,757.279 
		1059.114,753.697 	"/>
	<polygon opacity="0.5" fill="#D88235" stroke="#EA1B3D" stroke-miterlimit="1" enable-background="new    " points="
		1442.089,278.355 1442.089,274.127 1472.18,274.127 1472.18,266.418 1479.392,266.418 1479.392,257.217 1431.147,257.217 
		1418.713,269.154 1421.199,272.138 1400.807,292.281 1409.76,302.478 1434.877,278.355 	"/>
	<polyline opacity="0.5" fill="#D88235" stroke="#EA1B3D" stroke-miterlimit="1" enable-background="new    " points="
		1445.913,243.299 1433.514,230.361 1436.21,227.666 1414.377,203.947 1425.428,193.165 1452.652,221.197 1460.468,221.197 
		1460.468,224.701 1493.621,224.701 1493.621,232.787 1498.743,232.787 1498.743,243.299 1446.183,243.299 	"/>
	<polygon opacity="0.5" fill="#D88235" stroke="#EA1B3D" stroke-miterlimit="1" enable-background="new    " points="
		1404.241,252.698 1409.248,247.691 1406.008,243.568 1422.796,226.781 1440.467,245.63 1423.385,262.417 1420.145,258.588 
		1415.433,263.889 	"/>
	<polygon opacity="0.5" fill="#D88235" stroke="#EA1B3D" stroke-miterlimit="1" enable-background="new    " points="
		358.703,667.016 358.317,666.703 355.418,663.804 354.397,663.26 353.404,662.951 352.518,662.243 352.518,661.35 351.626,660.681 
		352.741,659.566 351.849,658.674 352.518,657.782 348.975,654.258 342.928,660.681 342.036,660.012 338.913,663.358 
		339.582,664.027 334.452,669.38 333.783,668.711 331.553,670.941 327.761,666.703 326.869,667.818 324.416,665.365 325.308,664.25 
		321.516,660.235 323.747,658.005 322.855,657.336 327.984,651.983 328.653,652.652 331.999,649.53 331.33,648.637 336.894,643.338 
		331.33,637.263 331.999,636.593 328.653,633.248 327.984,633.917 322.855,628.787 323.747,627.895 321.516,625.665 325.308,621.65 
		324.416,620.758 326.869,618.305 327.761,618.974 331.553,615.182 333.783,617.412 334.452,616.743 339.582,621.873 
		338.913,622.765 342.036,626.111 342.928,625.219 348.281,631.018 362.109,616.743 362.778,617.412 365.008,615.182 368.8,619.197 
		369.915,618.305 372.145,620.758 371.253,621.65 375.045,625.442 369.469,631.241 370.584,632.356 358.859,643.727 
		362.778,647.299 363.447,646.63 364.339,647.299 365.454,646.63 366.347,647.299 367.016,647.299 367.685,648.136 367.685,649.084 
		368.577,649.753 368.131,650.199 370.138,652.429 369.692,653.098 373.707,657.336 373.038,658.228 375.045,660.235 
		371.253,664.25 372.145,665.365 369.246,668.265 365.057,673.405 359.609,667.859 	"/>
	<polygon opacity="0.5" fill="#D88235" stroke="#EA1B3D" stroke-miterlimit="1" enable-background="new    " points="
		284.392,706.001 284.006,705.689 281.107,702.789 280.086,702.245 279.093,701.937 278.207,701.228 278.207,700.336 
		277.315,699.667 278.43,698.552 277.538,697.659 278.207,696.767 274.664,693.243 268.617,699.667 267.725,698.998 
		264.602,702.343 265.271,703.012 260.141,708.365 259.472,707.696 257.242,709.926 253.45,705.689 252.558,706.804 
		250.105,704.351 250.997,703.235 247.205,699.221 249.436,696.99 248.543,696.321 253.673,690.968 254.342,691.638 
		257.688,688.515 257.019,687.623 262.583,682.323 257.019,676.248 257.688,675.579 254.342,672.233 253.673,672.902 
		248.543,667.773 249.436,666.881 247.205,664.65 250.997,660.636 250.105,659.743 252.558,657.29 253.45,657.959 257.242,654.167 
		259.472,656.398 260.141,655.729 265.271,660.859 264.602,661.751 267.725,665.096 268.617,664.204 273.97,670.003 
		287.798,655.729 288.467,656.398 290.697,654.167 294.489,658.182 295.604,657.29 297.834,659.743 296.942,660.636 
		300.734,664.427 295.158,670.226 296.273,671.341 284.548,682.713 288.467,686.285 289.136,685.616 290.028,686.285 
		291.143,685.616 292.035,686.285 292.705,686.285 293.374,687.121 293.374,688.07 294.266,688.738 293.82,689.184 295.827,691.414 
		295.381,692.084 299.396,696.321 298.727,697.213 300.734,699.221 296.942,703.235 297.834,704.351 294.935,707.25 
		290.746,712.391 285.298,706.845 	"/>
	<polygon opacity="0.5" fill="#D88235" stroke="#EA1B3D" stroke-miterlimit="1" enable-background="new    " points="
		172.962,646.027 173.854,645.135 179.207,650.934 193.035,636.659 193.704,637.328 195.934,635.098 199.726,639.113 
		200.841,638.221 203.071,640.674 202.179,641.566 205.971,645.358 200.395,651.157 201.51,652.272 189.785,663.643 
		193.704,667.215 194.373,666.546 195.265,667.215 196.38,666.546 197.272,667.215 197.942,667.215 198.611,668.052 198.611,669 
		199.503,669.669 199.057,670.115 201.064,672.345 200.618,673.014 204.633,677.252 203.964,678.144 205.971,680.151 
		202.179,684.166 203.071,685.281 200.172,688.181 195.983,693.321 190.535,687.776 189.629,686.932 189.243,686.619 
		186.344,683.72 185.322,683.176 184.33,682.867 183.444,682.159 183.444,681.267 182.552,680.597 183.667,679.482 182.775,678.59 
		183.444,677.698 179.901,674.174 173.854,680.597 172.962,679.928 169.839,683.274 170.508,683.943 165.378,689.296 
		164.709,688.627 162.479,690.857 158.687,686.619 157.795,687.735 155.342,685.281 156.234,684.166 152.442,680.151 
		154.673,677.921 153.78,677.252 158.91,671.899 159.579,672.568 162.925,669.446 162.256,668.553 167.82,663.254 162.256,657.179 
		162.925,656.51 	"/>
	<polygon opacity="0.5" fill="#D88235" stroke="#EA1B3D" stroke-miterlimit="1" enable-background="new    " points="136.1,620.507 
		135.715,620.195 132.815,617.295 131.794,616.751 130.802,616.443 129.916,615.734 129.916,614.842 129.023,614.173 
		130.139,613.058 129.246,612.165 129.916,611.273 126.373,607.749 120.325,614.173 119.433,613.504 116.31,616.849 116.98,617.518 
		111.85,622.871 111.181,622.202 108.95,624.432 105.159,620.195 104.266,621.31 101.813,618.857 102.705,617.741 98.914,613.727 
		101.144,611.496 100.252,610.827 105.382,605.474 106.051,606.143 109.396,603.021 108.727,602.129 114.292,596.829 
		108.727,590.754 109.396,590.085 106.051,586.739 105.382,587.408 100.252,582.279 101.144,581.387 98.914,579.156 
		102.705,575.142 101.813,574.249 104.266,571.796 105.159,572.465 108.95,568.673 111.181,570.904 111.85,570.235 116.98,575.365 
		116.31,576.257 119.433,579.602 120.325,578.71 125.678,584.509 139.506,570.235 140.175,570.904 142.406,568.673 146.197,572.688 
		147.312,571.796 149.543,574.249 148.651,575.142 152.442,578.933 146.866,584.732 147.982,585.847 136.256,597.219 
		140.175,600.791 140.844,600.122 141.737,600.791 142.852,600.122 143.744,600.791 144.413,600.791 145.082,601.627 
		145.082,602.576 145.974,603.244 145.528,603.69 147.535,605.92 147.089,606.59 151.104,610.827 150.435,611.719 152.442,613.727 
		148.651,617.741 149.543,618.857 146.643,621.756 142.455,626.896 137.007,621.351 	"/>
	<polygon opacity="0.5" fill="#D88235" stroke="#EA1B3D" stroke-miterlimit="1" enable-background="new    " points="
		85.392,683.747 85.006,683.434 82.107,680.535 81.086,679.991 80.093,679.682 79.207,678.974 79.207,678.081 78.315,677.412 
		79.43,676.297 78.538,675.405 79.207,674.513 75.664,670.988 69.617,677.412 68.725,676.743 65.602,680.089 66.271,680.758 
		61.141,686.111 60.472,685.442 58.242,687.672 54.45,683.434 53.558,684.549 51.105,682.096 51.997,680.981 48.205,676.966 
		50.436,674.736 49.544,674.067 54.673,668.714 55.343,669.383 58.688,666.261 58.019,665.368 63.583,660.069 58.019,653.994 
		58.688,653.324 55.343,649.979 54.673,650.648 49.544,645.518 50.436,644.626 48.205,642.396 51.997,638.381 51.105,637.489 
		53.558,635.036 54.45,635.705 58.242,631.913 60.472,634.143 61.141,633.474 66.271,638.604 65.602,639.496 68.725,642.842 
		69.617,641.95 74.97,647.749 88.798,633.474 89.467,634.143 91.697,631.913 95.489,635.928 96.604,635.036 98.835,637.489 
		97.942,638.381 101.734,642.173 96.158,647.972 97.273,649.087 85.548,660.458 89.467,664.03 90.136,663.361 91.028,664.03 
		92.143,663.361 93.036,664.03 93.705,664.03 94.374,664.867 94.374,665.815 95.266,666.484 94.82,666.93 96.827,669.16 
		96.381,669.829 100.396,674.067 99.727,674.959 101.734,676.966 97.942,680.981 98.835,682.096 95.935,684.996 91.746,690.136 
		86.298,684.59 	"/>
	<polygon opacity="0.5" fill="#D88235" stroke="#EA1B3D" stroke-miterlimit="1" enable-background="new    " points="
		81.543,561.851 81.157,561.538 78.258,558.639 77.236,558.095 76.244,557.786 75.358,557.078 75.358,556.185 74.466,555.516 
		75.581,554.401 74.689,553.509 75.358,552.617 71.815,549.092 65.768,555.516 64.875,554.847 61.753,558.193 62.422,558.862 
		57.292,564.215 56.623,563.546 54.393,565.776 50.601,561.538 49.709,562.653 47.256,560.2 48.148,559.085 44.356,555.07 
		46.586,552.84 45.694,552.171 50.824,546.818 51.493,547.487 54.839,544.365 54.17,543.472 59.734,538.173 54.17,532.098 
		54.839,531.428 51.493,528.083 50.824,528.752 45.694,523.622 46.586,522.73 44.356,520.5 48.148,516.485 47.256,515.593 
		49.709,513.14 50.601,513.809 54.393,510.017 56.623,512.247 57.292,511.578 62.422,516.708 61.753,517.6 64.875,520.946 
		65.768,520.054 71.12,525.853 84.949,511.578 85.618,512.247 87.848,510.017 91.64,514.032 92.755,513.14 94.985,515.593 
		94.093,516.485 97.885,520.277 92.309,526.076 93.424,527.191 81.699,538.562 85.618,542.134 86.287,541.465 87.179,542.134 
		88.294,541.465 89.186,542.134 89.855,542.134 90.525,542.971 90.525,543.919 91.417,544.588 90.971,545.034 92.978,547.264 
		92.532,547.933 96.547,552.171 95.877,553.063 97.885,555.07 94.093,559.085 94.985,560.2 92.086,563.1 87.897,568.24 
		82.449,562.694 	"/>
	<polygon opacity="0.5" fill="#D88235" stroke="#EA1B3D" stroke-miterlimit="1" enable-background="new    " points="
		279.448,626.531 286.515,626.767 286.515,630.065 287.693,630.065 290.285,632.656 294.289,628.416 296.881,631.007 
		298.294,629.594 300.179,631.714 303.006,628.651 308.189,634.305 305.362,637.132 309.131,640.901 295.703,654.8 284.631,643.257 
		281.333,643.257 270.26,654.8 256.832,640.901 260.602,637.132 257.775,634.07 262.957,628.651 265.784,631.714 267.669,629.594 
		269.082,631.007 271.674,628.416 275.679,632.656 278.034,630.065 279.448,630.065 	"/>
	<polygon opacity="0.5" fill="#D88235" stroke="#EA1B3D" stroke-miterlimit="1" enable-background="new    " points="
		53.827,606.115 54.062,599.048 57.36,599.048 57.36,597.87 59.952,595.279 55.711,591.274 58.303,588.682 56.889,587.269 
		59.01,585.384 55.947,582.557 61.601,577.375 64.428,580.201 68.197,576.432 82.096,589.86 70.553,600.932 70.553,604.23 
		82.096,615.303 68.197,628.731 64.428,624.961 61.365,627.788 55.947,622.606 59.01,619.779 56.889,617.894 58.303,616.481 
		55.711,613.889 59.952,609.884 57.36,607.529 57.36,606.115 	"/>
	
		<circle opacity="0.5" fill="#D88235" stroke="#EA1B3D" stroke-miterlimit="1" enable-background="new    " cx="1143.12" cy="489.512" r="44.775"/>
</g>
<g id="Desa_Text_1_">
	<g id="Desa_Text">
		<g>
			
				<text transform="matrix(1 0 0 1 31.4154 611.4663)" fill="none" stroke="#494407" stroke-width="2" font-family="'Tahoma-Bold'" font-size="12"> Restu</text>
			
				<text transform="matrix(1 0 0 1 686.4153 818.4666)" fill="none" stroke="#494407" stroke-width="2" font-family="'Tahoma-Bold'" font-size="12"> Aman Damai</text>
			
				<text transform="matrix(1 0 0 1 620.3776 625.1053)" fill="none" stroke="#494407" stroke-width="2" font-family="'Tahoma-Bold'" font-size="12">Indah Kembara</text>
			
				<text transform="matrix(1 0 0 1 280.4154 680.8003)" fill="none" stroke="#494407" stroke-width="2" font-family="'Tahoma-Bold'" font-size="12">Tekun</text>
			
				<text transform="matrix(1 0 0 1 109.9154 616.2548)" fill="none" stroke="#494407" stroke-width="2" font-family="'Tahoma-Bold'" font-size="12">Saujana</text>
			<rect x="1015.442" y="764.242" fill="none" width="137.993" height="62.997"/>
			
				<text transform="matrix(1 0 0 1 1015.4417 774.605)" fill="none" stroke="#494407" stroke-width="2" font-family="'Tahoma-Bold'" font-size="12">Fajar Harapan</text>
			<rect x="1089.086" y="463.467" fill="none" width="137.993" height="62.997"/>
			
				<text transform="matrix(1 0 0 1 1089.0857 473.8293)" fill="none" stroke="#494407" stroke-width="2" font-family="'Tahoma-Bold'" font-size="12">Bakti Permai</text>
			<rect x="1352.158" y="233.761" fill="none" width="161.423" height="36.847"/>
			
				<text transform="matrix(1 0 0 1 1352.1578 244.1236)" fill="none" stroke="#494407" stroke-width="2" font-family="'Tahoma-Bold'" font-size="12">Cahaya Gemilang</text>
		</g>
		<g>
			<text transform="matrix(1 0 0 1 31.4154 611.4663)" fill="#FFFFFF" font-family="'Tahoma-Bold'" font-size="12"> Restu</text>
			<text transform="matrix(1 0 0 1 686.4153 818.4666)" fill="#FFFFFF" font-family="'Tahoma-Bold'" font-size="12"> Aman Damai</text>
			<text transform="matrix(1 0 0 1 620.3776 625.1053)" fill="#FFFFFF" font-family="'Tahoma-Bold'" font-size="12">Indah Kembara</text>
			<text transform="matrix(1 0 0 1 280.4154 680.8003)" fill="#FFFFFF" font-family="'Tahoma-Bold'" font-size="12">Tekun</text>
			<text transform="matrix(1 0 0 1 109.9154 616.2548)" fill="#FFFFFF" font-family="'Tahoma-Bold'" font-size="12">Saujana</text>
			<rect x="1015.442" y="764.242" fill="none" width="137.993" height="62.997"/>
			<text transform="matrix(1 0 0 1 1015.4417 774.605)" fill="#FFFFFF" font-family="'Tahoma-Bold'" font-size="12">Fajar Harapan</text>
			<rect x="1089.086" y="463.467" fill="none" width="137.993" height="62.997"/>
			<text transform="matrix(1 0 0 1 1089.0857 473.8293)" fill="#FFFFFF" font-family="'Tahoma-Bold'" font-size="12">Bakti Permai</text>
			<rect x="1352.158" y="233.761" fill="none" width="161.423" height="36.847"/>
			<text transform="matrix(1 0 0 1 1352.1578 244.1236)" fill="#FFFFFF" font-family="'Tahoma-Bold'" font-size="12">Cahaya Gemilang</text>
		</g>
	</g>
</g>
</svg>
