<?xml version="1.0" encoding="utf-8"?>
<!-- Generator: Adobe Illustrator 17.0.0, SVG Export Plug-In . SVG Version: 6.00 Build 0)  -->
<!DOCTYPE svg PUBLIC "-//W3C//DTD SVG 1.1//EN" "http://www.w3.org/Graphics/SVG/1.1/DTD/svg11.dtd">
<svg version="1.1" xmlns="http://www.w3.org/2000/svg" xmlns:xlink="http://www.w3.org/1999/xlink" x="0px" y="0px" width="2124px"
	 height="1083px" viewBox="0 0 2124 1083" enable-background="new 0 0 2124 1083" xml:space="preserve">
<g id="Hall">
	<polygon opacity="0.5" fill="#FF0000" stroke="#090970" stroke-linejoin="round" stroke-miterlimit="10" points="1490.901,406.607 
		1506.584,403.692 1542.967,404.637 1542.982,453.831 1497.647,453.831 1490.3,446.797 1490.3,432.341 1494.858,429.932 
		1495.104,420.825 1490.3,418.815 	"/>
	<path opacity="0.5" fill="#FF0000" stroke="#090970" stroke-linejoin="round" stroke-miterlimit="10" d="M1193.809,596.646
		l6.57,9.934c0,0,14.483-7.313,19.74-8.34c6.544-1.279,25.579-1.093,31.846,1.166c4.736,1.707,11.868,6.844,11.868,6.844l7.75-9.146
		c0,0-9.442-5.336-12.583-6.604c-2.413-0.974-10.096-2.535-10.096-2.535l-0.238-6.298l8.327,0.031l-0.077-11.448l-46.833-0.25
		l-0.24,11.989l11.368-0.583l-0.073,6.559c0,0-11.119,0.116-14.639,1.16C1202.801,590.222,1193.809,596.646,1193.809,596.646z"/>
	<polygon opacity="0.5" fill="#FF0000" stroke="#090970" stroke-miterlimit="10" points="1258.25,563.429 1277.667,589.417 
		1311.583,561.25 1334.536,551.418 1327.5,533.654 1308.417,540.833 1296.795,531.707 	"/>
	<polygon opacity="0.5" fill="#FF0000" stroke="#090970" stroke-miterlimit="10" points="1357.75,563.75 1384.75,548.5 
		1401.5,548.5 1401.5,587 1362.5,588.493 	"/>
	<polygon opacity="0.5" fill="#FF0000" stroke="#090970" stroke-miterlimit="10" points="1540.869,690.645 1526.542,702.787 
		1543.885,721.08 1543.885,721.08 1555.268,709.372 1555.268,709.372 1560.826,701.025 	"/>
	
		<circle opacity="0.5" fill="#FF0000" stroke="#090970" stroke-linejoin="round" stroke-miterlimit="10" cx="1687.377" cy="684.326" r="14.364"/>
	<polygon opacity="0.5" fill="#FF0000" stroke="#090970" stroke-linejoin="round" stroke-miterlimit="10" points="1511.578,468.942 
		1531.054,458.361 1540.869,474.254 1522.926,485.352 	"/>
	
		<circle opacity="0.5" fill="#FF0000" stroke="#090970" stroke-linejoin="round" stroke-miterlimit="10" cx="902.79" cy="617.182" r="17.485"/>
	
		<rect x="1186.947" y="789.071" opacity="0.5" fill="#FF0000" stroke="#090970" stroke-linejoin="round" stroke-miterlimit="10" width="23.801" height="12.158"/>
	<polygon opacity="0.5" fill="#FF0000" stroke="#090970" stroke-linejoin="round" stroke-miterlimit="10" points="1648.953,746.176 
		1648.129,767.515 1651.754,767.515 1651.754,773.775 1657.849,773.775 1668.392,769.821 1677.123,758.125 1670.673,742.805 	"/>
</g>
<g id="Hall_Text">
	<g>
		<rect x="1507.879" y="401.051" fill="none" width="49.444" height="54.354"/>
		<text transform="matrix(1 0 0 1 1507.8784 411.4132)"><tspan x="0" y="0" fill="none" stroke="#A51111" stroke-width="2" font-family="'Tahoma-Bold'" font-size="12">SK1 </tspan><tspan x="0" y="14.4" fill="none" stroke="#A51111" stroke-width="2" font-family="'Tahoma-Bold'" font-size="12">SK2 </tspan><tspan x="0" y="28.8" fill="none" stroke="#A51111" stroke-width="2" font-family="'Tahoma-Bold'" font-size="12">SK3 </tspan><tspan x="0" y="43.2" fill="none" stroke="#A51111" stroke-width="2" font-family="'Tahoma-Bold'" font-size="12">SK4</tspan></text>
		<rect x="1638.081" y="756.162" fill="none" width="57.736" height="26.223"/>
		
			<text transform="matrix(1 0 0 1 1638.0815 766.5243)" fill="none" stroke="#A51111" stroke-width="2" font-family="'Tahoma-Bold'" font-size="12">DK E48</text>
		<rect x="1198.945" y="588.883" fill="none" width="81.131" height="26.246"/>
		
			<text transform="matrix(1 0 0 1 1198.9445 599.2452)" fill="none" stroke="#A51111" stroke-width="2" font-family="'Tahoma-Bold'" font-size="12">DKS-DKW</text>
		<rect x="1267.62" y="554.76" fill="none" width="81.131" height="26.246"/>
		
			<text transform="matrix(1 0 0 1 1267.6202 565.1223)" fill="none" stroke="#A51111" stroke-width="2" font-family="'Tahoma-Bold'" font-size="12">DKG-DKR</text>
		<rect x="1303.631" y="560.129" fill="none" width="169.948" height="45.982"/>
		<text transform="matrix(1 0 0 1 1372.6448 570.4908)"><tspan x="0" y="0" fill="none" stroke="#A51111" stroke-width="2" font-family="'Tahoma-Bold'" font-size="12">DTSP</tspan><tspan x="-26.572" y="7.2" fill="none" stroke="#A51111" stroke-width="2" font-family="'Tahoma-Bold'" font-size="6">(Dewan Tuanku Syed Putra)</tspan></text>
		<rect x="1495.233" y="460.376" fill="none" width="57.185" height="35.082"/>
		<text transform="matrix(1 0 0 1 1496.4012 470.7386)"><tspan x="0" y="0" fill="none" stroke="#A51111" stroke-width="2" font-family="'Tahoma-Bold'" font-size="12">DKA DKB</tspan><tspan x="14.697" y="14.4" fill="none" stroke="#A51111" stroke-width="2" font-family="'Tahoma-Bold'" font-size="12">DKC</tspan></text>
		<rect x="1534.084" y="702.84" fill="none" width="25.925" height="14.021"/>
		
			<text transform="matrix(1 0 0 1 1534.084 713.2029)" fill="none" stroke="#A51111" stroke-width="2" font-family="'Tahoma-Bold'" font-size="12">DKZ</text>
		<rect x="1662.708" y="674.365" fill="none" width="58.125" height="26.246"/>
		<text transform="matrix(1 0 0 1 1664.3344 684.7275)"><tspan x="0" y="0" fill="none" stroke="#A51111" stroke-width="2" font-family="'Tahoma-Bold'" font-size="12">DKD DKE</tspan><tspan x="15.229" y="14.4" fill="none" stroke="#A51111" stroke-width="2" font-family="'Tahoma-Bold'" font-size="12">DKF</tspan></text>
		<rect x="1169.126" y="789.89" fill="none" width="81.131" height="26.246"/>
		
			<text transform="matrix(1 0 0 1 1169.1262 800.2516)" fill="none" stroke="#A51111" stroke-width="2" font-family="'Tahoma-Bold'" font-size="12">DKG-31</text>
		<rect x="895.639" y="606.871" fill="none" width="41.205" height="26.246"/>
		<text transform="matrix(1 0 0 1 895.6385 617.2338)"><tspan x="0" y="0" fill="none" stroke="#A51111" stroke-width="2" font-family="'Tahoma-Bold'" font-size="12">DKX</tspan><tspan x="0" y="14.4" fill="none" stroke="#A51111" stroke-width="2" font-family="'Tahoma-Bold'" font-size="12">DKY</tspan></text>
	</g>
	<g>
		<rect x="1507.879" y="401.051" fill="none" width="49.444" height="54.354"/>
		<text transform="matrix(1 0 0 1 1507.8784 411.4132)"><tspan x="0" y="0" fill="#FFFFFF" font-family="'Tahoma-Bold'" font-size="12">SK1 </tspan><tspan x="0" y="14.4" fill="#FFFFFF" font-family="'Tahoma-Bold'" font-size="12">SK2 </tspan><tspan x="0" y="28.8" fill="#FFFFFF" font-family="'Tahoma-Bold'" font-size="12">SK3 </tspan><tspan x="0" y="43.2" fill="#FFFFFF" font-family="'Tahoma-Bold'" font-size="12">SK4</tspan></text>
		<rect x="1638.081" y="756.162" fill="none" width="57.736" height="26.223"/>
		<text transform="matrix(1 0 0 1 1638.0815 766.5243)" fill="#FFFFFF" font-family="'Tahoma-Bold'" font-size="12">DK E48</text>
		<rect x="1198.945" y="588.883" fill="none" width="81.131" height="26.246"/>
		<text transform="matrix(1 0 0 1 1198.9445 599.2452)" fill="#FFFFFF" font-family="'Tahoma-Bold'" font-size="12">DKS-DKW</text>
		<rect x="1267.62" y="554.76" fill="none" width="81.131" height="26.246"/>
		<text transform="matrix(1 0 0 1 1267.6202 565.1223)" fill="#FFFFFF" font-family="'Tahoma-Bold'" font-size="12">DKG-DKR</text>
		<rect x="1303.631" y="560.129" fill="none" width="169.948" height="45.982"/>
		<text transform="matrix(1 0 0 1 1372.6448 570.4908)"><tspan x="0" y="0" fill="#FFFFFF" font-family="'Tahoma-Bold'" font-size="12">DTSP</tspan><tspan x="-26.572" y="7.2" fill="#FFFFFF" font-family="'Tahoma-Bold'" font-size="6">(Dewan Tuanku Syed Putra)</tspan></text>
		<rect x="1495.233" y="460.376" fill="none" width="57.185" height="35.082"/>
		<text transform="matrix(1 0 0 1 1496.4012 470.7386)"><tspan x="0" y="0" fill="#FFFFFF" font-family="'Tahoma-Bold'" font-size="12">DKA DKB</tspan><tspan x="14.697" y="14.4" fill="#FFFFFF" font-family="'Tahoma-Bold'" font-size="12">DKC</tspan></text>
		<rect x="1534.084" y="702.84" fill="none" width="25.925" height="14.021"/>
		<text transform="matrix(1 0 0 1 1534.084 713.2029)" fill="#FFFFFF" font-family="'Tahoma-Bold'" font-size="12">DKZ</text>
		<rect x="1662.708" y="674.365" fill="none" width="58.125" height="26.246"/>
		<text transform="matrix(1 0 0 1 1664.3344 684.7275)"><tspan x="0" y="0" fill="#FFFFFF" font-family="'Tahoma-Bold'" font-size="12">DKD DKE</tspan><tspan x="15.229" y="14.4" fill="#FFFFFF" font-family="'Tahoma-Bold'" font-size="12">DKF</tspan></text>
		<rect x="1169.126" y="789.89" fill="none" width="81.131" height="26.246"/>
		<text transform="matrix(1 0 0 1 1169.1262 800.2516)" fill="#FFFFFF" font-family="'Tahoma-Bold'" font-size="12">DKG-31</text>
		<rect x="895.639" y="606.871" fill="none" width="41.205" height="26.246"/>
		<text transform="matrix(1 0 0 1 895.6385 617.2338)"><tspan x="0" y="0" fill="#FFFFFF" font-family="'Tahoma-Bold'" font-size="12">DKX</tspan><tspan x="0" y="14.4" fill="#FFFFFF" font-family="'Tahoma-Bold'" font-size="12">DKY</tspan></text>
	</g>
</g>
</svg>
