<?xml version="1.0" encoding="utf-8"?>
<!-- Generator: Adobe Illustrator 17.0.0, SVG Export Plug-In . SVG Version: 6.00 Build 0)  -->
<!DOCTYPE svg PUBLIC "-//W3C//DTD SVG 1.1//EN" "http://www.w3.org/Graphics/SVG/1.1/DTD/svg11.dtd">
<svg version="1.1" id="Layer_1" xmlns="http://www.w3.org/2000/svg" xmlns:xlink="http://www.w3.org/1999/xlink" x="0px" y="0px"
	 width="20px" height="20px" viewBox="0 0 98.85 98.727" enable-background="new 0 0 98.85 98.727" xml:space="preserve">
<g>
	<g>
		<g enable-background="new    ">
			<g>
				<path fill="#287DA3" d="M49.365,15c18.96-0.009,34.365,15.394,34.356,34.365C83.73,68.326,68.326,83.73,49.365,83.721
					C30.394,83.73,14.991,68.325,15,49.365C14.991,30.395,30.395,14.991,49.365,15z"/>
			</g>
			<g enable-background="new    ">
				<defs>
					<path id="SVGID_1_" enable-background="new    " d="M49.623,15c0-8.286,0-15,0-15c27,0,49.227,22.095,49.227,49.365
						c0,27.261-22.16,49.356-49.421,49.356c-27.27,0-49.268-22.095-49.268-49.356C0.161,22.095,21.623,0,49.623,0
						C49.623,0,49.623,6.714,49.623,15c-19-0.009-34.503,15.395-34.494,34.365c-0.009,18.96,15.33,34.365,34.301,34.356
						C68.39,83.73,83.892,68.326,83.882,49.365C83.891,30.394,68.623,14.991,49.623,15z"/>
				</defs>
				<clipPath id="SVGID_2_">
					<use xlink:href="#SVGID_1_"  overflow="visible"/>
				</clipPath>
				<g clip-path="url(#SVGID_2_)" enable-background="new    ">
					<path fill="#9ED2E9" d="M49.623,15.361c0,0,0-15.361,0-15.361c27,0,49.227,22.095,49.227,49.365
						c0,27.261-22.16,49.356-49.421,49.356c-27.27,0-49.268-22.095-49.268-49.356C0.161,22.095,21.623,0,49.623,0c0,0,0,6.714,0,15
						c-19-0.009-34.503,15.395-34.494,34.365c-0.009,18.96,15.33,34.365,34.301,34.356C68.39,83.73,83.892,68.326,83.882,49.365
						C83.891,30.394,68.623,14.991,49.623,15"/>
					<path fill="#9ED2E9" d="M49.494,5.394c-0.68,0.139-1.523,0.341-2.203,0.48c0.68,0.137,1.332,0.337,2.332,0.474
						c0,2.444,0,5.429,0,8.651c-19-0.009-34.503,15.395-34.494,34.365c-0.009,18.96,15.33,34.365,34.301,34.356
						C68.39,83.73,83.892,68.326,83.882,49.365C83.891,30.394,68.623,14.991,49.623,15c0-3.222,0-6.207,0-8.651
						c0-0.137,1.581-0.321,2.258-0.458l-2.258-0.463c0-3.316,0-5.428,0-5.428c27,0,49.227,22.095,49.227,49.365
						c0,27.261-22.16,49.356-49.421,49.356c-27.27,0-49.268-22.095-49.268-49.356C0.161,22.095,21.623,0,49.623,0
						c0,0,0,5.361,0,5.361"/>
					<path fill="#9BD1E8" d="M49.494,5.136c-3.536,0.334-3.471,0.222-6.12,1.244c1.192,0.304,1.249,0.192,6.249,0.539
						c0,2.332,0,5.105,0,8.08c-19-0.009-34.503,15.395-34.494,34.365c-0.009,18.96,15.33,34.365,34.301,34.356
						C68.39,83.73,83.892,68.326,83.882,49.365C83.891,30.394,68.623,14.991,49.623,15c0-2.975,0-5.748,0-8.08
						c1-0.038,2.233-0.089,3.246-0.128c0.853,0.008,2.031-0.322,2.86-0.526c-2.645-1.021-3.106-1.021-6.106-1.355
						c0-3.018,0-4.912,0-4.912c27,0,49.227,22.095,49.227,49.365c0,27.261-22.16,49.356-49.421,49.356
						c-27.27,0-49.268-22.095-49.268-49.356C0.161,22.095,21.623,0,49.623,0c0,0,0,5.361,0,5.361"/>
					<path fill="#98D0E8" d="M49.494,4.49c-4.66,0.456-6.723,0.728-9.01,2.225c2.95,1.426,6.139,0.419,9.139,0.614
						c0,2.244,0,4.868,0,7.671c-19-0.009-34.503,15.395-34.494,34.365c-0.009,18.96,15.33,34.365,34.301,34.356
						C68.39,83.73,83.892,68.326,83.882,49.365C83.891,30.394,68.623,14.991,49.623,15c0-2.803,0-5.427,0-7.671
						c1-0.035,2.221-0.082,3.228-0.117c4.68,0.067,4.745,0.067,5.772-0.434c-1.199-0.77-3-1.728-9-2.16c0-2.846,0-4.618,0-4.618
						c27,0,49.227,22.095,49.227,49.365c0,27.261-22.16,49.356-49.421,49.356c-27.27,0-49.268-22.095-49.268-49.356
						C0.161,22.095,21.623,0,49.623,0c0,0,0,4.361,0,4.361"/>
					<path fill="#95CEE7" d="M49.494,4.356c-7.373,0.35-9.909,2.138-11.02,2.902c3.631,1.998,7.149,0.241,11.149,0.376
						c0,2.176,0,4.689,0,7.366c-19-0.009-34.503,15.395-34.494,34.365c-0.009,18.96,15.33,34.365,34.301,34.356
						C68.39,83.73,83.892,68.326,83.882,49.365C83.891,30.394,68.623,14.991,49.623,15c0-2.677,0-5.19,0-7.366
						c1-0.006,2.246-0.014,3.264-0.019c6.523,0.283,6.587,0.283,7.744-0.361c-0.933-0.632-4.009-2.555-11.009-2.902
						c0-2.69,0-4.351,0-4.351c27,0,49.227,22.095,49.227,49.365c0,27.261-22.16,49.356-49.421,49.356
						c-27.27,0-49.268-22.095-49.268-49.356C0.161,22.095,21.623,0,49.623,0c0,0,0,4.361,0,4.361"/>
					<path fill="#92CDE6" d="M49.494,4.261C38.374,5.073,36.808,7.513,36.8,7.537c-0.078,0.236,0.007,0.621,0.207,0.769
						c0.709,0.521,2.165-0.035,3.045-0.044c3.156-0.034,6.571-0.458,9.571-0.354c0,2.112,0,4.527,0,7.092
						c-19-0.009-34.503,15.395-34.494,34.365c-0.009,18.96,15.33,34.365,34.301,34.356C68.39,83.73,83.892,68.326,83.882,49.365
						C83.891,30.394,68.623,14.991,49.623,15c0-2.566,0-4.981,0-7.093c1-0.002,2.236-0.004,3.249-0.006
						c9.58,0.453,9.645,0.453,9.637-0.11c0-0.031-2.886-3.199-12.886-3.63c0-2.578,0-4.162,0-4.162
						c27,0,49.227,22.095,49.227,49.365c0,27.261-22.16,49.356-49.421,49.356c-27.27,0-49.268-22.095-49.268-49.356
						C0.161,22.095,21.623,0,49.623,0c0,0,0,4.361,0,4.361"/>
					<path fill="#8FCBE6" d="M49.494,4.168l-0.065-0.096C35.916,5.013,34.887,8.324,34.886,8.357
						c-0.012,0.258,0.477,0.492,0.715,0.591c4.755,1.976,9.022-0.898,14.022-0.764c0,2.045,0,4.361,0,6.816
						c-19-0.009-34.503,15.395-34.494,34.365c-0.009,18.96,15.33,34.365,34.301,34.356C68.39,83.73,83.892,68.326,83.882,49.365
						C83.891,30.394,68.623,14.991,49.623,15c0-2.454,0-4.771,0-6.816c1,0.002,2.224,0.005,3.232,0.008
						c3.519,0.181,6.841,2.25,10.478,0.732c0.238-0.099,0.702-0.359,0.696-0.617C64.022,7.94,60.623,4.4,49.623,3.976
						c0-2.468,0-3.976,0-3.976c27,0,49.227,22.095,49.227,49.365c0,27.261-22.16,49.356-49.421,49.356
						c-27.27,0-49.268-22.095-49.268-49.356C0.161,22.095,21.623,0,49.623,0c0,0,0,4.361,0,4.361"/>
					<path fill="#8CCAE5" d="M49.494,3.577C35.366,4.515,33.395,8.732,33.393,8.772c-0.014,0.244,0.25,0.59,0.471,0.694
						c0.054,0.025,0.167,0.052,7.569-0.632c3.464-0.32,5.19-0.454,8.19-0.397c0,1.982,0,4.209,0,6.563
						c-19-0.009-34.503,15.395-34.494,34.365c-0.009,18.96,15.33,34.365,34.301,34.356C68.39,83.73,83.892,68.326,83.882,49.365
						C83.891,30.394,68.623,14.991,49.623,15c0-2.354,0-4.581,0-6.563c1,0.012,2.215,0.027,3.22,0.039
						C65.505,9.243,65.57,9.243,65.588,8.88c0.018-0.351-3.965-4.671-15.965-5.087c0-2.36,0-3.793,0-3.793
						c27,0,49.227,22.095,49.227,49.365c0,27.261-22.16,49.356-49.421,49.356c-27.27,0-49.268-22.095-49.268-49.356
						C0.161,22.095,21.623,0,49.623,0c0,0,0,3.361,0,3.361"/>
					<path fill="#88C8E4" d="M49.494,3.494L49.429,3.56C34.746,4.456,31.985,9.374,31.981,9.422
						c-0.019,0.235,0.182,0.573,0.385,0.692c0.431,0.254,2.285,0.003,5.155-0.426c7.353-1.099,9.101-1.05,12.101-1.011
						c0,1.921,0,4.064,0,6.323c-19-0.009-34.503,15.395-34.494,34.365c-0.009,18.96,15.33,34.365,34.301,34.356
						C68.39,83.73,83.892,68.326,83.882,49.365C83.891,30.394,68.623,14.991,49.623,15c0-2.259,0-4.402,0-6.323
						c1,0.014,2.203,0.033,3.202,0.047c3.223,0.204,4.671,0.39,8.563,0.97c2.881,0.429,4.587,0.689,5.017,0.436
						c0.203-0.12,0.533-0.441,0.514-0.675c-0.004-0.053-4.297-5.438-17.297-5.828c0-2.26,0-3.627,0-3.627
						c27,0,49.227,22.095,49.227,49.365c0,27.261-22.16,49.356-49.421,49.356c-27.27,0-49.268-22.095-49.268-49.356
						C0.161,22.095,21.623,0,49.623,0c0,0,0,3.361,0,3.361"/>
					<path fill="#85C6E3" d="M49.494,3.415l-0.065,0.027c-15.585,0.912-18.75,6.542-18.756,6.597
						c-0.027,0.232,0.119,0.584,0.315,0.713c0.481,0.316,1.453,0.166,5.54-0.569c7.498-1.348,11.095-1.288,13.095-1.264
						c0,1.858,0,3.916,0,6.081c-19-0.009-34.503,15.395-34.494,34.365c-0.009,18.96,15.33,34.365,34.301,34.356
						C68.39,83.73,83.892,68.326,83.882,49.365C83.891,30.394,68.623,14.991,49.623,15c0-2.165,0-4.222,0-6.081
						c1,0.017,2.19,0.039,3.184,0.055c5.741,0.378,11.34,1.499,12.417,1.72c0.762,0.156,1.91,0.491,2.56,0.064
						c0.195-0.128,0.471-0.474,0.444-0.706c-0.103-0.87-5.604-6.239-18.604-6.583c0-2.166,0-3.469,0-3.469
						c27,0,49.227,22.095,49.227,49.365c0,27.261-22.16,49.356-49.421,49.356c-27.27,0-49.268-22.095-49.268-49.356
						C0.161,22.095,21.623,0,49.623,0c0,0,0,3.361,0,3.361"/>
					<path fill="#81C5E2" d="M49.494,3.338C32.778,4.277,29.43,10.64,29.421,10.704c-0.036,0.233,0.042,0.595,0.231,0.736
						c0.509,0.379,2.402,0.019,5.634-0.631c3.23-0.649,8.337-1.738,14.337-1.645c0,1.794,0,3.766,0,5.836
						c-19-0.009-34.503,15.395-34.494,34.365c-0.009,18.96,15.33,34.365,34.301,34.356C68.39,83.73,83.892,68.326,83.882,49.365
						C83.891,30.394,68.623,14.991,49.623,15c0-2.07,0-4.042,0-5.836c0-0.001-0.002-0.002,0.052-0.003
						c2.842,0.067,6.67,0.16,11.526,1.153c6.88,1.407,7.479,1.459,7.934,1.119c0.189-0.141,0.411-0.508,0.376-0.742
						c-0.154-1.026-6.889-7.041-19.889-7.377c0-2.073,0-3.314,0-3.314c27,0,49.227,22.095,49.227,49.365
						c0,27.261-22.16,49.356-49.421,49.356c-27.27,0-49.268-22.095-49.268-49.356C0.161,22.095,21.623,0,49.623,0
						c0,0,0,3.361,0,3.361"/>
					<path fill="#7DC3E2" d="M49.494,3.262c-17.678,0.953-21.292,8.071-21.303,8.142c-0.037,0.237,0.005,0.591,0.189,0.745
						c0.303,0.255,0.702,0.483,5.635-0.697c7.791-1.864,12.608-2.083,15.608-2.054c0,1.731,0,3.622,0,5.602
						c-19-0.009-34.503,15.395-34.494,34.365c-0.009,18.96,15.33,34.365,34.301,34.356C68.39,83.73,83.892,68.326,83.882,49.365
						C83.891,30.394,68.623,14.991,49.623,15c0-1.981,0-3.871,0-5.602c1,0.022,2.164,0.052,3.147,0.074
						c1.292,0.093,4.659,0.339,8.346,1.124c8.878,1.891,8.845,1.891,9.291,1.528c0.186-0.152,0.371-0.533,0.334-0.77
						c-0.179-1.149-7.118-7.87-21.118-8.191c0-1.982,0-3.163,0-3.163c27,0,49.227,22.095,49.227,49.365
						c0,27.261-22.16,49.356-49.421,49.356c-27.27,0-49.268-22.095-49.268-49.356C0.161,22.095,21.623,0,49.623,0
						c0,0,0,3.361,0,3.361"/>
					<path fill="#79C1E1" d="M49.494,3.183C30.361,4.19,26.401,12.224,27.17,12.944c0.424,0.396,1.262,0.363,6.989-1.146
						c5.468-1.441,10.464-2.199,15.464-2.164c0,1.666,0,3.475,0,5.366c-19-0.009-34.503,15.395-34.494,34.365
						c-0.009,18.96,15.33,34.365,34.301,34.356C68.39,83.73,83.892,68.326,83.882,49.365C83.891,30.394,68.623,14.991,49.623,15
						c0-1.891,0-3.7,0-5.366c1,0.024,2.151,0.055,3.128,0.079c5.918,0.435,10.696,1.671,12.04,2.04
						c6.237,1.712,6.567,1.373,6.858,1.102c1.278-1.195-5.44-9.11-21.317-9.832c-0.246-0.011-0.708-0.012-0.708-0.017
						c0-1.887,0-3.005,0-3.005c27,0,49.227,22.095,49.227,49.365c0,27.261-22.16,49.356-49.421,49.356
						c-27.27,0-49.268-22.095-49.268-49.356C0.161,22.095,21.623,0,49.623,0c0,0,0,3.361,0,3.361"/>
					<path fill="#74BFE0" d="M49.494,2.604c-19.822,0.998-24.301,10.098-23.54,10.9c0.486,0.512,2.146,0.288,7.373-1.261
						c3.119-0.925,9.296-2.41,16.296-2.372c0,1.6,0,3.327,0,5.129c-19-0.009-34.503,15.395-34.494,34.365
						c-0.009,18.96,15.33,34.365,34.301,34.356C68.39,83.73,83.892,68.326,83.882,49.365C83.891,30.394,68.623,14.991,49.623,15
						c0-1.801,0-3.529,0-5.129c1,0.025,2.138,0.059,3.109,0.085c2.547,0.192,6.496,0.62,11.929,2.114
						c6.606,1.817,7.264,2.007,7.874,1.636c0.199-0.121,0.519-0.419,0.536-0.651c0.119-1.648-7.448-9.908-23.448-10.207
						c0-1.792,0-2.848,0-2.848c27,0,49.227,22.095,49.227,49.365c0,27.261-22.16,49.356-49.421,49.356
						c-27.27,0-49.268-22.095-49.268-49.356C0.161,22.095,21.623,0,49.623,0c0,0,0,2.361,0,2.361"/>
					<path fill="#70BDDF" d="M49.494,2.528C29.037,3.512,24.013,13.47,24.76,14.359c0.547,0.652,2.745,0.096,5.887-0.89
						c7.14-2.241,10.976-3.134,18.976-3.356c0,1.532,0,3.176,0,4.888c-19-0.009-34.503,15.395-34.494,34.365
						c-0.009,18.96,15.33,34.365,34.301,34.356C68.39,83.73,83.892,68.326,83.882,49.365C83.891,30.394,68.623,14.991,49.623,15
						c0-1.711,0-3.356,0-4.888c1,0.027,2.119,0.062,3.082,0.089c6.343,0.487,9.805,1.512,15.493,3.28
						c4.17,1.296,5.533,1.503,5.989,0.96c1.295-1.542-7.565-11.465-24.565-11.747c0-1.698,0-2.694,0-2.694
						c27,0,49.227,22.095,49.227,49.365c0,27.261-22.16,49.356-49.421,49.356c-27.27,0-49.268-22.095-49.268-49.356
						C0.161,22.095,21.623,0,49.623,0c0,0,0,2.361,0,2.361"/>
					<path fill="#6ABADD" d="M49.494,2.45c-20.579,0.81-26.602,11.84-25.9,12.802c0.581,0.795,2.491,0.202,7.339-1.444
						c3.594-1.22,9.69-3.469,18.69-3.448c0,1.461,0,3.021,0,4.641c-19-0.009-34.503,15.395-34.494,34.365
						c-0.009,18.96,15.33,34.365,34.301,34.356C68.39,83.73,83.892,68.326,83.882,49.365C83.891,30.394,68.623,14.991,49.623,15
						c0-1.62,0-3.179,0-4.641c1,0.028,2.11,0.066,3.069,0.094c2.176,0.171,7.89,0.625,15.324,3.377
						c4.705,1.742,6.832,2.153,7.337,1.466c0.706-0.962-5.73-11.946-25.73-12.757c0-1.603,0-2.539,0-2.539
						c27,0,49.227,22.095,49.227,49.365c0,27.261-22.16,49.356-49.421,49.356c-27.27,0-49.268-22.095-49.268-49.356
						C0.161,22.095,21.623,0,49.623,0c0,0,0,2.361,0,2.361"/>
					<path fill="#65B8DC" d="M49.494,2.355c-22.448,1.037-27.44,13.222-27.055,13.854c0.611,1.005,4.033-0.28,5.82-0.969
						c6.085-2.347,12.365-4.639,21.365-4.631c0,1.389,0,2.863,0,4.391c-19-0.009-34.503,15.395-34.494,34.365
						c-0.009,18.96,15.33,34.365,34.301,34.356C68.39,83.73,83.892,68.326,83.882,49.365C83.891,30.394,68.623,14.991,49.623,15
						c0-1.528,0-3.002,0-4.391c1,0.029,2.096,0.069,3.049,0.098c2.163,0.173,7.843,0.634,15.177,3.443
						c5.882,2.253,7.961,3.012,8.66,2.055c1.378-1.886-7.886-13.582-26.886-13.856c0-1.487,0-2.348,0-2.348
						c27,0,49.227,22.095,49.227,49.365c0,27.261-22.16,49.356-49.421,49.356c-27.27,0-49.268-22.095-49.268-49.356
						C0.161,22.095,21.623,0,49.623,0c0,0,0,2.361,0,2.361"/>
					<path fill="#5EB5DB" d="M49.494,2.263l-0.065-0.049C25.92,3.265,20.87,16.484,21.252,17.205
						c0.618,1.163,3.416,0.01,6.525-1.311c6.131-2.605,12.845-5.028,21.845-5.034c0,1.315,0,2.704,0,4.14
						c-19-0.009-34.503,15.395-34.494,34.365c-0.009,18.96,15.33,34.365,34.301,34.356C68.39,83.73,83.892,68.326,83.882,49.365
						C83.891,30.394,68.623,14.991,49.623,15c0-1.436,0-2.825,0-4.14c1,0.031,2.081,0.072,3.028,0.102
						c2.302,0.188,9.241,0.761,18.504,4.919c5.29,2.375,6.18,1.915,6.507,1.298c0.897-1.688-8.039-14.752-28.039-15.015
						c0-1.374,0-2.165,0-2.165c27,0,49.227,22.095,49.227,49.365c0,27.261-22.16,49.356-49.421,49.356
						c-27.27,0-49.268-22.095-49.268-49.356C0.161,22.095,21.623,0,49.623,0c0,0,0,2.361,0,2.361"/>
					<path fill="#56B1D9" d="M49.494,2.16l-0.065-0.101c-24.269,1.1-29.687,15.305-29.295,16.186c0.1,0.224,0.354,0.446,0.584,0.531
						c0.829,0.302,2.167-0.249,7.288-2.516c5.58-2.471,12.616-5.121,21.616-5.138c0,1.237,0,2.538,0,3.879
						c-19-0.009-34.503,15.395-34.494,34.365c-0.009,18.96,15.33,34.365,34.301,34.356C68.39,83.73,83.892,68.326,83.882,49.365
						C83.891,30.394,68.623,14.991,49.623,15c0-1.342,0-2.642,0-3.879c1,0.032,2.066,0.074,3.007,0.106
						c7.97,0.662,13.372,2.843,18.288,5.019c4.714,2.087,6.27,2.791,7.133,2.503c0.233-0.078,0.613-0.332,0.713-0.556
						c1.125-2.529-8.142-15.954-29.142-16.235c0-1.246,0-1.958,0-1.958c27,0,49.227,22.095,49.227,49.365
						c0,27.261-22.16,49.356-49.421,49.356c-27.27,0-49.268-22.095-49.268-49.356C0.161,22.095,21.623,0,49.623,0
						c0,0,0,2.361,0,2.361"/>
					<path fill="#4CACD7" d="M49.494,1.535C23.782,2.701,17.75,18.985,19.558,19.841c0.919,0.436,3.344-0.661,7.201-2.549
						c4.505-2.206,11.865-5.854,22.865-5.896c0,1.154,0,2.361,0,3.604c-19-0.009-34.503,15.395-34.494,34.365
						c-0.009,18.96,15.33,34.365,34.301,34.356C68.39,83.73,83.892,68.326,83.882,49.365C83.891,30.394,68.623,14.991,49.623,15
						c0-1.242,0-2.45,0-3.604c1,0.033,2.05,0.078,2.984,0.111c9.377,0.798,14.658,3.416,21.425,6.73
						c1.806,0.885,4.248,2.096,5.228,1.69c2.001-0.829-1.55-9.914-15.128-15.484c-1.5-0.615-7.509-2.631-14.509-2.734
						c0-1.092,0-1.709,0-1.709c27,0,49.227,22.095,49.227,49.365c0,27.261-22.16,49.356-49.421,49.356
						c-27.27,0-49.268-22.095-49.268-49.356C0.161,22.095,21.623,0,49.623,0c0,0,0,1.361,0,1.361"/>
					<path fill="#34A1D1" d="M49.494,1.395l-0.065,0.017c-26.754,1.299-33.372,18.324-31.08,19.751
						c0.984,0.612,3.274-0.561,6.881-2.512c4.78-2.586,12.393-6.909,24.393-6.978c0,1.07,0,2.183,0,3.327
						c-19-0.009-34.503,15.395-34.494,34.365c-0.009,18.96,15.33,34.365,34.301,34.356C68.39,83.73,83.892,68.326,83.882,49.365
						C83.891,30.394,68.623,14.991,49.623,15c0-1.143,0-2.257,0-3.327c1,0.035,2.034,0.082,2.961,0.117
						c2.336,0.204,7.742,0.681,14.597,3.635c0.148,0.064,3.625,1.581,6.49,3.229c3.936,2.265,5.944,3.018,6.75,2.516
						c2.798-1.742-4.654-14.705-21.576-18.657c-1.703-0.398-4.221-0.999-9.221-1.084c0-0.917,0-1.43,0-1.43
						c27,0,49.227,22.095,49.227,49.365c0,27.261-22.16,49.356-49.421,49.356c-27.27,0-49.268-22.095-49.268-49.356
						C0.161,22.095,21.623,0,49.623,0c0,0,0,1.361,0,1.361"/>
					<path fill="#339ECD" d="M49.494,1.244C21.305,2.688,15.427,21.125,17.215,22.57c0.867,0.701,0.964,0.671,8.34-3.494
						c4.635-2.618,12.068-7.028,24.068-7.123c0,0.984,0,2.003,0,3.048c-19-0.009-34.503,15.395-34.494,34.365
						c-0.009,18.96,15.33,34.365,34.301,34.356C68.39,83.73,83.892,68.326,83.882,49.365C83.891,30.394,68.623,14.991,49.623,15
						c0-1.044,0-2.064,0-3.048c1,0.037,2.017,0.086,2.937,0.123c3.294,0.295,11.978,1.078,23.201,8.345
						c4.21,2.726,5.336,2.498,5.842,2.09c3.042-2.457-7.358-19.1-27.314-21.097c-1.429-0.143-3.666-0.26-4.666-0.287
						c0-0.726,0-1.126,0-1.126c27,0,49.227,22.095,49.227,49.365c0,27.261-22.16,49.356-49.421,49.356
						c-27.27,0-49.268-22.095-49.268-49.356C0.161,22.095,21.623,0,49.623,0c0,0,0,1.361,0,1.361"/>
					<path fill="#329BC9" d="M49.494,0.605l-0.065,0.122C20.832,2.224,13.901,21.68,16.029,23.896
						c1.056,1.1,3.106-0.143,6.622-2.454c5.165-3.396,13.972-9.049,26.972-9.172c0,0.885,0,1.798,0,2.73
						c-19-0.009-34.503,15.395-34.494,34.365c-0.009,18.96,15.33,34.365,34.301,34.356C68.39,83.73,83.892,68.326,83.882,49.365
						C83.891,30.394,68.623,14.991,49.623,15c0-0.933,0-1.845,0-2.73c1,0.038,1.999,0.088,2.911,0.126
						c9.625,0.874,15.677,3.832,23.598,8.986c4.442,2.891,4.86,2.912,5.847,2.957c1.98,0.092,1.837-4.813-3.14-10.722
						C75.705,9.897,66.623,1.206,49.623,0.85c0-0.55,0-0.85,0-0.85c27,0,49.227,22.095,49.227,49.365
						c0,27.261-22.16,49.356-49.421,49.356c-27.27,0-49.268-22.095-49.268-49.356C0.161,22.095,21.623,0,49.623,0
						c0,0,0,0.361,0,0.361"/>
					<path fill="#3197C4" d="M49.494,0.506C19.957,1.974,13.046,22.651,14.931,25.44c1.036,1.533,3.661-0.273,6.862-2.604
						c5.204-3.79,13.83-10.097,27.83-10.243c0,0.784,0,1.588,0,2.407c-19-0.009-34.503,15.395-34.494,34.365
						c-0.009,18.96,15.33,34.365,34.301,34.356C68.39,83.73,83.892,68.326,83.882,49.365C83.891,30.394,68.623,14.991,49.623,15
						c0-0.82,0-1.624,0-2.407c1,0.038,1.98,0.09,2.884,0.128c3.413,0.314,12.414,1.148,23.205,9.1c4.703,3.466,5.65,4.187,7.5,4.21
						c1.102,0.013,2.975-4.467-4.352-12.99C75.748,9.42,66.623,0.964,49.623,0.652c0-0.424,0-0.652,0-0.652
						c27,0,49.227,22.095,49.227,49.365c0,27.261-22.16,49.356-49.421,49.356c-27.27,0-49.268-22.095-49.268-49.356
						C0.161,22.095,21.623,0,49.623,0c0,0,0,0.361,0,0.361"/>
					<path fill="#3094C0" d="M49.494,0.427C17.369,1.94,10.384,25.674,14.401,27.845c1.316,0.711,3.422-0.919,6.462-3.412
						c6.849-5.616,15.76-11.36,28.76-11.515c0,0.681,0,1.376,0,2.082c-19-0.009-34.503,15.395-34.494,34.365
						c-0.009,18.96,15.33,34.365,34.301,34.356C68.39,83.73,83.892,68.326,83.882,49.365C83.891,30.394,68.623,14.991,49.623,15
						c0-0.707,0-1.402,0-2.082c1,0.039,1.961,0.091,2.857,0.131c3.417,0.319,13.751,1.288,25.004,10.888
						c4.736,4.04,5.673,4.083,5.991,4.096c3.298,0.144,2.186-7.213-3.129-13.762C71.313,3.14,58.513,0.635,49.373,0.494
						C76.634,0,98.725,22.095,98.725,49.365c0,27.261-22.097,49.356-49.358,49.356c-27.27,0-49.237-22.095-49.237-49.356
						C0.13,22.095,21.623,0,49.623,0c0,0,0,0.361,0,0.361"/>
					<path fill="#2F91BC" d="M49.494,0.369C15.409,1.944,10.077,27.157,13.232,29.903c1.338,1.165,3.058-0.312,7.395-4.265
						c6.202-5.652,14.996-12.161,28.996-12.343c0,0.56,0,1.128,0,1.705c-19-0.009-34.503,15.395-34.494,34.365
						c-0.009,18.96,15.33,34.365,34.301,34.356C68.39,83.73,83.892,68.326,83.882,49.365C83.891,30.394,68.623,14.991,49.623,15
						c0-0.576,0-1.145,0-1.705c1,0.04,1.939,0.093,2.826,0.133c6.035,0.571,15.144,2.384,25.086,11.498
						c4.704,4.312,5.789,5.337,7.248,5.351c2.571,0.025,2.731-8.196-4.306-16.575C73.522,5.421,62.18,0.564,49.373,0.377
						C76.634,0,98.725,22.095,98.725,49.365c0,27.261-22.097,49.356-49.358,49.356c-27.27,0-49.237-22.095-49.237-49.356
						C0.13,22.095,21.623,0,49.623,0c0,0,0,0.361,0,0.361"/>
					<path fill="#2E8EB8" d="M49.494,0.321C11.756,2,9.231,31.033,12.82,32.741c1.455,0.692,3.018-0.904,6.561-4.736
						c8.759-9.471,18.242-14.163,30.242-14.322c0,0.434,0,0.873,0,1.316c-19-0.009-34.503,15.395-34.494,34.365
						c-0.009,18.96,15.33,34.365,34.301,34.356C68.39,83.73,83.892,68.326,83.882,49.365C83.891,30.394,68.623,14.991,49.623,15
						c0-0.444,0-0.883,0-1.317c1,0.04,1.917,0.093,2.793,0.134c3.854,0.367,15.52,1.485,26.998,14.027
						c1.481,1.618,4.531,4.986,5.594,4.967c4.213-0.074,3.382-10.82-4.266-19.49c-3.39-3.843-13.24-12.808-31.37-13.04
						C76.634,0,98.725,22.095,98.725,49.365c0,27.261-22.097,49.356-49.358,49.356c-27.27,0-49.237-22.095-49.237-49.356
						C0.13,22.095,21.623,0,49.623,0c0,0,0,0.361,0,0.361"/>
					<path fill="#2D8AB4" d="M49.494,0.285C12.439,1.907,6.971,30.953,11.692,35.501c1.624,1.564,3.191-0.361,5.859-3.82
						c3.65-4.732,13.072-17.319,32.072-17.587c0,0.3,0,0.602,0,0.906c-19-0.009-34.503,15.395-34.494,34.365
						c-0.009,18.96,15.33,34.365,34.301,34.356C68.39,83.73,83.892,68.326,83.882,49.365C83.891,30.394,68.623,14.991,49.623,15
						c0-0.304,0-0.607,0-0.906c1,0.04,1.893,0.094,2.76,0.134c15.682,1.504,24.337,10.899,30.182,18.915
						c2.04,2.798,3.114,2.816,3.776,2.827c2.78,0.045,4.397-11.233-3.891-21.255C74.961,5.659,62.9,0.372,49.373,0.208
						C76.634,0,98.725,22.095,98.725,49.365c0,27.261-22.097,49.356-49.358,49.356c-27.27,0-49.237-22.095-49.237-49.356
						C0.13,22.095,21.623,0,49.623,0c0,0,0,0.361,0,0.361"/>
					<path fill="#2C87B0" d="M49.494,0.254C11.387,1.896,4.931,33.06,11.394,39.515c1.847,1.844,2.997-0.298,5.354-4.511
						c9.819-17.555,24.654-20.34,32.633-20.43c-18.97,0.431-34.382,15.827-34.373,34.798c-0.009,18.96,15.39,34.361,34.361,34.353
						c18.961,0.009,34.363-15.397,34.354-34.358c0.009-18.971-15.397-34.375-34.357-34.366c0.855-0.095,1.995-0.222,2.851-0.317
						c9.24,0.856,22.079,5.369,30.769,22.004c1.595,3.054,2.346,3.389,2.595,3.391c4.946,0.046,6.601-14.161-2.471-25.109
						C80.277,11.551,69.47,0.376,49.365,0.146C76.626,0,98.721,22.095,98.721,49.365c0,27.261-22.095,49.356-49.356,49.356
						c-27.27,0-49.236-22.095-49.236-49.356C0.129,22.095,21.623,0,49.623,0c0,0,0,0.361,0,0.361"/>
					<path fill="#2B84AB" d="M49.494,0.23C17.47,1.584,9.893,23.829,9.588,24.778c-0.796,2.484-2.692,8.268-0.297,15.65
						c1.035,3.189,3.538,5.557,4.698,8.679c1.418,3.816,1.45,7.961,2.887,11.772c0.345,0.914,0.82,2.124,1.245,3.004
						c2.491,5.16,5.442,8.488,7.482,10.372c13.887,12.833,31.76,11.054,42.491,3.971c5.54-3.657,9.632-8.35,12.509-14.347
						c0.348-0.726,0.766-1.718,1.05-2.471c1.504-3.987,1.61-8.325,3.094-12.318c1.16-3.122,3.728-5.48,4.714-8.695
						c0.426-1.39,1.425-4.643,1.119-9.035C89.398,14.35,70.909,0.326,49.365,0.099C76.626,0,98.721,22.095,98.721,49.365
						c0,27.261-22.095,49.356-49.356,49.356c-27.27,0-49.236-22.095-49.236-49.356C0.129,22.095,21.623,0,49.623,0
						c0,0,0,0.361,0,0.361"/>
					<path fill="#2A81A7" d="M49.494,0.212l-0.065-0.075C16.871,1.496,8.952,24.589,8.633,25.573
						C2.624,44.06,19.926,70.214,25.091,74.823c34.919,31.161,68.822-16.55,66.455-42.873C90.185,16.808,73.67,0.31,49.369,0.067
						C76.63,0.005,98.723,22.097,98.723,49.367c0,27.261-22.096,49.355-49.357,49.355c-27.27,0-49.236-22.096-49.236-49.357
						C0.13,22.096,21.623,0,49.623,0c0,0,0,0.361,0,0.361"/>
					<path fill="#297EA3" d="M49.494,0.197l-0.065-0.082C29.771,0.359,12.848,11.398,7.366,27.646
						c-4.704,13.941,6.72,37.956,16.728,47.357c31.897,29.962,69.414-10.587,68.517-40.175c-0.502-16.546-18-34.478-43.242-34.79
						C76.63,0.005,98.723,22.098,98.723,49.368c0,27.261-22.096,49.355-49.357,49.355c-27.27,0-49.236-22.096-49.236-49.357
						C0.13,22.096,21.623,0,49.623,0c0,0,0,0.361,0,0.361"/>
					<path fill="#287A9F" d="M49.494,0.188C2.08,2.126-6.77,48.162,23.532,75.668c31.657,28.737,71.679-6.849,69.977-40.055
						C92.639,18.629,74.69,0.267,49.381,0.036c27.261-0.014,49.348,22.07,49.348,49.34c0,27.261-22.099,49.351-49.36,49.351
						c-27.27,0-49.238-22.098-49.238-49.359C0.131,22.098,21.623,0,49.623,0c0,0,0,0.361,0,0.361"/>
					<path fill="#26779B" d="M49.494,0.182C1.806,2.117-8.091,49.012,22.878,76.306c32.523,28.663,74.385-7.727,71.364-40.312
						C92.656,18.882,75.043,0.252,49.381,0.026c27.261-0.003,49.348,22.081,49.348,49.351c0,27.261-22.099,49.35-49.36,49.35
						c-27.27,0-49.238-22.098-49.238-49.359C0.131,22.098,21.623,0,49.623,0c0,0,0,0.361,0,0.361"/>
					<path fill="#257496" d="M39.707,0.944c-43.845,9.431-46.003,57.92-13.223,79.197c36.138,23.456,75.016-16.75,67.751-47.212
						C90.08,15.508,74.043,2.374,54.329,0.247c24.929,2.489,44.392,23.525,44.392,49.118c0,27.261-22.095,49.356-49.356,49.356
						C22.095,98.721,0,76.626,0,49.365C0,23.772,19.462,2.736,44.398,0.247c0,0,0,0,0,0C42.989,0.445,41.098,0.645,39.707,0.944"/>
					<path fill="#247192" d="M30.686,3.656C-9.951,20.406-1.958,70.669,34.063,85.065C70.624,99.677,105.61,58.94,93.149,28.404
						C88.217,16.319,78.706,7.6,64.878,2.487c19.66,6.503,33.843,25.03,33.843,46.878c0,27.261-22.095,49.356-49.356,49.356
						C22.095,98.721,0,76.626,0,49.365C0,27.517,14.182,8.991,33.845,2.488c0,0,0,0,0,0C32.897,2.838,31.62,3.27,30.686,3.656"/>
					<path fill="#236D8E" d="M26.471,5.616C-12.915,26.833-0.433,75.796,37.282,87.086c36.035,10.787,71.582-30.052,54.336-62.426
						C84.853,11.961,74.264,6.629,70.784,4.877c16.532,7.975,27.937,24.896,27.937,44.488c0,27.261-22.095,49.356-49.356,49.356
						C22.095,98.721,0,76.626,0,49.365C0,29.774,11.403,12.854,27.936,4.878c0,0,0,0,0,0C27.497,5.1,26.904,5.383,26.471,5.616"/>
					<path fill="#226A8A" d="M22.482,7.952C-13.779,32.284,3.242,81.128,40.785,88.844c35.133,7.221,70.978-32.366,49.223-67.148
						c-2.361-3.775-6.809-9.314-14.591-14.269c13.992,8.712,23.304,24.235,23.304,41.938c0,27.261-22.095,49.356-49.356,49.356
						C22.095,98.721,0,76.626,0,49.365C0,31.663,9.311,16.141,23.304,7.429c0,0,0,0,0,0C23.057,7.586,22.725,7.789,22.482,7.952"/>
					<path fill="#216786" d="M18.744,10.638C-15.148,38.317,6.4,85.887,44.568,90.299c36.965,4.273,69.17-39.031,42.725-72.447
						c-1.427-1.803-3.964-4.604-7.947-7.707c11.779,9.021,19.375,23.23,19.375,39.219c0,27.261-22.095,49.356-49.356,49.356
						C22.095,98.721,0,76.626,0,49.365c0-15.988,7.594-30.197,19.374-39.217c0,0,0,0,0,0C19.185,10.295,18.929,10.487,18.744,10.638
						"/>
					<path fill="#206482" d="M15.278,13.654c-31.303,30.798-5.259,76.691,33.349,77.758c38.187,1.055,66.235-45.589,35.545-77.048
						c-0.391-0.401-0.938-0.909-1.346-1.292c9.774,9.019,15.896,21.939,15.896,36.293c0,27.261-22.095,49.356-49.356,49.356
						C22.095,98.721,0,76.626,0,49.365c0-14.353,6.121-27.272,15.895-36.291c0,0,0,0,0,0C15.71,13.248,15.459,13.476,15.278,13.654"
						/>
					<path fill="#1F617D" d="M12.107,16.976c-26.448,31.312-1.296,77.678,40.778,75.17c36.219-2.159,60.557-44.902,33.096-75.887
						c7.919,8.756,12.741,20.366,12.741,33.106c0,27.261-22.095,49.356-49.356,49.356C22.095,98.721,0,76.626,0,49.365
						c0-12.739,4.822-24.349,12.74-33.104c0,0,0,0,0,0C12.55,16.475,12.291,16.757,12.107,16.976"/>
					<path fill="#1E5D79" d="M9.253,20.581c-25.636,36.787,10.412,79.16,48.685,71.777c35.143-6.779,51.339-44.763,30.945-72.576
						c6.178,8.244,9.838,18.485,9.838,29.583c0,27.261-22.095,49.356-49.356,49.356C22.095,98.721,0,76.626,0,49.365
						c0-11.098,3.659-21.338,9.837-29.582c0,0,0,0,0,0C9.662,20.023,9.422,20.337,9.253,20.581"/>
					<path fill="#1D5A75" d="M6.739,24.447c-22.13,39.173,17.974,78.546,55.552,67.782c30.772-8.815,45.004-42.086,29.286-68.463
						c4.534,7.463,7.144,16.226,7.144,25.599c0,27.261-22.095,49.356-49.356,49.356C22.095,98.721,0,76.626,0,49.365
						c0-9.373,2.61-18.134,7.144-25.598c0,0,0,0,0,0C7.022,23.971,6.855,24.24,6.739,24.447"/>
					<path fill="#1C5771" d="M4.587,28.551c-18.375,41.483,24.964,76.915,62.073,63.143c26.311-9.765,38.87-38.73,27.425-63.249
						c2.975,6.351,4.636,13.441,4.636,20.92c0,27.261-22.095,49.356-49.356,49.356C22.095,98.721,0,76.626,0,49.365
						c0-7.479,1.662-14.568,4.636-20.919c0,0,0,0,0,0C4.623,28.478,4.601,28.519,4.587,28.551"/>
					<path fill="#1B546D" d="M1.467,37.386c-9.748,40.447,36.922,73.065,73.437,51.326c14.494-8.629,28.848-27.959,21.596-54.035
						c1.443,4.639,2.221,9.572,2.221,14.688c0,27.261-22.095,49.356-49.356,49.356C22.095,98.721,0,76.626,0,49.365
						c0-5.115,0.777-10.048,2.22-14.687c0,0,0,0,0,0C1.994,35.49,1.665,36.566,1.467,37.386"/>
				</g>
			</g>
		</g>
	</g>
</g>
</svg>
