<?xml version="1.0" encoding="utf-8"?>
<!-- Generator: Adobe Illustrator 17.0.0, SVG Export Plug-In . SVG Version: 6.00 Build 0)  -->
<!DOCTYPE svg PUBLIC "-//W3C//DTD SVG 1.1//EN" "http://www.w3.org/Graphics/SVG/1.1/DTD/svg11.dtd">
<svg version="1.1" id="proute" xmlns="http://www.w3.org/2000/svg" xmlns:xlink="http://www.w3.org/1999/xlink" x="0px" y="0px"
	 width="2124px" height="1083px" viewBox="0 0 2124 1083" enable-background="new 0 0 2124 1083" xml:space="preserve">
<g id="Bus_Route_P">
	
		<path opacity="0.5" fill="none" stroke="#4F2507" stroke-width="6" stroke-linejoin="round" stroke-miterlimit="10" enable-background="new    " d="
		M1456.056,584.267c-8.587,1.922-27.389,31.399-30.056,35.727s-13.667,27.665-13.667,27.665
		c-5.491,9.932-38.232,72.869-43.879,82.035c-2.826,4.588-7.908,12.89-11.925,16.482c-2.798,2.502-12.944,7.468-16.385,8.966
		c-7.697,3.352-34.985,12.881-34.985,12.881s-47.211,17.138-62.93,24.834c-6.723,3.124-18.189,9.988-24.342,14.191
		c-3.152,3.468-6.44,4.585-13.526,10.745c-3.092,1.743-11.372,9.265-14.941,9.709c-2.506,1.264-7.747,2.909-10.546,2.703
		c-7.478-0.551-10.515-2.983-15.041-7.885c-18.362-22.308-76.164-101.561-76.164-101.561
		c9.422-10.854,109.458-217.898,114.055-223.189c0,0,37.035-75.781,38.964-80.821c1.004-2.623,1.007-17.361,1.808-22.161
		c7.972-0.377,138.365-1.355,140.578-0.049c2.526,0,6.333,1.11,19.452,4.742c9.641,3.284,44.165,11.642,47.571,14.384
		c2.459,3.968,7.515,37.694,12.55,48.966c4.371,7.032,9.192,21.263,13.462,27.889c8.219,12.755,0.319-0.891,16.134,25.229
		c0,0,4.661,10.299,5.891,11.194c1.546,1.125,3.455-0.158,11.768,1.419c4.367,0.829,8.886,5.319,9.622,8.764
		c0,0,82.954-22.494,83.704-23.369s1.021-5.39,1.591-7.589c0,0,5.824-12.53,18.523-9.031c0,0,5.992,1.163,8.324,5.514
		c2.333,4.351,3.639,13.416,1.006,16.851c-1.006,1.312,18.077,14.75,18.077,14.75s1.75,1.342,3.25,1.421
		c1.5,0.079,26.256,2.09,30,1.079c4.627-1.25,16.5-4.114,16.5-4.114s34.201-8.469,36.5-8.636c2.44-0.177,7.886,0.034,9.993,0.594
		c1.918,0.51,17.007,16.906,17.007,16.906l49.833,52.833c0,0,6.936,16.598,7.333,17.716c0.398,1.117,0.769,6.951,0.769,6.951
		l-5.5,10.833c0,0-40.13,87.883-42.646,89.855s-11.573,6.157-16.354,8.593c-4.78,2.436-68.777,12.482-71.751,12.742
		c-2.974,0.261-12.188-0.847-13.57-1.059c-12.719-1.951-47.973-14.95-55.19-17.298c-4.033-1.313-43.155-18.367-43.155-18.367
		l-15.599-9.011l-23.803-20.175c0,0-9.259-6.038-12.981-10.064c-3.723-4.026-24.102-29.467-24.102-29.467l-38.928-49.745
		L1456.056,584.267z"/>
</g>
</svg>
