<?xml version="1.0" encoding="utf-8"?>
<!-- Generator: Adobe Illustrator 17.0.0, SVG Export Plug-In . SVG Version: 6.00 Build 0)  -->
<!DOCTYPE svg PUBLIC "-//W3C//DTD SVG 1.1//EN" "http://www.w3.org/Graphics/SVG/1.1/DTD/svg11.dtd">
<svg version="1.1" id="Bus_Route_R" xmlns="http://www.w3.org/2000/svg" xmlns:xlink="http://www.w3.org/1999/xlink" x="0px"
	 y="0px" width="2124px" height="1083px" viewBox="0 0 2124 1083" enable-background="new 0 0 2124 1083" xml:space="preserve">
<path opacity="0.5" fill="none" stroke="#D6132B" stroke-width="12" stroke-linejoin="round" stroke-miterlimit="10" enable-background="new    " d="
	M636.244,652.323c0,0-15.576-12.423-20.188-14.73c-11.858-2.474-146.06-1.04-148.521-6.062c-3.733-7.619-0.366-73.709,5.36-96.444
	c2.776-8.205,43.957,1.955,54.103-2.226c2.68-11.315,1.273-35.006,5.393-47.767c7.858-3.426,39.272-4.641,48.974-3.068
	c17.425,6.713,53.115,21.936,67.331,31.77c5.063,10.419,3.905,40.417,2.175,52.935c-1.706,20.607-5.495,65.508-10.749,79.646
	c-5.574,6.505-11.712,20.028-16.255,27.008c0.142,8.539-5.395,56.741-0.896,56.764c23.729,0.123,210.908,12.554,239.732,15.601
	c20.986,4.242,223.196-23.731,228.09-25.443c10.645-10.006,110.291-218.076,114.888-223.367
	c1.473-2.947,18.596,18.805,15.741,22.345c-9.803,19.444-34.649,71.249-42.994,84.875c-1.171,1.557-19.367-7.87-19.367-7.87
	l-6.228-2.973"/>
</svg>
