<?xml version="1.0" encoding="utf-8"?>
<!-- Generator: Adobe Illustrator 17.0.0, SVG Export Plug-In . SVG Version: 6.00 Build 0)  -->
<!DOCTYPE svg PUBLIC "-//W3C//DTD SVG 1.1//EN" "http://www.w3.org/Graphics/SVG/1.1/DTD/svg11.dtd">
<svg version="1.1" xmlns="http://www.w3.org/2000/svg" xmlns:xlink="http://www.w3.org/1999/xlink" x="0px" y="0px" width="2124px"
	 height="1083px" viewBox="0 0 2124 1083" enable-background="new 0 0 2124 1083" xml:space="preserve">
<g id="School_1_">
	
		<circle opacity="0.5" fill="#1AD66B" stroke="#19490B" stroke-miterlimit="10" enable-background="new    " cx="1513.333" cy="614" r="20.667"/>
	
		<circle opacity="0.5" fill="#1AD66B" stroke="#19490B" stroke-miterlimit="10" enable-background="new    " cx="944.297" cy="592.284" r="32.323"/>
	<path opacity="0.5" fill="#1AD66B" stroke="#19490B" stroke-miterlimit="10" enable-background="new    " d="M1163.1,756.75v34.484
		h15.833v-6.897h5.365v16.603h22.222v-5.619h2.809l1.794-2.302v-2.556h11.999v-6.634h3.58V756.75H1163.1z M1189.491,771.867h-5.166
		v10.069h-11.102v-15.751h16.268V771.867z M1217.621,780.386h-9.045v-7.232h-5.157v-5.419h14.201V780.386z"/>
	<path opacity="0.5" fill="#1AD66B" stroke="#19490B" stroke-miterlimit="10" enable-background="new    " d="M1143.12,697.35v23.13
		h5.01v10.03h-5.01v20.34h66.03v-53.5H1143.12z M1169.59,738.59h-10.31V728h5.01v-5.85h-5.01v-10.03h10.31V738.59z M1197.45,738.03
		h-7.24v-6.4h-3.63v6.68h-6.68v-26.75h4.18v5.58h9.75v-5.86h3.62V738.03z"/>
	<path opacity="0.5" fill="#1AD66B" stroke="#19490B" stroke-miterlimit="10" enable-background="new    " d="M1165.665,627.29
		v-11.294h32.877v-5.521h10.541v5.772h31.873v11.043h-5.27v4.266h-7.278v-4.266h-16.564v37.143h16.815v-5.521h7.027v5.019h5.27
		v11.544h-75.29V663.68h4.266v-4.517h7.278v5.772h17.568V627.29h-17.568v4.768h-6.525v-4.768H1165.665z M1176.708,656.402v-7.78
		h13.301v7.78H1176.708z"/>
	
		<rect x="1175.785" y="638.126" opacity="0.5" fill="#1AD66B" stroke="#19490B" stroke-miterlimit="10" enable-background="new    " width="12.771" height="6.506"/>
	<polygon opacity="0.5" fill="#1AD66B" stroke="#19490B" stroke-miterlimit="10" enable-background="new    " points="
		1234.814,472.28 1314.657,472.28 1314.657,483.874 1285.407,483.874 1285.671,488.09 1289.623,488.09 1289.623,495.732 
		1285.934,495.995 1285.934,498.894 1295.948,498.894 1295.684,512.596 1234.814,512.596 1234.55,498.894 1243.773,499.157 
		1243.773,495.732 1240.611,495.468 1240.875,487.563 1244.3,487.563 1244.3,483.874 1234.814,484.138 	"/>
	<polygon opacity="0.5" fill="#1AD66B" stroke="#19490B" stroke-miterlimit="10" enable-background="new    " points="
		1276.048,434.255 1276.048,439.465 1292.669,439.465 1292.669,419.619 1270.59,419.619 1270.59,406.719 1352.454,406.719 
		1352.454,419.123 1307.057,419.123 1307.057,438.969 1324.67,438.969 1324.67,434.007 1329.632,434.007 1329.632,451.372 
		1270.59,451.372 1270.59,434.255 	"/>
	<polyline opacity="0.5" fill="#1AD66B" stroke="#19490B" stroke-miterlimit="10" enable-background="new    " points="
		1437.376,726.423 1408.306,702.329 1418.782,688.71 1415.639,686.091 1421.924,678.235 1425.329,681.115 1435.019,668.283 
		1463.565,692.115 1437.114,726.423 	"/>
	<polygon opacity="0.5" fill="#1AD66B" stroke="#19490B" stroke-miterlimit="10" enable-background="new    " points="
		1488.729,737.129 1519.874,705.984 1521.807,709.206 1523.096,707.917 1536.413,721.234 1514.934,741.21 1521.163,747.224 
		1512.141,755.601 1509.134,753.239 1506.342,756.89 	"/>
	<polygon opacity="0.5" fill="#1AD66B" stroke="#19490B" stroke-miterlimit="10" enable-background="new    " points="
		1572.981,714.419 1600.167,729.4 1593.867,742.572 1578.669,735.182 1561.413,771.781 1544.613,763.19 1561.962,726.605 
		1566.376,728.254 	"/>
	
		<line opacity="0.5" fill="#1AD66B" stroke="#19490B" stroke-miterlimit="10" enable-background="new    " x1="1614.862" y1="740.331" x2="1616.603" y2="741.077"/>
	<path opacity="0.5" fill="#1AD66B" stroke="#19490B" stroke-miterlimit="10" enable-background="new    " d="M1650.922,762.464
		c0,0-3.482-4.227-3.73-5.72c-0.249-1.492-0.743-5.467,1.492-7.461c3.485-3.108,14.502-4.052,20.144-5.969
		c1.215-0.413,4.974,8.215,4.974,9.948c0,2.477-0.194,11.391-1.99,12.683c-1.139,0.82,1.243,0.497,1.243,0.497l-5.969,15.17
		l-2.487-0.995l-3.233,7.461l6.964,3.979l3.233,7.461h-3.046c0,0-0.62-3.967-1.695-4.995s-3.366-2.393-4.387-2.549
		s-3.711-0.126-4.683,0.339s-2.272,0.935-3.043,2.391c-0.771,1.456-1.052,2.078-1.052,2.078l-2.984-1.243
		c0,0,1.387-3.639,1.495-3.818c0.108-0.18,2.779-2.164,3.789-2.467c1.01-0.303,1.43-0.429,1.43-0.429l3.482-10.196l-3.233-1.244
		l0.995-2.238l-12.186-4.974l2.238-5.471L1650.922,762.464z"/>
	<path opacity="0.5" fill="#1AD66B" stroke="#19490B" stroke-miterlimit="10" enable-background="new    " d="M1653.657,796.783
		c0,0-0.293,1.9-0.302,2.228c-0.009,0.328,0,2.584,0.151,3.038c0.151,0.454,0.493,1.293,0.691,1.492
		c0.198,0.198,0.454,0.454,0.454,0.454l0.497,1.243l1.99,1.492l-0.249,8.207l13.927,0.249v3.482h12.186v7.709l9.699,0.249
		l0.249-21.885h-25.864c0,0,0.616-1.394,0.716-1.671c0.099-0.277,0.505-1.712,0.561-2.058c0.056-0.346,0.154-1.493,0.154-1.493
		s-0.4-3.287-0.664-3.617c-0.265-0.331-2.571-2.922-2.919-2.957s-1.635-0.898-2.499-0.97c-0.864-0.071-2.281-0.14-3.168,0
		s-1.812,0.365-2.464,0.791s-1.26,0.684-1.677,1.312c-0.417,0.628-0.652,0.827-0.913,1.463
		C1653.951,796.176,1653.657,796.783,1653.657,796.783z"/>
	<polygon opacity="0.5" fill="#1AD66B" stroke="#19490B" stroke-miterlimit="10" enable-background="new    " points="
		1699.104,749.563 1720.48,762.388 1719.355,764.639 1724.081,764.639 1724.081,760.138 1724.755,758.338 1726.556,757.663 
		1728.131,758.338 1728.806,760.138 1728.581,763.514 1755.357,764.414 1758.732,762.613 1756.707,758.563 1756.482,756.763 
		1757.607,755.188 1759.407,754.963 1760.757,756.088 1762.783,760.138 1788.659,745.288 1792.934,752.938 1769.983,765.989 
		1768.858,764.189 1765.933,765.989 1767.958,770.039 1768.183,771.839 1767.058,773.189 1765.258,773.414 1763.908,772.289 
		1761.883,768.464 1759.407,769.589 1759.182,775.439 1732.406,774.539 1732.631,771.389 1728.581,771.164 1728.581,775.889 
		1727.681,777.464 1726.106,778.139 1724.531,777.464 1723.855,775.664 1723.855,772.289 1719.13,769.589 1717.33,772.964 
		1693.929,758.788 	"/>
	<polygon opacity="0.5" fill="#1AD66B" stroke="#19490B" stroke-miterlimit="10" enable-background="new    " points="
		1729.401,771.694 1729.091,781.322 1736.545,785.05 1736.545,788.466 1732.507,788.466 1731.886,792.815 1734.992,793.125 
		1734.681,797.474 1731.886,797.474 1731.575,806.17 1737.787,806.481 1738.098,803.064 1763.256,803.996 1763.256,807.413 
		1770.711,807.723 1771.021,800.269 1767.605,800.269 1767.916,794.057 1770.711,794.057 1770.4,787.845 1764.499,787.224 
		1764.499,789.398 1739.34,788.466 1739.651,784.118 1732.507,779.148 1732.507,771.694 	"/>
	<polygon opacity="0.5" fill="#1AD66B" stroke="#19490B" stroke-miterlimit="10" enable-background="new    " points="
		1716.843,838.874 1716.843,831.802 1719.495,831.802 1719.495,812.796 1738.28,812.796 1738.28,809.26 1755.738,809.26 
		1755.738,814.785 1771.65,814.785 1771.65,834.454 1774.302,834.454 1774.302,840.421 1760.158,840.421 1760.158,836.443 
		1757.285,836.443 1757.285,833.128 1752.644,833.128 1752.644,837.769 1739.164,837.769 1739.164,833.349 1733.197,833.349 
		1733.197,835.117 1728.998,835.117 1728.998,838.874 	"/>
	<polygon opacity="0.5" fill="#1AD66B" stroke="#19490B" stroke-miterlimit="10" enable-background="new    " points="
		1687.045,557.818 1729.027,604.71 1717.734,615.758 1675.506,568.866 	"/>
	<polygon opacity="0.5" fill="#1AD66B" stroke="#19490B" stroke-miterlimit="10" enable-background="new    " points="
		1726.432,623.475 1736.002,614.133 1757.647,638.513 1747.85,648.31 	"/>
	<polygon opacity="0.5" fill="#1AD66B" stroke="#19490B" stroke-miterlimit="10" enable-background="new    " points="
		1486.825,487.922 1489.259,486.029 1485.743,480.08 1493.315,475.483 1497.912,483.596 1501.157,481.432 1498.993,477.917 
		1502.779,475.483 1508.728,485.759 1504.943,488.193 1502.509,484.136 1499.534,486.029 1507.917,500.632 1511.162,498.468 
		1509.269,494.953 1513.055,492.79 1518.734,502.525 1515.218,504.958 1512.785,500.632 1509.269,503.065 1513.325,509.826 
		1506.565,514.152 1503.591,509.015 1500.886,510.637 1496.56,503.336 1498.993,501.984 1493.585,492.519 1490.611,494.412 	"/>
	<polygon opacity="0.5" fill="#1AD66B" stroke="#19490B" stroke-miterlimit="10" enable-background="new    " points="
		1471.017,401.638 1473.413,401.638 1473.413,399.241 1481.201,399.241 1481.201,401.837 1483.398,401.837 1483.398,406.031 
		1478.405,406.031 1478.405,408.827 1481.201,408.827 1481.201,413.02 1478.605,413.02 1478.605,416.015 1481.001,416.015 
		1481.001,420.009 1478.206,420.009 1478.206,423.004 1482.998,423.004 1482.998,427.398 1480.602,427.398 1480.602,429.994 
		1472.614,429.994 1472.614,426.998 1470.617,426.998 1470.617,422.805 1472.614,422.805 1472.614,406.031 1471.017,406.031 	"/>
	<polygon opacity="0.5" fill="#1AD66B" stroke="#19490B" stroke-miterlimit="10" enable-background="new    " points="
		1485.67,386.356 1482.608,385.846 1482.098,388.908 1472.403,387.377 1472.913,384.315 1470.617,383.805 1471.383,378.192 
		1474.189,378.447 1476.23,363.65 1474.699,363.395 1475.465,357.272 1477.761,357.782 1478.271,354.72 1487.201,356.251 
		1486.945,359.568 1490.007,360.078 1489.242,365.691 1481.843,364.67 1479.547,380.233 1486.435,380.999 	"/>
	<polygon opacity="0.5" fill="#1AD66B" stroke="#19490B" stroke-miterlimit="10" enable-background="new    " points="
		1510.001,377.008 1508.265,375.658 1510.194,372.765 1512.508,374.501 1514.823,370.836 1515.98,371.801 1518.102,368.714 
		1521.188,370.643 1519.452,373.151 1521.381,374.501 1517.523,380.288 1515.787,378.937 1509.036,389.16 1510.772,390.51 
		1506.915,396.49 1504.986,395.14 1503.25,397.84 1500.164,395.718 1501.707,393.404 1500.164,392.246 1502.092,389.353 
		1500.549,388.196 1502.092,385.495 1504.407,387.038 1506.336,384.145 1502.092,381.252 1499.971,384.338 1497.849,382.795 
		1496.306,384.917 1493.798,382.988 1495.149,380.866 1492.641,379.13 1494.377,376.43 1492.834,375.08 1495.534,370.836 
		1497.463,372.186 1499.199,369.486 1501.9,371.222 1503.25,369.1 1505.757,371.029 1504.407,372.958 1506.529,374.308 
		1504.793,377.008 1508.265,379.709 	"/>
</g>
<g id="School_Text_1_">
	<g>
		
			<text transform="matrix(1 0 0 1 1153.6218 766.8186)" fill="none" stroke="#23B785" stroke-width="2" stroke-miterlimit="10" font-family="'Tahoma-Bold'" font-size="12">Computer Sciences</text>
		
			<text transform="matrix(1 0 0 1 1142.2958 781.2186)" fill="none" stroke="#23B785" stroke-width="2" stroke-miterlimit="10" font-family="'Tahoma-Bold'" font-size="12">Mathematical Sciences</text>
	</g>
	<g>
		<text transform="matrix(1 0 0 1 1153.6218 766.8186)" fill="#FFFFFF" font-family="'Tahoma-Bold'" font-size="12">Computer Sciences</text>
		<text transform="matrix(1 0 0 1 1142.2958 781.2186)" fill="#FFFFFF" font-family="'Tahoma-Bold'" font-size="12">Mathematical Sciences</text>
	</g>
	<g>
		<text transform="matrix(1 0 0 1 1153.6218 766.8186)" fill="#FFFFFF" font-family="'Tahoma-Bold'" font-size="12">Computer Sciences</text>
		<text transform="matrix(1 0 0 1 1142.2958 781.2186)" fill="#FFFFFF" font-family="'Tahoma-Bold'" font-size="12">Mathematical Sciences</text>
	</g>
	<g enable-background="new    ">
		
			<text transform="matrix(1 0 0 1 1130.9438 725.1882)" fill="none" stroke="#23B785" stroke-width="2" font-family="'Tahoma-Bold'" font-size="12">Chemical Sciences</text>
		<text transform="matrix(1 0 0 1 1130.9438 725.1882)" fill="#FFFFFF" font-family="'Tahoma-Bold'" font-size="12">Chemical Sciences</text>
	</g>
	<g enable-background="new    ">
		
			<text transform="matrix(1 0 0 1 1165.8206 648.6918)" fill="none" stroke="#23B785" stroke-width="2" font-family="'Tahoma-Bold'" font-size="12">Biological Sciences</text>
		<text transform="matrix(1 0 0 1 1165.8206 648.6918)" fill="#FFFFFF" font-family="'Tahoma-Bold'" font-size="12">Biological Sciences</text>
	</g>
	<g enable-background="new    ">
		
			<text transform="matrix(1 0 0 1 1196.8264 497.3586)" fill="none" stroke="#23B785" stroke-width="2" font-family="'Tahoma-Bold'" font-size="12">Industrial Technology</text>
		<text transform="matrix(1 0 0 1 1196.8264 497.3586)" fill="#FFFFFF" font-family="'Tahoma-Bold'" font-size="12">Industrial Technology</text>
	</g>
	<g enable-background="new    ">
		
			<text transform="matrix(1 0 0 1 1270.1421 430.0439)" fill="none" stroke="#23B785" stroke-width="2" font-family="'Tahoma-Bold'" font-size="12">Physics</text>
		<text transform="matrix(1 0 0 1 1270.1421 430.0439)" fill="#FFFFFF" font-family="'Tahoma-Bold'" font-size="12">Physics</text>
	</g>
	<g enable-background="new    ">
		
			<text transform="matrix(1 0 0 1 1483.1838 385.3117)" fill="none" stroke="#23B785" stroke-width="2" font-family="'Tahoma-Bold'" font-size="12">Social Sciences</text>
		<text transform="matrix(1 0 0 1 1483.1838 385.3117)" fill="#FFFFFF" font-family="'Tahoma-Bold'" font-size="12">Social Sciences</text>
	</g>
	<g enable-background="new    ">
		
			<text transform="matrix(1 0 0 1 1467.7478 497.3586)" fill="none" stroke="#23B785" stroke-width="2" font-family="'Tahoma-Bold'" font-size="12">Communication</text>
		<text transform="matrix(1 0 0 1 1467.7478 497.3586)" fill="#FFFFFF" font-family="'Tahoma-Bold'" font-size="12">Communication</text>
	</g>
	<g enable-background="new    ">
		
			<text transform="matrix(1 0 0 1 1501.3721 617.1882)" fill="none" stroke="#23B785" stroke-width="2" font-family="'Tahoma-Bold'" font-size="12">Arts</text>
		<text transform="matrix(1 0 0 1 1501.3721 617.1882)" fill="#FFFFFF" font-family="'Tahoma-Bold'" font-size="12">Arts</text>
	</g>
	<g enable-background="new    ">
		
			<text transform="matrix(1 0 0 1 1375.2307 704.5216)" fill="none" stroke="#23B785" stroke-width="2" font-family="'Tahoma-Bold'" font-size="12">Distance Education</text>
		<text transform="matrix(1 0 0 1 1375.2307 704.5216)" fill="#FFFFFF" font-family="'Tahoma-Bold'" font-size="12">Distance Education</text>
	</g>
	<g enable-background="new    ">
		
			<text transform="matrix(1 0 0 1 1474.3223 725.1882)" fill="none" stroke="#23B785" stroke-width="2" font-family="'Tahoma-Bold'" font-size="12">Management</text>
		<text transform="matrix(1 0 0 1 1474.3223 725.1882)" fill="#FFFFFF" font-family="'Tahoma-Bold'" font-size="12">Management</text>
	</g>
	<g enable-background="new    ">
		
			<text transform="matrix(1 0 0 1 1507.4314 755.8552)" fill="none" stroke="#23B785" stroke-width="2" font-family="'Tahoma-Bold'" font-size="12">Educational Studies</text>
		<text transform="matrix(1 0 0 1 1507.4314 755.8552)" fill="#FFFFFF" font-family="'Tahoma-Bold'" font-size="12">Educational Studies</text>
	</g>
	<g enable-background="new    ">
		
			<text transform="matrix(1 0 0 1 876.3889 590.1379)" fill="none" stroke="#23B785" stroke-width="2" font-family="'Tahoma-Bold'" font-size="12">Pharmaceutical Sciences</text>
		<text transform="matrix(1 0 0 1 876.3889 590.1379)" fill="#FFFFFF" font-family="'Tahoma-Bold'" font-size="12">Pharmaceutical Sciences</text>
	</g>
	<g enable-background="new    ">
		
			<text transform="matrix(1 0 0 1 1432.333 404.7172)" fill="none" stroke="#23B785" stroke-width="2" font-family="'Tahoma-Bold'" font-size="12">Humanities</text>
		<text transform="matrix(1 0 0 1 1432.333 404.7172)" fill="#FFFFFF" font-family="'Tahoma-Bold'" font-size="12">Humanities</text>
	</g>
	<g enable-background="new    ">
		
			<text transform="matrix(1 0 0 1 1775.1443 801.9944)" fill="none" stroke="#23B785" stroke-width="2" font-family="'Tahoma-Bold'" font-size="12">HBP</text>
		<text transform="matrix(1 0 0 1 1775.1443 801.9944)" fill="#FFFFFF" font-family="'Tahoma-Bold'" font-size="12">HBP</text>
	</g>
	<g enable-background="new    ">
		
			<text transform="matrix(1 0 0 1 1649.4978 629.7126)" fill="none" stroke="#23B785" stroke-width="2" font-family="'Tahoma-Bold'" font-size="12">Languages, Literacies, and Translation</text>
		<text transform="matrix(1 0 0 1 1649.4978 629.7126)" fill="#FFFFFF" font-family="'Tahoma-Bold'" font-size="12">Languages, Literacies, and Translation</text>
	</g>
</g>
</svg>
