<?xml version="1.0" encoding="utf-8"?>
<!-- Generator: Adobe Illustrator 17.0.0, SVG Export Plug-In . SVG Version: 6.00 Build 0)  -->
<!DOCTYPE svg PUBLIC "-//W3C//DTD SVG 1.1//EN" "http://www.w3.org/Graphics/SVG/1.1/DTD/svg11.dtd">
<svg version="1.1" xmlns="http://www.w3.org/2000/svg" xmlns:xlink="http://www.w3.org/1999/xlink" x="0px" y="0px" width="2124px"
	 height="1083px" viewBox="0 0 2124 1083" enable-background="new 0 0 2124 1083" xml:space="preserve">
<g id="School_1_">
	<polygon opacity="0.5" fill="#1AD66B" stroke="#19490B" stroke-miterlimit="10" enable-background="new    " points="
		1171.926,762.832 1172.096,792.745 1186.947,792.891 1186.947,805.05 1210.749,805.05 1209.846,792.436 1231.662,791.49 
		1231.494,763.858 	"/>
	
		<rect x="1143.133" y="698.691" opacity="0.5" fill="#1AD66B" stroke="#19490B" stroke-miterlimit="10" enable-background="new    " width="55.056" height="53.985"/>
	<polygon opacity="0.5" fill="#1AD66B" stroke="#19490B" stroke-miterlimit="10" enable-background="new    " points="
		1439.353,678.277 1415.141,710.249 1439.353,724.483 1462.648,690.645 	"/>
	<polygon opacity="0.5" fill="#1AD66B" stroke="#19490B" stroke-miterlimit="10" enable-background="new    " points="
		1498.74,728.016 1523.741,709.739 1534.229,718.499 1509.392,743.1 	"/>
	<polygon opacity="0.5" fill="#1AD66B" stroke="#19490B" stroke-miterlimit="10" enable-background="new    " points="
		1603.767,728.1 1598.153,742.915 1585.136,739.965 1563.824,771.541 1546.232,764.195 1576.23,721.445 	"/>
	
		<circle opacity="0.5" fill="#1AD66B" stroke="#19490B" stroke-miterlimit="10" enable-background="new    " cx="1513.333" cy="614" r="20.667"/>
	<polygon opacity="0.5" fill="#1AD66B" stroke="#19490B" stroke-miterlimit="10" enable-background="new    " points="
		1486.103,482.265 1497.647,475.306 1514.667,501.22 1501.763,510.165 	"/>
	
		<circle opacity="0.5" fill="#1AD66B" stroke="#19490B" stroke-miterlimit="10" enable-background="new    " cx="944.297" cy="592.284" r="32.323"/>
	<polygon opacity="0.5" fill="#1AD66B" stroke="#19490B" stroke-miterlimit="10" enable-background="new    " points="
		1174.162,638.952 1174.162,648.21 1166.667,648.21 1166.667,656.366 1170.414,656.366 1170.414,661.657 1164.683,661.657 
		1164.683,675.324 1247.789,675.324 1247.789,619.994 1165.785,619.994 1165.565,631.677 1198.19,631.898 1198.19,661.436 
		1189.421,661.436 1189.421,649.092 1179.232,648.651 1179.232,639.172 	"/>
	<polygon opacity="0.5" fill="#1AD66B" stroke="#19490B" stroke-miterlimit="10" enable-background="new    " points="
		1498.628,372.705 1494.317,380.969 1502.496,384.737 1498.14,395.148 1505.741,397.975 1519.705,373.477 1509.613,369.546 
		1506.894,375.708 	"/>
	<polygon opacity="0.5" fill="#1AD66B" stroke="#19490B" stroke-miterlimit="10" enable-background="new    " points="
		1476.443,358.798 1471.18,378.631 1469.301,401.201 1471.18,428.034 1484.714,428.034 1484.714,401.201 1485.542,383.761 
		1492.608,361.729 	"/>
	<polygon opacity="0.5" fill="#1AD66B" stroke="#19490B" stroke-miterlimit="10" enable-background="new    " points="
		1268.985,404.732 1268.985,421.234 1293.127,421.234 1293.127,440.487 1274.639,440.487 1274.661,434.419 1270.748,434.224 
		1270.59,451.335 1351.191,451.335 1351.191,423.373 1352.005,415.428 1352.005,406.719 1331.785,406.719 1331.785,415.428 
		1329.493,423.373 1329.493,441.251 1300.462,441.251 1300.59,422.482 1322.159,422.304 1322.159,406.871 	"/>
	<polygon opacity="0.5" fill="#1AD66B" stroke="#19490B" stroke-miterlimit="10" enable-background="new    " points="
		1235.217,472.116 1235.217,485.868 1243.621,485.868 1243.621,498.092 1233.078,498.092 1233.078,512.76 1291.599,512.76 
		1291.599,499.772 1281.973,499.772 1281.973,489.993 1308.102,489.993 1308.102,474.102 	"/>
	<polygon opacity="0.5" fill="#1AD66B" stroke="#19490B" stroke-miterlimit="10" enable-background="new    " points="
		1678.613,569.191 1701.857,596.379 1726.213,620.726 1751.076,650.375 1761.858,638.358 1712.638,583.722 1690.607,560.753 	"/>
	<polygon opacity="0.4" fill="#1AD66B" stroke="#19490B" stroke-miterlimit="10" points="1699.164,751.676 1726.213,766.538 
		1731.323,765.044 1759.822,764.22 1791.825,741.024 1797.806,749.621 1770.394,769.807 1759.822,771.694 1757.187,785.966 
		1757.187,795.521 1775.144,811.006 1775.144,828.798 1711.719,828.798 1692.95,830.445 1681.736,824.185 1681.736,811.995 
		1676.3,811.995 1667.074,825.339 1645.493,813.807 1648.459,809.688 1641.045,803.099 1646.152,795.85 1657.849,808.206 
		1657.849,800.463 1647.964,789.59 1657.849,778.223 1657.849,773.775 1651.754,773.775 1651.754,767.515 1648.129,767.515 
		1648.129,760.102 1648.788,750.712 1648.953,746.176 1670.673,742.805 1676.846,757.467 1668,770.5 1668.392,774.507 
		1691.25,791.25 1674.57,791.649 1667.239,798.98 1692.5,799.75 1712.5,811.25 1731.323,795.521 1731.323,785.966 1732.476,773.61 
		1719.714,774.507 1692.95,758.1 	"/>
</g>
<g id="School_Text_1_">
	<g>
		
			<text transform="matrix(1 0 0 1 1153.6218 766.8186)" fill="none" stroke="#23B785" stroke-width="2" stroke-miterlimit="10" font-family="'Tahoma-Bold'" font-size="12">Computer Sciences</text>
		
			<text transform="matrix(1 0 0 1 1142.2958 781.2186)" fill="none" stroke="#23B785" stroke-width="2" stroke-miterlimit="10" font-family="'Tahoma-Bold'" font-size="12">Mathematical Sciences</text>
	</g>
	<g>
		<text transform="matrix(1 0 0 1 1153.6218 766.8186)" fill="#FFFFFF" font-family="'Tahoma-Bold'" font-size="12">Computer Sciences</text>
		<text transform="matrix(1 0 0 1 1142.2958 781.2186)" fill="#FFFFFF" font-family="'Tahoma-Bold'" font-size="12">Mathematical Sciences</text>
	</g>
	<g>
		<text transform="matrix(1 0 0 1 1153.6218 766.8186)" fill="#FFFFFF" font-family="'Tahoma-Bold'" font-size="12">Computer Sciences</text>
		<text transform="matrix(1 0 0 1 1142.2958 781.2186)" fill="#FFFFFF" font-family="'Tahoma-Bold'" font-size="12">Mathematical Sciences</text>
	</g>
	<g enable-background="new    ">
		
			<text transform="matrix(1 0 0 1 1130.9438 725.1882)" fill="none" stroke="#23B785" stroke-width="2" font-family="'Tahoma-Bold'" font-size="12">Chemical Sciences</text>
		<text transform="matrix(1 0 0 1 1130.9438 725.1882)" fill="#FFFFFF" font-family="'Tahoma-Bold'" font-size="12">Chemical Sciences</text>
	</g>
	<g enable-background="new    ">
		
			<text transform="matrix(1 0 0 1 1165.8206 648.6918)" fill="none" stroke="#23B785" stroke-width="2" font-family="'Tahoma-Bold'" font-size="12">Biological Sciences</text>
		<text transform="matrix(1 0 0 1 1165.8206 648.6918)" fill="#FFFFFF" font-family="'Tahoma-Bold'" font-size="12">Biological Sciences</text>
	</g>
	<g enable-background="new    ">
		
			<text transform="matrix(1 0 0 1 1196.8264 497.3586)" fill="none" stroke="#23B785" stroke-width="2" font-family="'Tahoma-Bold'" font-size="12">Industrial Technology</text>
		<text transform="matrix(1 0 0 1 1196.8264 497.3586)" fill="#FFFFFF" font-family="'Tahoma-Bold'" font-size="12">Industrial Technology</text>
	</g>
	<g enable-background="new    ">
		
			<text transform="matrix(1 0 0 1 1270.1421 430.0439)" fill="none" stroke="#23B785" stroke-width="2" font-family="'Tahoma-Bold'" font-size="12">Physics</text>
		<text transform="matrix(1 0 0 1 1270.1421 430.0439)" fill="#FFFFFF" font-family="'Tahoma-Bold'" font-size="12">Physics</text>
	</g>
	<g enable-background="new    ">
		
			<text transform="matrix(1 0 0 1 1483.1838 385.3117)" fill="none" stroke="#23B785" stroke-width="2" font-family="'Tahoma-Bold'" font-size="12">Social Sciences</text>
		<text transform="matrix(1 0 0 1 1483.1838 385.3117)" fill="#FFFFFF" font-family="'Tahoma-Bold'" font-size="12">Social Sciences</text>
	</g>
	<g enable-background="new    ">
		
			<text transform="matrix(1 0 0 1 1467.7478 497.3586)" fill="none" stroke="#23B785" stroke-width="2" font-family="'Tahoma-Bold'" font-size="12">Communication</text>
		<text transform="matrix(1 0 0 1 1467.7478 497.3586)" fill="#FFFFFF" font-family="'Tahoma-Bold'" font-size="12">Communication</text>
	</g>
	<g enable-background="new    ">
		
			<text transform="matrix(1 0 0 1 1501.3721 617.1882)" fill="none" stroke="#23B785" stroke-width="2" font-family="'Tahoma-Bold'" font-size="12">Arts</text>
		<text transform="matrix(1 0 0 1 1501.3721 617.1882)" fill="#FFFFFF" font-family="'Tahoma-Bold'" font-size="12">Arts</text>
	</g>
	<g enable-background="new    ">
		
			<text transform="matrix(1 0 0 1 1375.2307 704.5216)" fill="none" stroke="#23B785" stroke-width="2" font-family="'Tahoma-Bold'" font-size="12">Distance Education</text>
		<text transform="matrix(1 0 0 1 1375.2307 704.5216)" fill="#FFFFFF" font-family="'Tahoma-Bold'" font-size="12">Distance Education</text>
	</g>
	<g enable-background="new    ">
		
			<text transform="matrix(1 0 0 1 1474.3223 725.1882)" fill="none" stroke="#23B785" stroke-width="2" font-family="'Tahoma-Bold'" font-size="12">Management</text>
		<text transform="matrix(1 0 0 1 1474.3223 725.1882)" fill="#FFFFFF" font-family="'Tahoma-Bold'" font-size="12">Management</text>
	</g>
	<g enable-background="new    ">
		
			<text transform="matrix(1 0 0 1 1507.4314 755.8552)" fill="none" stroke="#23B785" stroke-width="2" font-family="'Tahoma-Bold'" font-size="12">Educational Studies</text>
		<text transform="matrix(1 0 0 1 1507.4314 755.8552)" fill="#FFFFFF" font-family="'Tahoma-Bold'" font-size="12">Educational Studies</text>
	</g>
	<g enable-background="new    ">
		
			<text transform="matrix(1 0 0 1 876.3889 590.1379)" fill="none" stroke="#23B785" stroke-width="2" font-family="'Tahoma-Bold'" font-size="12">Pharmaceutical Sciences</text>
		<text transform="matrix(1 0 0 1 876.3889 590.1379)" fill="#FFFFFF" font-family="'Tahoma-Bold'" font-size="12">Pharmaceutical Sciences</text>
	</g>
	<g enable-background="new    ">
		
			<text transform="matrix(1 0 0 1 1432.333 404.7172)" fill="none" stroke="#23B785" stroke-width="2" font-family="'Tahoma-Bold'" font-size="12">Humanities</text>
		<text transform="matrix(1 0 0 1 1432.333 404.7172)" fill="#FFFFFF" font-family="'Tahoma-Bold'" font-size="12">Humanities</text>
	</g>
	<g enable-background="new    ">
		
			<text transform="matrix(1 0 0 1 1700.9609 794.7283)" fill="none" stroke="#23B785" stroke-width="2" font-family="'Tahoma-Bold'" font-size="12">HBP</text>
		<text transform="matrix(1 0 0 1 1700.9609 794.7283)" fill="#FFFFFF" font-family="'Tahoma-Bold'" font-size="12">HBP</text>
	</g>
	<g enable-background="new    ">
		
			<text transform="matrix(1 0 0 1 1649.4978 629.7126)" fill="none" stroke="#23B785" stroke-width="2" font-family="'Tahoma-Bold'" font-size="12">Languages, Literacies, and Translation</text>
		<text transform="matrix(1 0 0 1 1649.4978 629.7126)" fill="#FFFFFF" font-family="'Tahoma-Bold'" font-size="12">Languages, Literacies, and Translation</text>
	</g>
</g>
</svg>
