<?xml version="1.0" encoding="utf-8"?>
<!-- Generator: Adobe Illustrator 17.0.0, SVG Export Plug-In . SVG Version: 6.00 Build 0)  -->
<!DOCTYPE svg PUBLIC "-//W3C//DTD SVG 1.1//EN" "http://www.w3.org/Graphics/SVG/1.1/DTD/svg11.dtd">
<svg version="1.1" xmlns="http://www.w3.org/2000/svg" xmlns:xlink="http://www.w3.org/1999/xlink" x="0px" y="0px" width="2124px"
	 height="1083px" viewBox="0 0 2124 1083" enable-background="new 0 0 2124 1083" xml:space="preserve">
<g id="TRoom">
	<polygon opacity="0.5" fill="#FFE966" stroke="#1BC143" stroke-miterlimit="10" points="1258.25,563.429 1296.795,531.707 
		1307.847,540.386 1327.354,533.846 1334.536,551.418 1311.044,561.55 1277.619,589.617 	"/>
	<polygon opacity="0.5" fill="#FFE966" stroke="#1BC143" stroke-miterlimit="10" points="1209.853,570.059 1209.547,581.825 
		1220.854,581.672 1220.854,587.173 1208.229,588.762 1193.809,596.646 1200.379,606.58 1220.119,598.24 1247.789,598.021 
		1263.647,606.098 1271.583,597.192 1260.381,591.104 1248.904,587.965 1248.667,581.667 1256.762,581.519 1256.917,570.25 	"/>
	<polygon opacity="0.5" fill="#FFE966" stroke="#1BC143" stroke-miterlimit="10" points="1540.869,690.645 1526.542,702.787 
		1543.885,721.08 1543.885,721.08 1555.268,709.372 1555.268,709.372 1560.826,701.025 	"/>
</g>
<g id="TRoom_Text">
	<g>
		<rect x="1169.989" y="562.12" fill="none" width="100.833" height="42"/>
		<text transform="matrix(1 0 0 1 1181.9591 572.4817)"><tspan x="0" y="0" fill="none" stroke="#726D0F" stroke-width="2" font-family="'Tahoma-Bold'" font-size="12">Bilik Tutorial</tspan><tspan x="12.938" y="14.4" fill="none" stroke="#726D0F" stroke-width="2" font-family="'Tahoma-Bold'" font-size="12">141-150</tspan></text>
		<rect x="1249.082" y="567.883" fill="none" width="100.833" height="42"/>
		<text transform="matrix(1 0 0 1 1261.0515 578.2452)"><tspan x="0" y="0" fill="none" stroke="#726D0F" stroke-width="2" font-family="'Tahoma-Bold'" font-size="12">Bilik Tutorial</tspan><tspan x="12.938" y="14.4" fill="none" stroke="#726D0F" stroke-width="2" font-family="'Tahoma-Bold'" font-size="12">101-140</tspan></text>
		<rect x="1497.688" y="679.08" fill="none" width="100.833" height="42"/>
		<text transform="matrix(1 0 0 1 1509.658 689.4424)"><tspan x="0" y="0" fill="none" stroke="#726D0F" stroke-width="2" font-family="'Tahoma-Bold'" font-size="12">Bilik Tutorial</tspan><tspan x="12.938" y="14.4" fill="none" stroke="#726D0F" stroke-width="2" font-family="'Tahoma-Bold'" font-size="12">151-162</tspan></text>
	</g>
	<g>
		<rect x="1169.989" y="562.12" fill="none" width="100.833" height="42"/>
		<text transform="matrix(1 0 0 1 1181.9591 572.4817)"><tspan x="0" y="0" fill="#FFFFFF" font-family="'Tahoma-Bold'" font-size="12">Bilik Tutorial</tspan><tspan x="12.938" y="14.4" fill="#FFFFFF" font-family="'Tahoma-Bold'" font-size="12">141-150</tspan></text>
		<rect x="1249.082" y="567.883" fill="none" width="100.833" height="42"/>
		<text transform="matrix(1 0 0 1 1261.0515 578.2452)"><tspan x="0" y="0" fill="#FFFFFF" font-family="'Tahoma-Bold'" font-size="12">Bilik Tutorial</tspan><tspan x="12.938" y="14.4" fill="#FFFFFF" font-family="'Tahoma-Bold'" font-size="12">101-140</tspan></text>
		<rect x="1497.688" y="679.08" fill="none" width="100.833" height="42"/>
		<text transform="matrix(1 0 0 1 1509.658 689.4424)"><tspan x="0" y="0" fill="#FFFFFF" font-family="'Tahoma-Bold'" font-size="12">Bilik Tutorial</tspan><tspan x="12.938" y="14.4" fill="#FFFFFF" font-family="'Tahoma-Bold'" font-size="12">151-162</tspan></text>
	</g>
</g>
</svg>
