<?xml version="1.0" encoding="utf-8"?>
<!-- Generator: Adobe Illustrator 17.0.0, SVG Export Plug-In . SVG Version: 6.00 Build 0)  -->
<!DOCTYPE svg PUBLIC "-//W3C//DTD SVG 1.1//EN" "http://www.w3.org/Graphics/SVG/1.1/DTD/svg11.dtd">
<svg version="1.1" id="Bus_Route_Y" xmlns="http://www.w3.org/2000/svg" xmlns:xlink="http://www.w3.org/1999/xlink" x="0px"
	 y="0px" width="2124px" height="1083px" viewBox="0 0 2124 1083" enable-background="new 0 0 2124 1083" xml:space="preserve">
<path opacity="0.5" fill="none" stroke="#C5E53E" stroke-width="6" stroke-linejoin="round" stroke-miterlimit="10" enable-background="new    " d="
	M1488.489,546.887c-0.902,1.181-7.63,6.906-7.63,6.906c-1.514,2.182-20.186,19.364-20.186,19.364l-13.994,10.353
	c-11.682,9.938-24.142,30.719-27.057,35.537c-2.504,4.138-12.788,26.454-12.788,26.454c-5.226,9.452-36.529,69.165-41.903,77.888
	c-2.689,4.366-7.885,15.003-11.707,18.421c-2.663,2.381-12.632,7.163-15.907,8.588c-7.325,3.19-31.938,11.293-31.938,11.293
	s-44.372,16.036-59.546,23.087c-6.398,2.973-18.779,8.809-24.542,12.878c-3,3.301-4.307,2.617-12.681,9.609
	c-2.943,1.659-10.42,8.274-14.359,10.462c-5.235,5.639-13.501,6.701-16.165,6.505c-7.116-0.525-8.077-4.465-12.385-9.129
	c-17.474-21.23-70.727-94.346-70.727-94.346c9-13.969,89.307-176.29,91.881-180.658c0,0,57.393-115.926,58.558-120.928
	c0.125-0.538,1.226-19,1.226-19s129.582-1.702,131.687-0.46c2.404,0,12.586,2.346,25.071,5.802
	c9.175,3.125,39.322,9.505,42.564,12.115c0.678,1.654,6.603,35.897,10.598,45.833c3.69,6.245,11.705,26.45,14.729,29.038
	l23.006,38.84c0.724,0.527-2.483,3.293-3.995,6.987C1488.738,542.143,1490.496,544.258,1488.489,546.887z"/>
</svg>
