<?xml version="1.0" encoding="utf-8"?>
<!-- Generator: Adobe Illustrator 17.0.0, SVG Export Plug-In . SVG Version: 6.00 Build 0)  -->
<svg version="1.2" baseProfile="tiny" id="Layer_19"
	 xmlns="http://www.w3.org/2000/svg" xmlns:xlink="http://www.w3.org/1999/xlink" x="0px" y="0px" width="4248px" height="2166px"
	 viewBox="0 0 2124 1083" xml:space="preserve">
<text transform="matrix(1 0 0 1 62.1263 539.9899)" font-family="'Tahoma-Bold'" font-size="12">M02</text>
<text transform="matrix(1 0 0 1 67.9612 667.9933)" font-family="'Tahoma-Bold'" font-size="12">M01</text>
<text transform="matrix(1 0 0 1 62.1263 599.3401)" font-family="'Tahoma-Bold'" font-size="12">M07</text>
<text transform="matrix(1 0 0 1 115.7381 602.5815)" font-family="'Tahoma-Bold'" font-size="12">M03</text>
<text transform="matrix(1 0 0 1 168.6825 671.9453)" font-family="'Tahoma-Bold'" font-size="12">M04</text>
<text transform="matrix(1 0 0 1 148.7366 545.0546)" font-family="'Tahoma-Bold'" font-size="12">M08</text>
<text transform="matrix(1 0 0 1 255.25 689.7211)" font-family="'Tahoma-Bold'" font-size="12">M05</text>
<text transform="matrix(1 0 0 1 265.4776 641)" font-family="'Tahoma-Bold'" font-size="12">M09</text>
<text transform="matrix(1 0 0 1 335.5302 647.7029)" font-family="'Tahoma-Bold'" font-size="12">M06</text>
<text transform="matrix(1 0 0 1 479.1782 622.9333)" font-family="'Tahoma-Bold'" font-size="12">L18</text>
<text transform="matrix(1 0 0 1 466.1932 575.1184)" font-family="'Tahoma-Bold'" font-size="12">L19</text>
<text transform="matrix(1 0 0 1 503.0911 575.1184)" font-family="'Tahoma-Bold'" font-size="12">L20</text>
<text transform="matrix(1 0 0 1 553.4839 605.3545)" font-family="'Tahoma-Bold'" font-size="12">L17</text>
<text transform="matrix(1 0 0 1 615.7498 605.842)" font-family="'Tahoma-Bold'" font-size="12">L11</text>
<text transform="matrix(1 0 0 1 607.2443 545.0544)" font-family="'Tahoma-Bold'" font-size="12">L12</text>
<text transform="matrix(1 0 0 1 533.0988 525.7346)" font-family="'Tahoma-Bold'" font-size="12">L14</text>
<text transform="matrix(1 0 0 1 562.5308 525.7344)" font-family="'Tahoma-Bold'" font-size="12">L13</text>
<text transform="matrix(1 0 0 1 515.5042 459.4998)" font-family="'Tahoma-Bold'" font-size="12">L15</text>
<text transform="matrix(1 0 0 1 670.0385 569.2037)" font-family="'Tahoma-Bold'" font-size="12">L10</text>
<text transform="matrix(1 0 0 1 651.4664 672.2036)" font-family="'Tahoma-Bold'" font-size="12">L15</text>
<text transform="matrix(1 0 0 1 712.1463 632.7134)" font-family="'Tahoma-Bold'" font-size="12">L07</text>
<text transform="matrix(1 0 0 1 719.8856 713.7236)" font-family="'Tahoma-Bold'" font-size="12">L08</text>
<text transform="matrix(1 0 0 1 503.091 871.0881)" font-family="'Tahoma-Bold'" font-size="12">K14</text>
<text transform="matrix(1 0 0 1 578.558 839.9509)" font-family="'Tahoma-Bold'" font-size="12">K20</text>
<text transform="matrix(1 0 0 1 702.6765 761.2334)" font-family="'Tahoma-Bold'" font-size="12">K05</text>
<text transform="matrix(1 0 0 1 702.6763 781.1295)" font-family="'Tahoma-Bold'" font-size="12">K06</text>
<text transform="matrix(1 0 0 1 702.6763 838.0767)" font-family="'Tahoma-Bold'" font-size="12">K07</text>
<text transform="matrix(1 0 0 1 702.676 857.9727)" font-family="'Tahoma-Bold'" font-size="12">K08</text>
<text transform="matrix(1 0 0 1 801.5655 768.2498)" font-family="'Tahoma-Bold'" font-size="12">K01</text>
<text transform="matrix(1 0 0 1 801.5652 788.1459)" font-family="'Tahoma-Bold'" font-size="12">K02</text>
<text transform="matrix(1 0 0 1 801.5652 845.093)" font-family="'Tahoma-Bold'" font-size="12">K03</text>
<text transform="matrix(1 0 0 1 801.565 864.9891)" font-family="'Tahoma-Bold'" font-size="12">K04</text>
<text transform="matrix(1 0 0 1 801.7869 811.1429)" font-family="'Tahoma-Bold'" font-size="12">K09</text>
<text transform="matrix(1 0 0 1 702.6761 811.1428)" font-family="'Tahoma-Bold'" font-size="12">K10</text>
<text transform="matrix(1 0 0 1 773.4165 652.8821)" font-family="'Tahoma-Bold'" font-size="12">L02</text>
<text transform="matrix(1 0 0 1 801.7869 683.279)" font-family="'Tahoma-Bold'" font-size="12">L04</text>
<text transform="matrix(1 0 0 1 776.4137 713.7244)" font-family="'Tahoma-Bold'" font-size="12">L01</text>
<text transform="matrix(1 0 0 1 849.5905 720.7795)" font-family="'Tahoma-Bold'" font-size="12">L21</text>
<text transform="matrix(1 0 0 1 983.332 510.4982)" font-family="'Tahoma-Bold'" font-size="12">J01</text>
<text transform="matrix(1 0 0 1 983.332 535.7138)" font-family="'Tahoma-Bold'" font-size="12">J02</text>
<text transform="matrix(1 0 0 1 983.332 558.4891)" font-family="'Tahoma-Bold'" font-size="12">J03</text>
<text transform="matrix(1 0 0 1 987.728 585.4184)" font-family="'Tahoma-Bold'" font-size="12">J04</text>
<text transform="matrix(1 0 0 1 987.7281 605.8424)" font-family="'Tahoma-Bold'" font-size="12">J05</text>
<text transform="matrix(1 0 0 1 987.7281 632.7142)" font-family="'Tahoma-Bold'" font-size="12">J06</text>
<text transform="matrix(1 0 0 1 881.9855 605.8427)" font-family="'Tahoma-Bold'" font-size="12">J09</text>
<text transform="matrix(1 0 0 1 885.239 629.5648)" font-family="'Tahoma-Bold'" font-size="12">J08</text>
<text transform="matrix(1 0 0 1 932.4166 603.6509)" font-family="'Tahoma-Bold'" font-size="12">J10</text>
<text transform="matrix(1 0 0 1 932.4165 630.8821)" font-family="'Tahoma-Bold'" font-size="12">J07</text>
<text transform="matrix(1 0 0 1 877.9712 567.8301)" font-family="'Tahoma-Bold'" font-size="12">J11</text>
<text transform="matrix(1 0 0 1 928.7176 571.4738)" font-family="'Tahoma-Bold'" font-size="12">J12</text>
<text transform="matrix(1 0 0 1 909.1959 522.1333)" font-family="'Tahoma-Bold'" font-size="12">J13</text>
<text transform="matrix(1 0 0 1 787.6729 905.4387)" font-family="'Tahoma-Bold'" font-size="12">K18</text>
<text transform="matrix(1 0 0 1 793.5057 944.7516)" font-family="'Tahoma-Bold'" font-size="12">K19</text>
<text transform="matrix(1 0 0 1 1042.4937 801.2285)" font-family="'Tahoma-Bold'" font-size="12">F25</text>
<text transform="matrix(1 0 0 1 1107.3701 788.1458)" font-family="'Tahoma-Bold'" font-size="12">F26</text>
<text transform="matrix(1 0 0 1 1065.886 746.1757)" font-family="'Tahoma-Bold'" font-size="12">F24</text>
<text transform="matrix(1 0 0 1 1032.5181 677.6396)" font-family="'Tahoma-Bold'" font-size="12">H06</text>
<text transform="matrix(1 0 0 1 1042.4937 619.9943)" font-family="'Tahoma-Bold'" font-size="12">H07</text>
<text transform="matrix(1 0 0 1 1074.9684 558.4893)" font-family="'Tahoma-Bold'" font-size="12">H09</text>
<text transform="matrix(1 0 0 1 1094.9738 492.438)" font-family="'Tahoma-Bold'" font-size="12">H10</text>
<text transform="matrix(1 0 0 1 1053.8859 451.3354)" font-family="'Tahoma-Bold'" font-size="12">H11</text>
<text transform="matrix(1 0 0 1 1143.1331 415.428)" font-family="'Tahoma-Bold'" font-size="12">H13</text>
<text transform="matrix(1 0 0 1 1189.5084 456.7197)" font-family="'Tahoma-Bold'" font-size="12">H12</text>
<text transform="matrix(1 0 0 1 1181.4924 367.6385)" font-family="'Tahoma-Bold'" font-size="12">H51</text>
<text transform="matrix(1 0 0 1 1266.7793 366.1055)" font-family="'Tahoma-Bold'" font-size="12">H20</text>
<text transform="matrix(1 0 0 1 1268.9855 336.2557)" font-family="'Tahoma-Bold'" font-size="12">H21</text>
<text transform="matrix(1 0 0 1 1270.5897 295.7755)" font-family="'Tahoma-Bold'" font-size="12">H22</text>
<text transform="matrix(1 0 0 1 1296.489 268.7193)" font-family="'Tahoma-Bold'" font-size="12">H23</text>
<text transform="matrix(1 0 0 1 1283.9833 224.4529)" font-family="'Tahoma-Bold'" font-size="12">H24</text>
<text transform="matrix(1 0 0 1 1290.5026 191.7353)" font-family="'Tahoma-Bold'" font-size="12">H25</text>
<text transform="matrix(1 0 0 1 1341.6123 301.8462)" font-family="'Tahoma-Bold'" font-size="12">H29</text>
<text transform="matrix(1 0 0 1 1408.9093 251.3333)" font-family="'Tahoma-Bold'" font-size="12">H33</text>
<text transform="matrix(1 0 0 1 1469.3008 217.6753)" font-family="'Tahoma-Bold'" font-size="12">H34</text>
<text transform="matrix(1 0 0 1 1438.3103 294.0588)" font-family="'Tahoma-Bold'" font-size="12">H35</text>
<text transform="matrix(1 0 0 1 1270.5898 436.8786)" font-family="'Tahoma-Bold'" font-size="12">G06</text>
<text transform="matrix(1 0 0 1 1258.4424 497.9999)" font-family="'Tahoma-Bold'" font-size="12">G07</text>
<text transform="matrix(1 0 0 1 1224.7633 589.6176)" font-family="'Tahoma-Bold'" font-size="12">G27</text>
<text transform="matrix(1 0 0 1 1278.1292 564.9719)" font-family="'Tahoma-Bold'" font-size="12">G03</text>
<text transform="matrix(1 0 0 1 1353.5339 512.7603)" font-family="'Tahoma-Bold'" font-size="12">G02</text>
<text transform="matrix(1 0 0 1 1375.2222 575.1186)" font-family="'Tahoma-Bold'" font-size="12">G01</text>
<text transform="matrix(1 0 0 1 1219.6016 644.29)" font-family="'Tahoma-Bold'" font-size="12">G08</text>
<text transform="matrix(1 0 0 1 1181.4923 777.0129)" font-family="'Tahoma-Bold'" font-size="12">G31</text>
<text transform="matrix(1 0 0 1 1170.6614 727.2567)" font-family="'Tahoma-Bold'" font-size="12">G09</text>
<text transform="matrix(1 0 0 1 1329.333 792)" font-family="'Tahoma-Bold'" font-size="12">E46</text>
<text transform="matrix(1 0 0 1 1400.3281 796.1456)" font-family="'Tahoma-Bold'" font-size="12">E41</text>
<text transform="matrix(1 0 0 1 1551.3856 705.7193)" font-family="'Tahoma-Bold'" font-size="12">E44</text>
<text transform="matrix(1 0 0 1 1523.7432 739.965)" font-family="'Tahoma-Bold'" font-size="12">E45</text>
<text transform="matrix(1 0 0 1 1579.9799 765.4789)" font-family="'Tahoma-Bold'" font-size="12">E37</text>
<text transform="matrix(1 0 0 1 1466.6615 658.1399)" font-family="'Tahoma-Bold'" font-size="12">E42</text>
<text transform="matrix(1 0 0 1 1434.9952 709.3723)" font-family="'Tahoma-Bold'" font-size="12">E49</text>
<text transform="matrix(1 0 0 1 1646.075 780.9415)" font-family="'Tahoma-Bold'" font-size="12">E48</text>
<text transform="matrix(1 0 0 1 1617.3689 739.9651)" font-family="'Tahoma-Bold'" font-size="12">E47</text>
<text transform="matrix(1 0 0 1 1678.6136 838.0769)" font-family="'Tahoma-Bold'" font-size="12">E49</text>
<text transform="matrix(1 0 0 1 1738.4202 847.4733)" font-family="'Tahoma-Bold'" font-size="12">E40</text>
<text transform="matrix(1 0 0 1 1738.4202 804.1399)" font-family="'Tahoma-Bold'" font-size="12">E38</text>
<text transform="matrix(1 0 0 1 1731.3229 764.2205)" font-family="'Tahoma-Bold'" font-size="12">E08</text>
<text transform="matrix(1 0 0 1 1664.667 685.333)" font-family="'Tahoma-Bold'" font-size="12">D31</text>
<text transform="matrix(1 0 0 1 1477.8882 578.566)" font-family="'Tahoma-Bold'" font-size="12">D19</text>
<text transform="matrix(1 0 0 1 1498.7395 628.3678)" font-family="'Tahoma-Bold'" font-size="12">D20</text>
<text transform="matrix(1 0 0 1 1521.3848 597.7848)" font-family="'Tahoma-Bold'" font-size="12">D21</text>
<text transform="matrix(1 0 0 1 1546.2289 644.8395)" font-family="'Tahoma-Bold'" font-size="12">D28</text>
<text transform="matrix(1 0 0 1 1579.9794 662.3915)" font-family="'Tahoma-Bold'" font-size="12">D29</text>
<text transform="matrix(1 0 0 1 1721.333 615.333)" font-family="'Tahoma-Bold'" font-size="12">D09</text>
<text transform="matrix(1 0 0 1 1678.6133 584.1912)" font-family="'Tahoma-Bold'" font-size="12">D10</text>
<text transform="matrix(1 0 0 1 1643.6934 512.7603)" font-family="'Tahoma-Bold'" font-size="12">D01</text>
<text transform="matrix(1 0 0 1 1715.451 547.2939)" font-family="'Tahoma-Bold'" font-size="12">D03</text>
<text transform="matrix(1 0 0 1 1726.2128 575.1186)" font-family="'Tahoma-Bold'" font-size="12">D38</text>
<text transform="matrix(1 0 0 1 1754.8262 584.1912)" font-family="'Tahoma-Bold'" font-size="12">D04</text>
<text transform="matrix(1 0 0 1 1764.0389 605.8428)" font-family="'Tahoma-Bold'" font-size="12">D05</text>
<text transform="matrix(1 0 0 1 1616 435.3335)" font-family="'Tahoma-Bold'" font-size="12">C22</text>
<text transform="matrix(1 0 0 1 1624.0145 389.4556)" font-family="'Tahoma-Bold'" font-size="12">C21</text>
<text transform="matrix(1 0 0 1 1600.167 478.4505)" font-family="'Tahoma-Bold'" font-size="12">C02</text>
<text transform="matrix(1 0 0 1 1565.6666 437.025)" font-family="'Tahoma-Bold'" font-size="12">C03</text>
<text transform="matrix(1 0 0 1 1588.4175 393.1233)" font-family="'Tahoma-Bold'" font-size="12">C04</text>
<text transform="matrix(1 0 0 1 1558.5492 502.6483)" font-family="'Tahoma-Bold'" font-size="12">C09</text>
<text transform="matrix(1 0 0 1 1473.2888 449.1473)" font-family="'Tahoma-Bold'" font-size="12">C23</text>
<text transform="matrix(1 0 0 1 1497.6475 507.6019)" font-family="'Tahoma-Bold'" font-size="12">C10</text>
<text transform="matrix(1 0 0 1 1526.167 478.4503)" font-family="'Tahoma-Bold'" font-size="12">C08</text>
<text transform="matrix(1 0 0 1 1464.4321 416.7459)" font-family="'Tahoma-Bold'" font-size="12">C11</text>
<text transform="matrix(1 0 0 1 1462.6479 378.6308)" font-family="'Tahoma-Bold'" font-size="12">C12</text>
<text transform="matrix(1 0 0 1 1526.1665 320.2526)" font-family="'Tahoma-Bold'" font-size="12">C14</text>
<text transform="matrix(1 0 0 1 1488.4725 336.2557)" font-family="'Tahoma-Bold'" font-size="12">C13</text>
<text transform="matrix(1 0 0 1 1526.6476 353.4306)" font-family="'Tahoma-Bold'" font-size="12">C05</text>
<text transform="matrix(1 0 0 1 1507.0105 395.9554)" font-family="'Tahoma-Bold'" font-size="12">C16</text>
<text transform="matrix(1 0 0 1 1577.9318 169.4585)" font-family="'Tahoma-Bold'" font-size="12">B10</text>
<text transform="matrix(1 0 0 1 1588.4176 134.1252)" font-family="'Tahoma-Bold'" font-size="12">B09</text>
<text transform="matrix(1 0 0 1 1651.9231 178.7533)" font-family="'Tahoma-Bold'" font-size="12">B12</text>
<text transform="matrix(1 0 0 1 1639.1637 153.387)" font-family="'Tahoma-Bold'" font-size="12">B13</text>
<text transform="matrix(1 0 0 1 1664.6671 116.7529)" font-family="'Tahoma-Bold'" font-size="12">B08</text>
<text transform="matrix(1 0 0 1 1736.3969 97.6594)" font-family="'Tahoma-Bold'" font-size="12">B07</text>
<text transform="matrix(1 0 0 1 1717.4026 142.7918)" font-family="'Tahoma-Bold'" font-size="12">B15</text>
<text transform="matrix(1 0 0 1 1782.5759 149.4025)" font-family="'Tahoma-Bold'" font-size="12">B04</text>
<text transform="matrix(1 0 0 1 1792.6781 203.5618)" font-family="'Tahoma-Bold'" font-size="12">B03</text>
<text transform="matrix(1 0 0 1 1705.1573 199.9998)" font-family="'Tahoma-Bold'" font-size="12">B01</text>
</svg>
