<?xml version="1.0" encoding="utf-8"?>
<!-- Generator: Adobe Illustrator 17.0.0, SVG Export Plug-In . SVG Version: 6.00 Build 0)  -->
<!DOCTYPE svg PUBLIC "-//W3C//DTD SVG 1.1//EN" "http://www.w3.org/Graphics/SVG/1.1/DTD/svg11.dtd">
<svg version="1.1" id="Bus_stop" xmlns="http://www.w3.org/2000/svg" xmlns:xlink="http://www.w3.org/1999/xlink" x="0px" y="0px"
	 width="4248px" height="2166px" viewBox="0 0 2124 1083" enable-background="new 0 0 2124 1083" xml:space="preserve">
<g>
	<path fill="#24C652" d="M456.354,589.312c-3.113,0-5.637,0.79-5.637,1.145s2.524,0.644,5.637,0.644s5.637-0.288,5.637-0.644
		S459.467,589.312,456.354,589.312z M460.201,590.708h-7.796v-0.554h7.796V590.708z"/>
	<path fill="none" stroke="#24C652" stroke-miterlimit="10" d="M449.548,598.039h12.891c0,0,0.388-6.095-0.801-7.566
		c-1.724-2.133-9.03-1.939-10.969,0C449.332,591.811,449.548,598.039,449.548,598.039z"/>
	<path fill="#24C652" stroke="#24C652" stroke-miterlimit="10" d="M449.548,598.039v6.405H462.5v-6.405H449.548z M451.59,599.753
		c2.024,0,2.024,3.138,0,3.138S449.566,599.753,451.59,599.753z M461.309,604.306h-10.011v-0.895h10.011V604.306z M460.286,602.936
		c-2.024,0-2.024-3.138,0-3.138S462.31,602.936,460.286,602.936z"/>
	<circle fill="#24C652" stroke="#24C652" stroke-miterlimit="10" cx="451.638" cy="604.965" r="0.921"/>
	<circle fill="#24C652" stroke="#24C652" stroke-miterlimit="10" cx="460.264" cy="604.965" r="0.921"/>
</g>
<g>
	<path fill="#24C652" d="M632.354,666.9c-3.113,0-5.637,0.789-5.637,1.145s2.524,0.644,5.637,0.644s5.637-0.288,5.637-0.644
		S635.467,666.9,632.354,666.9z M636.201,668.296h-7.796v-0.554h7.796V668.296z"/>
	<path fill="none" stroke="#24C652" stroke-miterlimit="10" d="M625.548,675.627h12.891c0,0,0.388-6.095-0.801-7.566
		c-1.724-2.133-9.03-1.939-10.969,0C625.332,669.399,625.548,675.627,625.548,675.627z"/>
	<path fill="#24C652" stroke="#24C652" stroke-miterlimit="10" d="M625.548,675.627v6.405H638.5v-6.405H625.548z M627.59,677.341
		c2.024,0,2.024,3.138,0,3.138S625.566,677.341,627.59,677.341z M637.309,681.895h-10.011V681h10.011V681.895z M636.286,680.524
		c-2.024,0-2.024-3.138,0-3.138S638.31,680.524,636.286,680.524z"/>
	<circle fill="#24C652" stroke="#24C652" stroke-miterlimit="10" cx="627.638" cy="682.553" r="0.921"/>
	<circle fill="#24C652" stroke="#24C652" stroke-miterlimit="10" cx="636.264" cy="682.553" r="0.921"/>
</g>
<g>
	<path fill="#24C652" d="M872.255,726.385c-3.113,0-5.637,0.789-5.637,1.145s2.524,0.644,5.637,0.644s5.637-0.288,5.637-0.644
		S875.368,726.385,872.255,726.385z M876.102,727.781h-7.796v-0.554h7.796V727.781z"/>
	<path fill="none" stroke="#24C652" stroke-miterlimit="10" d="M865.449,735.112h12.891c0,0,0.388-6.095-0.801-7.566
		c-1.724-2.133-9.03-1.939-10.969,0C865.232,728.883,865.449,735.112,865.449,735.112z"/>
	<path fill="#24C652" stroke="#24C652" stroke-miterlimit="10" d="M865.449,735.112v6.405H878.4v-6.405H865.449z M867.491,736.826
		c2.024,0,2.024,3.138,0,3.138S865.467,736.826,867.491,736.826z M877.209,741.379h-10.011v-0.895h10.011V741.379z M876.187,740.009
		c-2.024,0-2.024-3.138,0-3.138S878.211,740.009,876.187,740.009z"/>
	<circle fill="#24C652" stroke="#24C652" stroke-miterlimit="10" cx="867.538" cy="742.038" r="0.921"/>
	<circle fill="#24C652" stroke="#24C652" stroke-miterlimit="10" cx="876.165" cy="742.038" r="0.921"/>
</g>
<g>
	<path fill="#24C652" d="M1127.877,629.187c-3.113,0-5.637,0.789-5.637,1.145s2.524,0.644,5.637,0.644
		c3.113,0,5.637-0.288,5.637-0.644S1130.99,629.187,1127.877,629.187z M1131.724,630.582h-7.796v-0.554h7.796V630.582z"/>
	<path fill="none" stroke="#24C652" stroke-miterlimit="10" d="M1121.072,637.914h12.891c0,0,0.388-6.095-0.801-7.566
		c-1.724-2.133-9.03-1.939-10.969,0C1120.855,631.685,1121.072,637.914,1121.072,637.914z"/>
	<path fill="#24C652" stroke="#24C652" stroke-miterlimit="10" d="M1121.072,637.914v6.405h12.951v-6.405H1121.072z
		 M1123.113,639.628c2.024,0,2.024,3.138,0,3.138S1121.089,639.628,1123.113,639.628z M1132.832,644.181h-10.011v-0.895h10.011
		V644.181z M1131.809,642.811c-2.024,0-2.024-3.138,0-3.138S1133.833,642.811,1131.809,642.811z"/>
	<circle fill="#24C652" stroke="#24C652" stroke-miterlimit="10" cx="1123.161" cy="644.84" r="0.921"/>
	<circle fill="#24C652" stroke="#24C652" stroke-miterlimit="10" cx="1131.787" cy="644.84" r="0.921"/>
</g>
<g>
	<path fill="#24C652" d="M1179.101,524.926c-3.113,0-5.637,0.789-5.637,1.145s2.524,0.644,5.637,0.644
		c3.113,0,5.637-0.288,5.637-0.644S1182.214,524.926,1179.101,524.926z M1182.948,526.322h-7.796v-0.554h7.796V526.322z"/>
	<path fill="none" stroke="#24C652" stroke-miterlimit="10" d="M1172.295,533.654h12.891c0,0,0.388-6.095-0.801-7.566
		c-1.724-2.133-9.03-1.939-10.969,0C1172.078,527.425,1172.295,533.654,1172.295,533.654z"/>
	<path fill="#24C652" stroke="#24C652" stroke-miterlimit="10" d="M1172.295,533.654v6.405h12.951v-6.405H1172.295z
		 M1174.337,535.367c2.024,0,2.024,3.138,0,3.138S1172.313,535.367,1174.337,535.367z M1184.055,539.921h-10.011v-0.895h10.011
		V539.921z M1183.033,538.551c-2.024,0-2.024-3.138,0-3.138S1185.057,538.551,1183.033,538.551z"/>
	<circle fill="#24C652" stroke="#24C652" stroke-miterlimit="10" cx="1174.384" cy="540.579" r="0.921"/>
	<circle fill="#24C652" stroke="#24C652" stroke-miterlimit="10" cx="1183.011" cy="540.579" r="0.921"/>
</g>
<g>
	<path fill="#24C652" d="M1297.354,380.773c-3.113,0-5.637,0.79-5.637,1.145s2.524,0.644,5.637,0.644
		c3.113,0,5.637-0.288,5.637-0.644S1300.467,380.773,1297.354,380.773z M1301.201,382.168h-7.796v-0.554h7.796V382.168z"/>
	<path fill="none" stroke="#24C652" stroke-miterlimit="10" d="M1290.548,389.5h12.891c0,0,0.388-6.095-0.801-7.566
		c-1.724-2.133-9.03-1.939-10.969,0C1290.332,383.271,1290.548,389.5,1290.548,389.5z"/>
	<path fill="#24C652" stroke="#24C652" stroke-miterlimit="10" d="M1290.548,389.5v6.405h12.951V389.5H1290.548z M1292.59,391.214
		c2.024,0,2.024,3.138,0,3.138S1290.566,391.214,1292.59,391.214z M1302.309,395.767h-10.011v-0.895h10.011V395.767z
		 M1301.286,394.397c-2.024,0-2.024-3.138,0-3.138S1303.31,394.397,1301.286,394.397z"/>
	<circle fill="#24C652" stroke="#24C652" stroke-miterlimit="10" cx="1292.638" cy="396.426" r="0.921"/>
	<circle fill="#24C652" stroke="#24C652" stroke-miterlimit="10" cx="1301.264" cy="396.426" r="0.921"/>
</g>
<g>
	<path fill="#24C652" d="M1467.662,440.773c-3.113,0-5.637,0.79-5.637,1.145s2.524,0.644,5.637,0.644
		c3.113,0,5.637-0.288,5.637-0.644S1470.775,440.773,1467.662,440.773z M1471.509,442.168h-7.796v-0.554h7.796V442.168z"/>
	<path fill="none" stroke="#24C652" stroke-miterlimit="10" d="M1460.857,449.5h12.891c0,0,0.388-6.095-0.801-7.566
		c-1.724-2.133-9.03-1.939-10.969,0C1460.64,443.271,1460.857,449.5,1460.857,449.5z"/>
	<path fill="#24C652" stroke="#24C652" stroke-miterlimit="10" d="M1460.857,449.5v6.405h12.951V449.5H1460.857z M1462.898,451.214
		c2.024,0,2.024,3.138,0,3.138S1460.875,451.214,1462.898,451.214z M1472.617,455.767h-10.011v-0.895h10.011V455.767z
		 M1471.594,454.397c-2.024,0-2.024-3.138,0-3.138S1473.618,454.397,1471.594,454.397z"/>
	<circle fill="#24C652" stroke="#24C652" stroke-miterlimit="10" cx="1462.946" cy="456.426" r="0.921"/>
	<circle fill="#24C652" stroke="#24C652" stroke-miterlimit="10" cx="1471.573" cy="456.426" r="0.921"/>
</g>
<g>
	<path fill="#24C652" d="M1761.645,514.478c-3.113,0-5.637,0.789-5.637,1.145s2.524,0.644,5.637,0.644
		c3.113,0,5.637-0.288,5.637-0.644S1764.758,514.478,1761.645,514.478z M1765.492,515.874h-7.796v-0.554h7.796V515.874z"/>
	<path fill="none" stroke="#24C652" stroke-miterlimit="10" d="M1754.839,523.206h12.891c0,0,0.388-6.095-0.801-7.566
		c-1.724-2.133-9.03-1.939-10.969,0C1754.623,516.977,1754.839,523.206,1754.839,523.206z"/>
	<path fill="#24C652" stroke="#24C652" stroke-miterlimit="10" d="M1754.839,523.206v6.405h12.951v-6.405H1754.839z
		 M1756.881,524.919c2.024,0,2.024,3.138,0,3.138S1754.857,524.919,1756.881,524.919z M1766.599,529.473h-10.01v-0.895h10.01
		V529.473z M1765.577,528.103c-2.024,0-2.024-3.138,0-3.138S1767.601,528.103,1765.577,528.103z"/>
	<circle fill="#24C652" stroke="#24C652" stroke-miterlimit="10" cx="1756.929" cy="530.131" r="0.921"/>
	<circle fill="#24C652" stroke="#24C652" stroke-miterlimit="10" cx="1765.555" cy="530.131" r="0.921"/>
</g>
<g>
	<path fill="#24C652" d="M1739.673,731.773c-3.113,0-5.637,0.789-5.637,1.145s2.524,0.644,5.637,0.644
		c3.113,0,5.637-0.288,5.637-0.644S1742.786,731.773,1739.673,731.773z M1743.52,733.168h-7.796v-0.554h7.796V733.168z"/>
	<path fill="none" stroke="#24C652" stroke-miterlimit="10" d="M1732.867,740.5h12.891c0,0,0.388-6.095-0.801-7.566
		c-1.724-2.133-9.03-1.939-10.969,0C1732.65,734.271,1732.867,740.5,1732.867,740.5z"/>
	<path fill="#24C652" stroke="#24C652" stroke-miterlimit="10" d="M1732.867,740.5v6.405h12.951V740.5H1732.867z M1734.909,742.214
		c2.024,0,2.024,3.138,0,3.138S1732.885,742.214,1734.909,742.214z M1744.627,746.767h-10.011v-0.895h10.011V746.767z
		 M1743.605,745.397c-2.024,0-2.024-3.138,0-3.138S1745.628,745.397,1743.605,745.397z"/>
	<circle fill="#24C652" stroke="#24C652" stroke-miterlimit="10" cx="1734.956" cy="747.426" r="0.921"/>
	<circle fill="#24C652" stroke="#24C652" stroke-miterlimit="10" cx="1743.583" cy="747.426" r="0.921"/>
</g>
<g>
	<path fill="#24C652" d="M1457.748,751.965c-3.113,0-5.637,0.789-5.637,1.145s2.524,0.644,5.637,0.644
		c3.113,0,5.637-0.288,5.637-0.644S1460.861,751.965,1457.748,751.965z M1461.595,753.361h-7.796v-0.554h7.796V753.361z"/>
	<path fill="none" stroke="#24C652" stroke-miterlimit="10" d="M1450.943,760.693h12.891c0,0,0.388-6.095-0.801-7.566
		c-1.724-2.133-9.03-1.939-10.969,0C1450.726,754.464,1450.943,760.693,1450.943,760.693z"/>
	<path fill="#24C652" stroke="#24C652" stroke-miterlimit="10" d="M1450.943,760.693v6.405h12.951v-6.405H1450.943z
		 M1452.984,762.406c2.024,0,2.024,3.138,0,3.138S1450.961,762.406,1452.984,762.406z M1462.703,766.96h-10.011v-0.895h10.011
		V766.96z M1461.68,765.59c-2.024,0-2.024-3.138,0-3.138S1463.704,765.59,1461.68,765.59z"/>
	<circle fill="#24C652" stroke="#24C652" stroke-miterlimit="10" cx="1453.032" cy="767.618" r="0.921"/>
	<circle fill="#24C652" stroke="#24C652" stroke-miterlimit="10" cx="1461.658" cy="767.618" r="0.921"/>
</g>
<g>
	<path fill="#24C652" d="M1326.854,760.436c-3.113,0-5.637,0.789-5.637,1.145s2.524,0.644,5.637,0.644
		c3.113,0,5.637-0.288,5.637-0.644S1329.967,760.436,1326.854,760.436z M1330.701,761.831h-7.796v-0.554h7.796V761.831z"/>
	<path fill="none" stroke="#24C652" stroke-miterlimit="10" d="M1320.048,769.163h12.891c0,0,0.388-6.095-0.801-7.566
		c-1.724-2.133-9.03-1.939-10.969,0C1319.832,762.934,1320.048,769.163,1320.048,769.163z"/>
	<path fill="#24C652" stroke="#24C652" stroke-miterlimit="10" d="M1320.048,769.163v6.405H1333v-6.405H1320.048z M1322.09,770.877
		c2.024,0,2.024,3.138,0,3.138S1320.066,770.877,1322.09,770.877z M1331.809,775.43h-10.011v-0.895h10.011V775.43z M1330.786,774.06
		c-2.024,0-2.024-3.138,0-3.138S1332.81,774.06,1330.786,774.06z"/>
	<circle fill="#24C652" stroke="#24C652" stroke-miterlimit="10" cx="1322.138" cy="776.089" r="0.921"/>
	<circle fill="#24C652" stroke="#24C652" stroke-miterlimit="10" cx="1330.764" cy="776.089" r="0.921"/>
</g>
<g>
	<path fill="#24C652" d="M1114.913,756.512c-3.113,0-5.637,0.789-5.637,1.145s2.524,0.644,5.637,0.644
		c3.113,0,5.637-0.288,5.637-0.644S1118.026,756.512,1114.913,756.512z M1118.76,757.908h-7.796v-0.554h7.796V757.908z"/>
	<path fill="none" stroke="#24C652" stroke-miterlimit="10" d="M1108.107,765.24h12.891c0,0,0.388-6.095-0.801-7.566
		c-1.724-2.133-9.03-1.939-10.969,0C1107.891,759.011,1108.107,765.24,1108.107,765.24z"/>
	<path fill="#24C652" stroke="#24C652" stroke-miterlimit="10" d="M1108.107,765.24v6.405h12.951v-6.405H1108.107z
		 M1110.149,766.953c2.024,0,2.024,3.138,0,3.138S1108.125,766.953,1110.149,766.953z M1119.868,771.507h-10.011v-0.895h10.011
		V771.507z M1118.845,770.137c-2.024,0-2.024-3.138,0-3.138S1120.869,770.137,1118.845,770.137z"/>
	<circle fill="#24C652" stroke="#24C652" stroke-miterlimit="10" cx="1110.197" cy="772.165" r="0.921"/>
	<circle fill="#24C652" stroke="#24C652" stroke-miterlimit="10" cx="1118.823" cy="772.165" r="0.921"/>
</g>
<g>
	<path fill="#24C652" d="M1191.264,579.672c-3.113,0-5.637,0.789-5.637,1.145s2.524,0.644,5.637,0.644
		c3.113,0,5.637-0.288,5.637-0.644S1194.377,579.672,1191.264,579.672z M1195.111,581.068h-7.796v-0.554h7.796V581.068z"/>
	<path fill="none" stroke="#24C652" stroke-miterlimit="10" d="M1184.459,588.4h12.891c0,0,0.388-6.095-0.801-7.566
		c-1.724-2.133-9.03-1.939-10.969,0C1184.242,582.171,1184.459,588.4,1184.459,588.4z"/>
	<path fill="#24C652" stroke="#24C652" stroke-miterlimit="10" d="M1184.459,588.4v6.405h12.951V588.4H1184.459z M1186.5,590.113
		c2.024,0,2.024,3.138,0,3.138S1184.477,590.113,1186.5,590.113z M1196.219,594.667h-10.011v-0.895h10.011V594.667z
		 M1195.196,593.297c-2.024,0-2.024-3.138,0-3.138S1197.22,593.297,1195.196,593.297z"/>
	<circle fill="#24C652" stroke="#24C652" stroke-miterlimit="10" cx="1186.548" cy="595.326" r="0.921"/>
	<circle fill="#24C652" stroke="#24C652" stroke-miterlimit="10" cx="1195.175" cy="595.326" r="0.921"/>
</g>
<g>
	<path fill="#24C652" d="M605.581,670.726c-3.113,0-5.637,0.789-5.637,1.145s2.524,0.644,5.637,0.644s5.637-0.288,5.637-0.644
		S608.694,670.726,605.581,670.726z M609.428,672.122h-7.796v-0.554h7.796V672.122z"/>
	<path fill="none" stroke="#24C652" stroke-miterlimit="10" d="M598.775,679.454h12.891c0,0,0.388-6.095-0.801-7.566
		c-1.724-2.133-9.03-1.939-10.969,0C598.559,673.225,598.775,679.454,598.775,679.454z"/>
	<path fill="#24C652" stroke="#24C652" stroke-miterlimit="10" d="M598.775,679.454v6.405h12.951v-6.405H598.775z M600.817,681.167
		c2.024,0,2.024,3.138,0,3.138S598.793,681.167,600.817,681.167z M610.535,685.721h-10.011v-0.895h10.011V685.721z M609.513,684.351
		c-2.024,0-2.024-3.138,0-3.138S611.537,684.351,609.513,684.351z"/>
	<circle fill="#24C652" stroke="#24C652" stroke-miterlimit="10" cx="600.865" cy="686.379" r="0.921"/>
	<circle fill="#24C652" stroke="#24C652" stroke-miterlimit="10" cx="609.491" cy="686.379" r="0.921"/>
</g>
<g>
	<path fill="#24C652" d="M708.377,738.797c-3.113,0-5.637,0.789-5.637,1.145s2.524,0.644,5.637,0.644s5.637-0.288,5.637-0.644
		S711.49,738.797,708.377,738.797z M712.224,740.193h-7.796v-0.554h7.796V740.193z"/>
	<path fill="none" stroke="#24C652" stroke-miterlimit="10" d="M701.571,747.525h12.891c0,0,0.388-6.095-0.801-7.566
		c-1.724-2.133-9.03-1.939-10.969,0C701.355,741.296,701.571,747.525,701.571,747.525z"/>
	<path fill="#24C652" stroke="#24C652" stroke-miterlimit="10" d="M701.571,747.525v6.405h12.951v-6.405H701.571z M703.613,749.238
		c2.024,0,2.024,3.138,0,3.138S701.589,749.238,703.613,749.238z M713.331,753.792h-10.011v-0.895h10.011V753.792z M712.309,752.422
		c-2.024,0-2.024-3.138,0-3.138S714.333,752.422,712.309,752.422z"/>
	<circle fill="#24C652" stroke="#24C652" stroke-miterlimit="10" cx="703.661" cy="754.45" r="0.921"/>
	<circle fill="#24C652" stroke="#24C652" stroke-miterlimit="10" cx="712.287" cy="754.45" r="0.921"/>
</g>
<g>
	<path fill="#24C652" d="M1013.129,713.284c-3.113,0-5.637,0.79-5.637,1.145s2.524,0.644,5.637,0.644s5.637-0.288,5.637-0.644
		S1016.242,713.284,1013.129,713.284z M1016.976,714.68h-7.796v-0.554h7.796V714.68z"/>
	<path fill="none" stroke="#24C652" stroke-miterlimit="10" d="M1006.324,722.012h12.891c0,0,0.388-6.095-0.801-7.566
		c-1.724-2.133-9.03-1.939-10.969,0C1006.107,715.783,1006.324,722.012,1006.324,722.012z"/>
	<path fill="#24C652" stroke="#24C652" stroke-miterlimit="10" d="M1006.324,722.012v6.405h12.951v-6.405H1006.324z
		 M1008.365,723.725c2.024,0,2.024,3.138,0,3.138S1006.342,723.725,1008.365,723.725z M1018.084,728.279h-10.011v-0.895h10.011
		V728.279z M1017.061,726.909c-2.024,0-2.024-3.138,0-3.138S1019.085,726.909,1017.061,726.909z"/>
	<circle fill="#24C652" stroke="#24C652" stroke-miterlimit="10" cx="1008.413" cy="728.937" r="0.921"/>
	<circle fill="#24C652" stroke="#24C652" stroke-miterlimit="10" cx="1017.04" cy="728.937" r="0.921"/>
</g>
<g>
	<path fill="#24C652" d="M1319.347,401.96c-3.113,0-5.637,0.79-5.637,1.145s2.524,0.644,5.637,0.644
		c3.113,0,5.637-0.288,5.637-0.644S1322.46,401.96,1319.347,401.96z M1323.194,403.356h-7.796v-0.554h7.796V403.356z"/>
	<path fill="none" stroke="#24C652" stroke-miterlimit="10" d="M1312.541,410.688h12.891c0,0,0.388-6.095-0.801-7.566
		c-1.724-2.133-9.03-1.939-10.969,0C1312.325,404.459,1312.541,410.688,1312.541,410.688z"/>
	<path fill="#24C652" stroke="#24C652" stroke-miterlimit="10" d="M1312.541,410.688v6.405h12.951v-6.405H1312.541z
		 M1314.583,412.401c2.024,0,2.024,3.138,0,3.138S1312.559,412.401,1314.583,412.401z M1324.301,416.955h-10.011v-0.895h10.011
		V416.955z M1323.279,415.585c-2.024,0-2.024-3.138,0-3.138S1325.303,415.585,1323.279,415.585z"/>
	<circle fill="#24C652" stroke="#24C652" stroke-miterlimit="10" cx="1314.631" cy="417.613" r="0.921"/>
	<circle fill="#24C652" stroke="#24C652" stroke-miterlimit="10" cx="1323.257" cy="417.613" r="0.921"/>
</g>
<g>
	<path fill="#24C652" d="M1451.887,464.202c-3.113,0-5.637,0.79-5.637,1.145s2.524,0.644,5.637,0.644
		c3.113,0,5.637-0.288,5.637-0.644S1455,464.202,1451.887,464.202z M1455.734,465.598h-7.796v-0.554h7.796V465.598z"/>
	<path fill="none" stroke="#24C652" stroke-miterlimit="10" d="M1445.081,472.93h12.891c0,0,0.388-6.095-0.801-7.566
		c-1.724-2.133-9.03-1.939-10.969,0C1444.864,466.701,1445.081,472.93,1445.081,472.93z"/>
	<path fill="#24C652" stroke="#24C652" stroke-miterlimit="10" d="M1445.081,472.93v6.405h12.951v-6.405H1445.081z
		 M1447.123,474.644c2.024,0,2.024,3.138,0,3.138S1445.099,474.644,1447.123,474.644z M1456.841,479.197h-10.011v-0.895h10.011
		V479.197z M1455.819,477.827c-2.024,0-2.024-3.138,0-3.138S1457.843,477.827,1455.819,477.827z"/>
	<circle fill="#24C652" stroke="#24C652" stroke-miterlimit="10" cx="1447.17" cy="479.856" r="0.921"/>
	<circle fill="#24C652" stroke="#24C652" stroke-miterlimit="10" cx="1455.797" cy="479.856" r="0.921"/>
</g>
<g>
	<path fill="#24C652" d="M1435.333,584.525c-3.113,0-5.637,0.789-5.637,1.145s2.524,0.644,5.637,0.644
		c3.113,0,5.637-0.288,5.637-0.644S1438.446,584.525,1435.333,584.525z M1439.18,585.921h-7.796v-0.554h7.796V585.921z"/>
	<path fill="none" stroke="#24C652" stroke-miterlimit="10" d="M1428.527,593.253h12.891c0,0,0.388-6.095-0.801-7.566
		c-1.724-2.133-9.03-1.939-10.969,0C1428.311,587.024,1428.527,593.253,1428.527,593.253z"/>
	<path fill="#24C652" stroke="#24C652" stroke-miterlimit="10" d="M1428.527,593.253v6.405h12.951v-6.405H1428.527z
		 M1430.569,594.966c2.024,0,2.024,3.138,0,3.138S1428.545,594.966,1430.569,594.966z M1440.287,599.52h-10.011v-0.895h10.011
		V599.52z M1439.265,598.15c-2.024,0-2.024-3.138,0-3.138S1441.289,598.15,1439.265,598.15z"/>
	<circle fill="#24C652" stroke="#24C652" stroke-miterlimit="10" cx="1430.617" cy="600.178" r="0.921"/>
	<circle fill="#24C652" stroke="#24C652" stroke-miterlimit="10" cx="1439.243" cy="600.178" r="0.921"/>
</g>
<g>
	<path fill="#24C652" d="M1816.326,570.462c-3.113,0-5.637,0.789-5.637,1.145s2.524,0.644,5.637,0.644
		c3.113,0,5.637-0.288,5.637-0.644S1819.439,570.462,1816.326,570.462z M1820.173,571.858h-7.796v-0.554h7.796V571.858z"/>
	<path fill="none" stroke="#24C652" stroke-miterlimit="10" d="M1809.52,579.19h12.891c0,0,0.388-6.095-0.801-7.566
		c-1.724-2.133-9.03-1.939-10.969,0C1809.304,572.961,1809.52,579.19,1809.52,579.19z"/>
	<path fill="#24C652" stroke="#24C652" stroke-miterlimit="10" d="M1809.52,579.19v6.405h12.951v-6.405H1809.52z M1811.562,580.904
		c2.024,0,2.024,3.138,0,3.138S1809.538,580.904,1811.562,580.904z M1821.28,585.457h-10.011v-0.895h10.011V585.457z
		 M1820.258,584.087c-2.024,0-2.024-3.138,0-3.138S1822.282,584.087,1820.258,584.087z"/>
	<circle fill="#24C652" stroke="#24C652" stroke-miterlimit="10" cx="1811.61" cy="586.116" r="0.921"/>
	<circle fill="#24C652" stroke="#24C652" stroke-miterlimit="10" cx="1820.236" cy="586.116" r="0.921"/>
</g>
</svg>
