<?xml version="1.0" encoding="utf-8"?>
<!-- Generator: Adobe Illustrator 17.0.0, SVG Export Plug-In . SVG Version: 6.00 Build 0)  -->
<!DOCTYPE svg PUBLIC "-//W3C//DTD SVG 1.1//EN" "http://www.w3.org/Graphics/SVG/1.1/DTD/svg11.dtd">
<svg version="1.1" xmlns="http://www.w3.org/2000/svg" xmlns:xlink="http://www.w3.org/1999/xlink" x="0px" y="0px" width="4248px"
	 height="2166px" viewBox="0 0 2124 1083" enable-background="new 0 0 2124 1083" xml:space="preserve">
<g id="Desa_Shape">
	<polygon opacity="0.5" fill="#D88235" stroke="#EA1B3D" stroke-miterlimit="1" points="254.383,640.9 267.712,625.325 
		339.748,616.788 352.108,625.646 363.827,618.531 377.471,631.333 365.956,645.543 374.643,659.022 358.468,673.099 
		345.289,659.92 329.714,672.95 281.496,710.957 268.311,696.463 252.436,710.091 240.005,697.661 256.03,679.09 245.996,668.756 
		260.523,654.08 	"/>
	<polyline opacity="0.5" fill="#D88235" stroke="#EA1B3D" stroke-miterlimit="1" points="1421.333,185.333 1394.667,255.333 
		1388,311.333 1413.333,317.333 1439.333,282.667 1470.667,276 1476.667,256.667 1500,237.333 1500,216 1458,210.667 	"/>
	<polygon opacity="0.5" fill="#D88235" stroke="#EA1B3D" stroke-miterlimit="1" points="100.946,583.62 117.333,568.333 
		129.25,579.5 142.928,569.555 155.833,584.5 142,597 166.525,624.979 189.333,651 203.333,644 214,661.333 199.667,672 
		205,688.167 186.833,697.333 176,682.167 159,691.5 148.5,677 168,663.873 122.5,612 106.333,624.5 95,609 111,596.333 	"/>
	<polyline opacity="0.5" fill="#D88235" stroke="#EA1B3D" stroke-miterlimit="1" points="52,563.5 40.25,549.75 56.25,532.75 
		47.5,523 62,507.5 77,518 89.333,508.75 102.25,523 89.597,532.998 98.5,550.25 83.25,563.5 81.5,588.25 68,604 81.898,619.87 
		90.591,634.594 105,649.5 91.25,661.75 100,677 84.714,690.251 71.5,676.75 53.315,688.316 46,679.25 46.319,673.24 58,659.5 
		49.5,648.75 54,589.167 	"/>
	<polygon opacity="0.5" fill="#D88235" stroke="#EA1B3D" stroke-miterlimit="1" points="1033.929,760.531 1025.591,768.452 
		1047.27,791.382 1047.27,793.884 1053.524,801.18 1065.614,801.18 1065.614,800.138 1093.13,799.512 1117.519,795.552 
		1127.734,786.368 1104.178,758.864 1085.417,755.111 1084.992,735.152 1054.12,734.734 1054.358,762.407 	"/>
	<circle opacity="0.5" fill="#D88235" stroke="#EA1B3D" stroke-miterlimit="1" cx="1158" cy="464" r="34"/>
	<polygon opacity="0.5" fill="#D88235" stroke="#EA1B3D" stroke-miterlimit="1" points="686.438,749.393 686.438,762.945 
		681.134,772.317 681.134,786.445 680.613,826.525 680.613,842.672 674.748,848.025 674.748,862.154 776.865,865.758 
		851.257,865.758 849.591,831.878 851.257,788.194 851.257,774.065 845.837,768.01 845.837,754.458 753.333,749.393 	"/>
	<polyline opacity="0.5" fill="#D88235" stroke="#EA1B3D" stroke-miterlimit="1" points="607.244,518.273 645.164,521.927 
		694.631,553.667 694.631,587.776 692.717,629.126 730.636,633.218 731.576,663.19 727.47,683.279 726.53,713.251 688.611,716.904 
		669.169,688.686 664.501,688.686 651.466,682.019 654.501,655.722 643.164,598.307 605.244,601.96 605.244,571.577 
		607.244,548.656 607.244,519.488 	"/>
</g>
<g id="Desa_Text">
	<text transform="matrix(1 0 0 1 31.3332 611.9997)" font-family="'Tahoma-Bold'" font-size="12"> Restu</text>
	<text transform="matrix(1 0 0 1 686.3332 819)" font-family="'Tahoma-Bold'" font-size="12"> Aman Damai</text>
	<text transform="matrix(1 0 0 1 620.2954 625.6387)" font-family="'Tahoma-Bold'" font-size="12">Indah Kembara</text>
	<text transform="matrix(1 0 0 1 280.3332 681.3337)" font-family="'Tahoma-Bold'" font-size="12">Tekun</text>
	<text transform="matrix(1 0 0 1 109.8332 616.7881)" font-family="'Tahoma-Bold'" font-size="12">Saujana</text>
	<rect x="1015.359" y="764.776" fill="none" width="137.993" height="62.997"/>
	<text transform="matrix(1 0 0 1 1015.3596 775.1384)" font-family="'Tahoma-Bold'" font-size="12">Fajar Harapan</text>
	<rect x="1089.003" y="464" fill="none" width="137.993" height="62.997"/>
	<text transform="matrix(1 0 0 1 1089.0035 474.3627)" font-family="'Tahoma-Bold'" font-size="12">Bakti Permai</text>
	<rect x="1352.076" y="234.294" fill="none" width="161.423" height="36.847"/>
	<text transform="matrix(1 0 0 1 1352.0757 244.657)" font-family="'Tahoma-Bold'" font-size="12">Cahaya Gemilang</text>
</g>
</svg>
