<?xml version="1.0" encoding="utf-8"?>
<!-- Generator: Adobe Illustrator 17.0.0, SVG Export Plug-In . SVG Version: 6.00 Build 0)  -->
<svg version="1.2" baseProfile="tiny" xmlns="http://www.w3.org/2000/svg" xmlns:xlink="http://www.w3.org/1999/xlink" x="0px"
	 y="0px" width="4248px" height="2166px" viewBox="0 0 2124 1083" xml:space="preserve">
<g id="School">
	<polygon fill="#1AD66B" fill-opacity="0.5" stroke="#19490B" stroke-miterlimit="10" stroke-opacity="0.5" points="
		1171.926,759.011 1172.096,788.924 1186.947,789.071 1186.947,801.229 1210.749,801.229 1209.846,788.615 1231.662,787.67 
		1231.494,760.037 	"/>
	
		<rect x="1143.133" y="698.691" fill="#1AD66B" fill-opacity="0.5" stroke="#19490B" stroke-miterlimit="10" stroke-opacity="0.5" width="55.056" height="53.985"/>
	<polygon fill="#1AD66B" fill-opacity="0.5" stroke="#19490B" stroke-miterlimit="10" stroke-opacity="0.5" points="
		1439.353,678.277 1415.141,710.249 1439.353,724.483 1462.648,690.645 	"/>
	<polygon fill="#1AD66B" fill-opacity="0.5" stroke="#19490B" stroke-miterlimit="10" stroke-opacity="0.5" points="
		1498.74,728.016 1523.741,709.739 1534.229,718.499 1509.392,743.1 	"/>
	<polygon fill="#1AD66B" fill-opacity="0.5" stroke="#19490B" stroke-miterlimit="10" stroke-opacity="0.5" points="1603.767,728.1 
		1598.153,742.915 1585.136,739.965 1563.824,771.541 1546.232,764.195 1576.23,721.445 	"/>
	
		<circle fill="#1AD66B" fill-opacity="0.5" stroke="#19490B" stroke-miterlimit="10" stroke-opacity="0.5" cx="1513.333" cy="614" r="20.667"/>
	<polygon fill="#1AD66B" fill-opacity="0.5" stroke="#19490B" stroke-miterlimit="10" stroke-opacity="0.5" points="
		1486.103,482.265 1497.647,475.306 1514.667,501.22 1501.763,510.165 	"/>
	
		<circle fill="#1AD66B" fill-opacity="0.5" stroke="#19490B" stroke-miterlimit="10" stroke-opacity="0.5" cx="944.297" cy="592.284" r="32.323"/>
	<polygon fill="#1AD66B" fill-opacity="0.5" stroke="#19490B" stroke-miterlimit="10" stroke-opacity="0.5" points="
		1174.162,638.952 1174.162,648.21 1166.667,648.21 1166.667,656.366 1170.414,656.366 1170.414,661.657 1164.683,661.657 
		1164.683,675.324 1247.789,675.324 1247.789,619.994 1165.785,619.994 1165.565,631.677 1198.19,631.898 1198.19,661.436 
		1189.421,661.436 1189.421,649.092 1179.232,648.651 1179.232,639.172 	"/>
	<polygon fill="#1AD66B" fill-opacity="0.5" stroke="#19490B" stroke-miterlimit="10" stroke-opacity="0.5" points="
		1498.628,372.705 1494.317,380.969 1502.496,384.737 1498.14,395.148 1505.741,397.975 1519.705,373.477 1509.613,369.546 
		1506.894,375.708 	"/>
	<polygon fill="#1AD66B" fill-opacity="0.5" stroke="#19490B" stroke-miterlimit="10" stroke-opacity="0.5" points="
		1476.443,358.798 1471.18,378.631 1469.301,401.201 1471.18,428.034 1484.714,428.034 1484.714,401.201 1485.542,383.761 
		1492.608,361.729 	"/>
	<polygon fill="#1AD66B" fill-opacity="0.5" stroke="#19490B" stroke-miterlimit="10" stroke-opacity="0.5" points="
		1268.985,404.732 1268.985,421.234 1293.127,421.234 1293.127,440.487 1274.639,440.487 1274.661,434.419 1270.748,434.224 
		1270.59,451.335 1351.191,451.335 1351.191,423.373 1352.005,415.428 1352.005,406.719 1331.785,406.719 1331.785,415.428 
		1329.493,423.373 1329.493,441.251 1300.462,441.251 1300.59,422.482 1322.159,422.304 1322.159,406.871 	"/>
	<polygon fill="#1AD66B" fill-opacity="0.5" stroke="#19490B" stroke-miterlimit="10" stroke-opacity="0.5" points="
		1235.217,472.116 1235.217,485.868 1243.621,485.868 1243.621,498.092 1233.078,498.092 1233.078,512.76 1291.599,512.76 
		1291.599,499.772 1281.973,499.772 1281.973,489.993 1308.102,489.993 1308.102,474.102 	"/>
	
		<circle fill="#1AD66B" fill-opacity="0.5" stroke="#19490B" stroke-miterlimit="10" stroke-opacity="0.5" cx="1748.435" cy="792" r="39.026"/>
	<polygon fill="#1AD66B" fill-opacity="0.5" stroke="#19490B" stroke-miterlimit="10" stroke-opacity="0.5" points="
		1678.613,569.191 1701.857,596.379 1726.213,620.726 1751.076,650.375 1761.858,638.358 1712.638,583.722 1690.607,560.753 	"/>
</g>
<g id="School_Text">
	<rect x="1068.852" y="758.602" fill="none" width="283.794" height="50.99"/>
	<text transform="matrix(1 0 0 1 1153.2935 768.9637)" font-family="'Tahoma-Bold'" font-size="12">Computer Sciences</text>
	<text transform="matrix(1 0 0 1 1141.9673 783.3641)" font-family="'Tahoma-Bold'" font-size="12">Mathematical Sciences</text>
	<text transform="matrix(1 0 0 1 1130.6156 727.3333)" font-family="'Tahoma-Bold'" font-size="12">Chemical Sciences</text>
	<text transform="matrix(1 0 0 1 1165.4922 650.8369)" font-family="'Tahoma-Bold'" font-size="12">Biological Sciences</text>
	<text transform="matrix(1 0 0 1 1196.498 499.5036)" font-family="'Tahoma-Bold'" font-size="12">Industrial Technology</text>
	<text transform="matrix(1 0 0 1 1269.8137 432.189)" font-family="'Tahoma-Bold'" font-size="12">Physics</text>
	<text transform="matrix(1 0 0 1 1482.8556 387.4568)" font-family="'Tahoma-Bold'" font-size="12">Social Sciences</text>
	<text transform="matrix(1 0 0 1 1452.9215 507.6022)" font-family="'Tahoma-Bold'" font-size="12">Communication</text>
	<text transform="matrix(1 0 0 1 1501.0437 619.3333)" font-family="'Tahoma-Bold'" font-size="12">Arts</text>
	<text transform="matrix(1 0 0 1 1374.9023 706.6667)" font-family="'Tahoma-Bold'" font-size="12">Distance Education</text>
	<text transform="matrix(1 0 0 1 1473.9939 727.3333)" font-family="'Tahoma-Bold'" font-size="12">Management</text>
	<text transform="matrix(1 0 0 1 1507.1031 758.0003)" font-family="'Tahoma-Bold'" font-size="12">Educational Studies</text>
	<text transform="matrix(1 0 0 1 876.0605 592.283)" font-family="'Tahoma-Bold'" font-size="12">Pharmaceutical Sciences</text>
	<rect x="1432.004" y="396.5" fill="none" width="70.643" height="16.333"/>
	
		<text transform="matrix(1 0 0 1 1432.0045 406.8623)" fill="#020202" stroke="#000000" stroke-width="0.25" stroke-miterlimit="10" font-family="'Tahoma-Bold'" font-size="12">Humanities</text>
	<text transform="matrix(1 0 0 1 1774.8159 804.1395)" font-family="'Tahoma-Bold'" font-size="12">HBP</text>
	<text transform="matrix(1 0 0 1 1649.1694 631.8577)" font-family="'Tahoma-Bold'" font-size="12">Languages, Literacies, and Translation</text>
</g>
</svg>
